<svg fill="none" height="140" viewBox="0 0 140 140" width="140" xmlns="http://www.w3.org/2000/svg" xmlns:xlink="http://www.w3.org/1999/xlink"><clipPath id="a"><path d="m0 0h140v140h-140z"/></clipPath><g clip-path="url(#a)" fill="#fff"><path d="m65.1006 65.1699c-1.1322 0-2.0508.9175-2.0508 2.0508 0 1.1322.9186 2.0508 2.0508 2.0508h9.7989c1.1322 0 2.0508-.9186 2.0508-2.0508 0-1.1333-.9186-2.0508-2.0508-2.0508z"/><path d="m76.9503 75.4238c0-1.1322-.9186-2.0508-2.0508-2.0508h-9.7989c-1.1322 0-2.0508.9186-2.0508 2.0508s.9186 2.0508 2.0508 2.0508h9.7989c1.1322 0 2.0508-.9186 2.0508-2.0508z"/><path d="m72.0508 81.5771h-4.1016c-1.1322 0-2.0508.9176-2.0508 2.0508 0 1.1322.9186 2.0508 2.0508 2.0508h4.1016c1.1333 0 2.0508-.9186 2.0508-2.0508 0-1.1332-.9175-2.0508-2.0508-2.0508z"/><path d="m139.4 93.287-9.844-9.8437c-.801-.8011-2.1-.8011-2.901 0-.8.8011-.8 2.0999 0 2.8999l.559.5587c-.006.0042-.011.0085-.015.0128l-3.249 3.2481c-.289-.079-.585-.1388-.889-.1655-1.46-.1261-2.888.393-3.929 1.4259l-3.647 3.6465c-1.313 1.3042-1.764 3.1638-1.294 4.8525l-1.513 1.5128-14.2897 3.829c-1.584-5.8769-4.9646-11.1086-9.6408-14.9794 4.9518-1.3587 10.7196-3.4992 14.4115-7.0688 5.407-5.2316 7.173-24.7237 7.173-30.8525 0-22.2382-17.9465-45.8008-40.332-45.8008-22.3867 0-40.3321 23.5658-40.3321 45.8008 0 6.1288 1.7667 25.6219 7.1746 30.8525 3.7341 3.6124 9.6205 5.755 14.6353 7.1126-4.0759 3.1904-7.0496 7.1446-8.8355 11.6026-2.447-1.53-5.2519-2.4297-8.1401-2.5781-2.7034-.1399-5.3747.3567-7.8196 1.4421l-.8855-.8856c.4892-1.7005.0427-3.5793-1.2764-4.8899l-3.6562-3.6561c-1.302-1.2914-3.1744-1.7208-4.8588-1.2465l-3.2033-3.2022c-.0053-.0043-.0107-.0086-.0149-.0139l.5575-.5576c.8-.8011.8-2.0988 0-2.8999-.8011-.8011-2.0999-.8011-2.901 0l-9.843742 9.8437c-.800018.8011-.800018 2.1 0 2.9.400542.4005.926052.6013 1.450502.6013.52444 0 1.04996-.2008 1.4505-.6013l.58639-.5864c.00428.0043.00855.0107.01389.0149l1.96854 1.9686c-2.52716 4.3309-1.5947 8.6079 2.83691 13.0389 1.70901 1.709 3.99581 2.968 6.50801 2.968.4476 0 .9015-.043 1.3619-.127-.1709.973-.2607 1.962-.2607 2.955 0 9.638 7.8774 17.095 17.0888 17.095 2.4246 0 4.8567-.521 7.1393-1.574 3.0569-1.11 8.6464-5.582 9.7572-12.993.7808-5.218-.894-10.463-4.4999-14.267.6633-1.971 1.5893-3.823 2.7546-5.5397 1.7934 3.9237 2.7494 8.2107 2.7825 12.5617.0085 1.128.925 2.036 2.0508 2.036h.016c1.1322-.008 2.0433-.933 2.0347-2.067-.0427-5.589-1.4312-11.083-4.0214-15.9924 1.5317-1.5371 3.3058-2.9149 5.3-4.1155 2.588.4775 5.2295.815 7.9104 1.0072 1.5157.1079 2.7034 1.3704 2.7034 2.8743v22.9534c0 1.133.9186 2.051 2.0508 2.051 1.1333 0 2.0508-.918 2.0508-2.051v-22.9534c0-3.6454-2.8604-6.7056-6.5123-6.9662-7.4426-.5309-20.1083-3.0655-25.4286-8.2117-3.4362-3.324-5.9238-18.975-5.9238-27.9034 0-19.9385 16.1456-41.6992 36.2305-41.6992 20.0624 0 36.23 21.7308 36.23 41.6992 0 8.9284-2.487 24.5794-5.923 27.9034-4.9468 4.7852-16.1662 7.2824-23.0214 8.0077-1.1269.1185-1.9429 1.1279-1.8243 2.2548.1196 1.1268 1.1279 1.9418 2.2558 1.8232 1.9376-.205 3.8527-.4881 5.7379-.8459 1.7325 1.0895 3.3112 2.3734 4.7104 3.8164-2.5955 5.0761-3.858 10.5491-3.8153 16.1291.0086 1.103.894 2.035 2.0668 2.035 1.1322-.008 2.0433-.933 2.0348-2.065-.0321-4.217.7786-8.469 2.5731-12.5658 1.5242 2.2738 2.6799 4.7948 3.4008 7.4708-1.8136.496-3.3133 1.664-4.2244 3.293-1.4633 2.615-1.1653 6.029 1.144 8.339l13.5088 13.509c1.781 1.782 4.296 2.451 6.723 1.801 2.43-.652 4.27-2.491 4.921-4.922l4.22-15.751c3.659 1.974 7.472.985 10.375-1.918 4.443-4.443 5.369-8.731 2.817-13.0736l1.988-1.9889c.005-.0053.009-.0106.013-.016l.588.5875c.4.3995.925.6003 1.45.6003s1.049-.1998 1.451-.6003c.801-.8.801-2.0989 0-2.9zm-117.775 4.6389c.3344.3311.3247.8342.1058 1.1076-.0011.0011-.0257.0321-.0299.0385-.3183.409-.9239.4475-1.2882.0854l-3.6572-3.6561c-.8427-.8375.4337-2.006 1.2134-1.2327zm-11.73641-8.1262c.00427.0053.00854.0106.01388.016l2.96293 2.9629c-.1314.2767-.2382.564-.3151.8609-1.3148-.0598-2.57947.2831-3.6839.941l-1.86493-1.8649c-.00427-.0053-.00961-.0085-.01495-.0139zm1.91831 17.9233c-3.86762-3.868-3.48737-6.315-1.7261-8.7995.9122-1.2871 2.649-1.6396 3.7801-.517l4.5085 4.5085c1.2551 1.247 1.8564 3.518.6537 4.721-2.4235 2.424-4.8514 2.453-7.2162.087zm34.6379 10.617c-.6227 4.157-3.2299 7.881-7.276 9.808-8.5823 4.083-18.551-2.191-18.551-11.729 0-2.154.5437-4.283 1.5648-6.17 1.0286-1.168 1.5958-2.691 1.5926-4.342-.0011-.909-.1741-1.831-.4914-2.711l1.5413 1.542c.6494.65 1.6513.789 2.4513.34 2.1309-1.192 4.5555-1.757 7.0143-1.629 7.2226.371 13.3461 6.926 12.1541 14.891zm71.9352-20.365c3.994-3.9937 3.795-3.9381 4.328-3.8911.73.063 1.091.9217.531 1.4772l-3.65 3.6497c-.798.7861-2.042-.408-1.209-1.2358zm-5.843 29.311c-.268.998-1.024 1.754-2.021 2.021-.999.268-2.031-.008-2.761-.739l-13.5088-13.508c-.9901-.99-1.0478-2.395-.4646-3.438.2638-.471.7797-1.086 1.7463-1.346l18.7421-5.021c.347-.094.665-.276.919-.531l1.558-1.558c-.336.904-.52 1.854-.522 2.791-.003 1.338.364 2.596 1.05 3.646zm15.656-19.508c-2.364 2.364-4.884 2.306-7.218-.09-1.213-1.215-.582-3.489.66-4.723.063-.063.38-.379 4.499-4.4987 1.118-1.1183 2.86-.7925 3.784.5117 1.762 2.484 2.143 4.933-1.725 8.8zm4.805-15.0624-1.895 1.8959c-.855-.5031-1.81-.815-2.806-.9015-.283-.0245-.564-.0277-.841-.016-.08-.3087-.192-.6099-.334-.9026l2.977-2.9757c.004-.0054.008-.0107.012-.015l2.902 2.901c-.004.0054-.01.0086-.015.0139z"/><path d="m79.5703 52.3633c0 2.2655 1.836 4.1015 4.1015 4.1015s4.1016-1.836 4.1016-4.1015c1.1322 0 2.0508-.9186 2.0508-2.0508s-.9186-2.0508-2.0508-2.0508h-8.2031c-1.1323 0-2.0508.9186-2.0508 2.0508s.9185 2.0508 2.0508 2.0508z"/><path d="m56.3282 56.4648c2.2655 0 4.1015-1.836 4.1015-4.1015 1.1323 0 2.0508-.9186 2.0508-2.0508s-.9185-2.0508-2.0508-2.0508h-8.2031c-1.1322 0-2.0508.9186-2.0508 2.0508s.9186 2.0508 2.0508 2.0508c0 2.2655 1.8361 4.1015 4.1016 4.1015z"/><path d="m45.2838 80.4526c.1228.0224.2446.0331.3664.0331.973 0 1.8371-.6964 2.0155-1.6876 1.9461-10.8019 11.3391-18.6419 22.3343-18.6419 10.6341 0 19.727 7.2248 22.1143 17.5705.2552 1.1034 1.3565 1.7913 2.4598 1.5371 1.1034-.2553 1.7912-1.3555 1.537-2.4599-.5703-2.4716-1.5007-4.845-2.7375-7.0474 1.2283-4.9967 2.1864-12.6091 2.1864-17.3932 0-14.9942-12.3795-31.4453-25.9766-31.4453-13.6451 0-25.9765 16.5077-25.9765 31.4453 0 5.1697 1.1236 13.596 2.4556 18.425-1.1333 2.2526-1.9675 4.6933-2.4332 7.2824-.2008 1.114.5394 2.1811 1.6545 2.3819zm2.4246-28.0893c0-12.9936 10.8361-27.3438 21.875-27.3438 8.1177 0 15.4161 7.526 18.9986 15.1865-.1442-.094-.3023-.172-.4743-.2275-2.8988-.9442-5.9654-.9442-8.8706 0-1.0767.3493-1.6663 1.5071-1.317 2.5838.2819.8662 1.0862 1.4173 1.9503 1.4173.7744 0 3.2717-1.3052 6.9674-.1014 1.0777.3514 2.2345-.2382 2.5848-1.3159.0267-.0802.0459-.1613.062-.2425 1.2785 3.3218 1.9738 6.7686 1.9738 10.0435 0 3.4692-.5372 8.5257-1.3148 12.8248-5.1996-5.9376-12.6134-9.1334-20.1436-9.1334-8.3324 0-15.8807 3.8185-20.8304 9.9238-.8459-4.4102-1.4612-9.9014-1.4612-13.6152z"/><path d="m53.1601 43.8794c2.0754-.674 4.2661-.675 6.334-.001 1.0777.3514 2.2344-.2382 2.5848-1.316.3514-1.0766-.2382-2.2334-1.3149-2.5837-2.8988-.9442-5.9654-.9442-8.8707 0-1.0777.3492-1.6673 1.5071-1.3169 2.5837.3503 1.0788 1.5092 1.6663 2.5837 1.317z"/><path d="m6.53333 42.0667c3.60217 0 6.53337-2.9312 6.53337-6.5334s-2.9312-6.5333-6.53337-6.5333c-3.6022 0-6.53333 2.9311-6.53333 6.5333s2.93113 6.5334 6.53333 6.5334zm0-9.3334c1.5442 0 2.8 1.2558 2.8 2.8s-1.2558 2.8-2.8 2.8-2.8-1.2558-2.8-2.8 1.2558-2.8 2.8-2.8z"/><path d="m29.1135 20.2271c1.1673 0 2.1136-.9463 2.1136-2.1136 0-1.1672-.9463-2.1135-2.1136-2.1135-1.1672 0-2.1135.9463-2.1135 2.1135 0 1.1673.9463 2.1136 2.1135 2.1136z"/><path d="m.54705 15.0443c.364467.3645.84233.5469 1.31973.5469s.95527-.1824 1.31974-.5469l2.10933-2.1093 2.10933 2.1093c.36447.3645.84233.5469 1.31973.5469s.95527-.1824 1.31969-.5469c.729-.7289.729-1.9105 0-2.6395l-2.10929-2.1093 2.10929-2.10933c.729-.72894.729-1.91054 0-2.63947-.72889-.72893-1.91049-.72893-2.63942 0l-2.10933 2.10934-2.10933-2.10934c-.72894-.72893-1.91054-.72893-2.63947 0-.728933.72893-.728933 1.91053 0 2.63947l2.10933 2.10933-2.10933 2.1093c-.7294.729-.7294 1.9101 0 2.6395z"/></g></svg>