<svg width="1440" height="603" viewBox="0 0 1440 603" fill="none" xmlns="http://www.w3.org/2000/svg">
<g clip-path="url(#clip0)">
<g opacity="0.2">
<path opacity="0.2" d="M658.424 361.617C658.959 361.383 658.975 360.565 658.591 360.13C658.207 359.696 657.589 359.546 657.022 359.429C656.821 359.379 656.604 359.345 656.404 359.295C656.487 359.212 656.571 359.128 656.654 359.045C656.871 358.811 657.105 358.544 657.122 358.226C657.139 357.909 656.805 357.558 656.521 357.692C657.022 357.358 657.556 356.94 657.64 356.339C657.723 355.738 656.938 355.12 656.521 355.554C656.771 355.204 656.955 354.753 656.805 354.352C656.638 353.951 656.02 353.767 655.769 354.135C656.003 353.5 655.619 352.682 654.951 352.548C654.384 352.431 653.766 352.949 653.766 353.517C653.599 353.032 652.881 352.748 652.43 353.066C652.413 353.082 652.413 353.082 652.397 353.099C652.33 352.982 652.263 352.865 652.146 352.765C651.779 352.431 651.161 352.431 650.81 352.732C651.178 352.231 651.328 351.546 650.994 351.028C650.76 350.677 650.259 350.611 649.892 350.744C650.042 350.46 650.126 350.16 650.092 349.842C650.042 349.291 649.525 348.774 648.974 348.857C648.523 348.924 648.172 349.375 648.239 349.826C648.222 349.174 647.822 348.54 647.22 348.323C646.619 348.105 645.851 348.356 645.567 348.941C645.284 349.525 645.601 350.327 646.219 350.51C645.751 350.394 645.267 350.26 644.783 350.36C644.299 350.444 643.848 350.811 643.798 351.295C643.781 351.563 643.881 351.813 643.998 352.064C644.098 352.281 644.215 352.498 644.349 352.698C643.681 352.448 642.812 352.715 642.595 353.4C642.044 352.882 641.276 352.598 640.525 352.598C640.258 352.598 639.957 352.648 639.757 352.832C639.456 353.116 639.506 353.617 639.723 353.951C639.957 354.285 640.325 354.502 640.675 354.686C639.824 354.435 638.822 354.201 638.104 354.719C637.62 355.07 637.386 355.738 637.553 356.323C637.72 356.907 638.288 357.341 638.889 357.375C638.371 357.441 638.07 358.093 638.237 358.594C638.404 359.095 638.855 359.446 639.339 359.663C639.54 359.763 639.74 359.83 639.941 359.897C639.957 360.114 640.024 360.314 640.174 360.481C639.206 360.147 637.987 360.348 637.419 361.199C636.835 362.034 637.302 363.471 638.321 363.588C637.503 363.654 637.119 364.74 637.453 365.491C637.77 366.243 638.538 366.694 639.256 367.061C639.339 367.112 639.44 367.145 639.54 367.178C639.506 367.195 639.456 367.212 639.423 367.245C640.759 368.147 642.779 367.78 643.731 366.477V366.627C644.148 366.878 644.616 366.293 644.632 365.809C644.632 365.608 644.616 365.425 644.582 365.224C645.384 365.675 646.202 366.126 647.003 366.594C647.17 369.851 647.187 373.107 647.054 376.364C646.953 378.702 650.593 378.702 650.693 376.364C650.844 372.974 650.81 369.6 650.61 366.226C651.295 365.876 651.996 365.525 652.68 365.191C652.747 365.508 652.881 365.792 653.081 366.043C653.749 366.878 654.884 367.195 655.97 367.212C656.487 367.228 657.022 367.162 657.456 366.911C657.907 366.661 658.241 366.16 658.157 365.642C658.124 365.458 658.057 365.258 658.09 365.074C658.157 364.757 658.524 364.623 658.808 364.456C659.777 363.821 659.56 361.984 658.424 361.617ZM652.397 354.719C652.313 354.719 652.23 354.736 652.146 354.736C652.196 354.686 652.23 354.619 652.263 354.569C652.296 354.619 652.347 354.669 652.397 354.719ZM651.328 357.091C651.578 356.59 651.478 355.922 651.078 355.521C651.261 355.437 651.428 355.337 651.595 355.237C651.779 355.654 652.079 356.022 652.447 356.289C652.196 356.256 651.929 356.339 651.796 356.556C651.512 356.974 652.096 357.659 652.514 357.375L652.53 357.609C652.079 357.759 651.629 357.926 651.311 358.277C651.161 358.444 651.061 358.661 651.027 358.878C650.694 359.095 650.343 359.312 649.992 359.529C649.942 359.095 649.892 358.661 649.825 358.226C649.875 358.193 649.942 358.143 649.992 358.11C650.076 358.043 650.176 357.943 650.176 357.842C650.66 357.826 651.128 357.525 651.328 357.091ZM645.901 357.976C645.885 357.776 645.851 357.558 645.918 357.358C645.918 357.341 645.935 357.308 645.952 357.291C645.985 357.308 646.018 357.325 646.052 357.341C646.202 358.393 646.352 359.446 646.469 360.498C646.202 360.197 645.935 359.88 645.668 359.563C645.868 359.062 645.952 358.51 645.901 357.976ZM645.584 354.135C645.467 354.034 645.334 353.934 645.2 353.851C645.2 353.817 645.183 353.784 645.183 353.751C645.317 353.884 645.451 354.018 645.584 354.135ZM644.883 364.005C644.916 363.955 644.933 363.922 644.966 363.871C645.167 363.404 644.699 362.786 644.182 362.886C644.516 362.251 644.85 361.567 644.85 360.865C644.916 360.798 644.983 360.732 645.033 360.665C645.584 361.316 646.135 361.951 646.703 362.569C646.786 363.421 646.853 364.289 646.903 365.141C646.219 364.773 645.551 364.389 644.883 364.005ZM650.126 360.865C650.376 360.715 650.643 360.548 650.894 360.398C651.094 360.531 651.345 360.581 651.578 360.631C652.146 360.732 652.731 360.832 653.298 360.832L653.966 360.999C653.549 360.899 653.131 360.832 652.731 360.932C652.196 361.066 651.695 361.55 651.779 362.101C651.879 362.786 652.68 363.053 653.348 363.203C653.131 363.337 652.964 363.504 652.847 363.704C652.063 364.105 651.278 364.489 650.493 364.89C650.393 363.554 650.276 362.218 650.126 360.865Z" fill="#DF7B4B"/>
<path opacity="0.2" d="M686.809 369.901C687.344 369.667 687.36 368.848 686.976 368.414C686.592 367.98 685.975 367.83 685.407 367.713C685.206 367.663 684.989 367.629 684.789 367.579C684.873 367.496 684.956 367.412 685.039 367.329C685.257 367.095 685.49 366.828 685.507 366.51C685.524 366.193 685.19 365.842 684.906 365.976C685.407 365.642 685.941 365.224 686.025 364.623C686.108 364.022 685.323 363.404 684.906 363.838C685.156 363.487 685.34 363.036 685.19 362.636C685.023 362.235 684.405 362.051 684.155 362.418C684.388 361.784 684.004 360.965 683.336 360.832C682.769 360.715 682.151 361.233 682.151 361.801C681.984 361.316 681.266 361.032 680.815 361.35C680.798 361.366 680.798 361.366 680.782 361.383C680.715 361.266 680.648 361.149 680.531 361.049C680.164 360.715 679.546 360.715 679.195 361.016C679.563 360.515 679.713 359.83 679.379 359.312C679.145 358.961 678.644 358.894 678.277 359.028C678.427 358.744 678.511 358.444 678.478 358.126C678.427 357.575 677.91 357.057 677.359 357.141C676.908 357.208 676.557 357.659 676.624 358.11C676.607 357.458 676.207 356.824 675.606 356.606C675.004 356.389 674.236 356.64 673.953 357.224C673.669 357.809 673.986 358.611 674.604 358.794C674.136 358.677 673.652 358.544 673.168 358.644C672.684 358.727 672.233 359.095 672.183 359.579C672.166 359.846 672.266 360.097 672.383 360.348C672.483 360.565 672.6 360.782 672.734 360.982C672.066 360.732 671.198 360.999 670.98 361.684C670.429 361.166 669.661 360.882 668.91 360.882C668.643 360.882 668.342 360.932 668.142 361.116C667.841 361.4 667.892 361.901 668.109 362.235C668.342 362.569 668.71 362.786 669.06 362.97C668.209 362.719 667.207 362.485 666.489 363.003C666.005 363.354 665.771 364.022 665.938 364.606C666.105 365.191 666.673 365.625 667.274 365.659C666.756 365.725 666.456 366.377 666.623 366.878C666.789 367.379 667.24 367.729 667.725 367.947C667.925 368.047 668.125 368.114 668.326 368.18C668.342 368.398 668.409 368.598 668.559 368.765C667.591 368.431 666.372 368.631 665.804 369.483C665.22 370.318 665.687 371.754 666.706 371.871C665.888 371.938 665.504 373.024 665.838 373.775C666.155 374.527 666.923 374.978 667.641 375.345C667.725 375.395 667.825 375.429 667.925 375.462C667.892 375.479 667.841 375.496 667.808 375.529C669.144 376.431 671.164 376.063 672.116 374.761V374.911C672.533 375.162 673.001 374.577 673.018 374.093C673.018 373.909 673.001 373.709 672.967 373.508C673.769 373.959 674.587 374.41 675.389 374.878C675.555 378.134 675.572 381.391 675.439 384.648C675.338 386.986 678.978 386.986 679.079 384.648C679.229 381.257 679.195 377.884 678.995 374.51C679.68 374.159 680.381 373.809 681.066 373.475C681.132 373.792 681.266 374.076 681.466 374.326C682.134 375.162 683.27 375.479 684.338 375.496C684.856 375.512 685.39 375.445 685.824 375.195C686.275 374.944 686.609 374.443 686.526 373.926C686.492 373.742 686.425 373.541 686.459 373.358C686.526 373.04 686.893 372.907 687.177 372.74C688.162 372.105 687.945 370.268 686.809 369.901ZM680.782 363.003C680.698 363.003 680.615 363.02 680.531 363.02C680.581 362.97 680.615 362.903 680.648 362.853C680.682 362.903 680.732 362.953 680.782 363.003ZM679.73 365.375C679.98 364.874 679.88 364.205 679.479 363.805C679.663 363.721 679.83 363.621 679.997 363.521C680.181 363.938 680.481 364.306 680.848 364.573C680.598 364.54 680.331 364.623 680.197 364.84C679.913 365.258 680.498 365.942 680.915 365.659L680.932 365.892C680.481 366.043 680.03 366.21 679.713 366.56C679.563 366.727 679.463 366.944 679.429 367.162C679.095 367.379 678.745 367.596 678.394 367.813C678.344 367.379 678.294 366.944 678.227 366.51C678.277 366.477 678.344 366.427 678.394 366.393C678.477 366.327 678.578 366.226 678.578 366.126C679.045 366.109 679.513 365.809 679.73 365.375ZM674.287 366.26C674.27 366.059 674.236 365.842 674.303 365.642C674.303 365.625 674.32 365.592 674.337 365.575C674.37 365.592 674.403 365.608 674.437 365.625C674.587 366.677 674.737 367.729 674.854 368.782C674.587 368.481 674.32 368.164 674.053 367.846C674.253 367.362 674.337 366.811 674.287 366.26ZM673.969 362.435C673.852 362.335 673.719 362.235 673.585 362.151C673.585 362.118 673.569 362.084 673.569 362.051C673.702 362.168 673.836 362.302 673.969 362.435ZM673.268 372.306C673.301 372.255 673.318 372.222 673.351 372.172C673.552 371.704 673.084 371.086 672.567 371.187C672.901 370.552 673.235 369.867 673.235 369.166C673.301 369.099 673.368 369.032 673.418 368.965C673.969 369.617 674.52 370.235 675.088 370.869C675.171 371.721 675.238 372.59 675.288 373.441C674.604 373.057 673.936 372.673 673.268 372.306ZM678.511 369.149C678.761 368.999 679.029 368.832 679.279 368.681C679.479 368.815 679.73 368.865 679.964 368.915C680.531 369.015 681.116 369.116 681.683 369.116L682.351 369.283C681.934 369.182 681.516 369.116 681.116 369.216C680.581 369.349 680.08 369.834 680.164 370.385C680.264 371.07 681.066 371.337 681.733 371.487C681.516 371.621 681.349 371.788 681.233 371.988C680.448 372.389 679.663 372.773 678.878 373.174C678.778 371.838 678.661 370.502 678.511 369.149Z" fill="#DF7B4B"/>
<path opacity="0.2" d="M1408.16 362.318C1408.69 362.084 1408.71 361.266 1408.33 360.832C1407.94 360.398 1407.32 360.247 1406.76 360.13C1406.56 360.08 1406.34 360.047 1406.14 359.997C1406.22 359.913 1406.31 359.83 1406.39 359.746C1406.61 359.512 1406.84 359.245 1406.86 358.928C1406.87 358.611 1406.54 358.26 1406.26 358.393C1406.76 358.059 1407.29 357.642 1407.37 357.041C1407.46 356.439 1406.67 355.821 1406.26 356.256C1406.51 355.905 1406.69 355.454 1406.54 355.053C1406.37 354.652 1405.75 354.469 1405.5 354.836C1405.74 354.201 1405.35 353.383 1404.69 353.249C1404.12 353.133 1403.5 353.65 1403.5 354.218C1403.33 353.734 1402.62 353.45 1402.16 353.767C1402.15 353.784 1402.15 353.784 1402.13 353.801C1402.06 353.684 1402 353.567 1401.88 353.467C1401.51 353.133 1400.9 353.133 1400.54 353.433C1400.91 352.932 1401.06 352.247 1400.73 351.73C1400.49 351.379 1399.99 351.312 1399.63 351.446C1399.78 351.162 1399.86 350.861 1399.83 350.544C1399.78 349.993 1399.26 349.475 1398.71 349.558C1398.26 349.625 1397.91 350.076 1397.97 350.527C1397.96 349.876 1397.56 349.241 1396.95 349.024C1396.35 348.807 1395.59 349.057 1395.3 349.642C1395.02 350.227 1395.34 351.028 1395.95 351.212C1395.49 351.095 1395 350.961 1394.52 351.062C1394.03 351.145 1393.58 351.513 1393.53 351.997C1393.52 352.264 1393.62 352.515 1393.73 352.765C1393.83 352.982 1393.95 353.199 1394.08 353.4C1393.41 353.149 1392.55 353.416 1392.33 354.101C1391.78 353.583 1391.01 353.3 1390.26 353.3C1389.99 353.3 1389.69 353.35 1389.49 353.533C1389.19 353.817 1389.24 354.318 1389.46 354.652C1389.69 354.986 1390.06 355.203 1390.41 355.387C1389.56 355.137 1388.56 354.903 1387.84 355.421C1387.35 355.771 1387.12 356.439 1387.29 357.024C1387.45 357.608 1388.02 358.043 1388.62 358.076C1388.11 358.143 1387.8 358.794 1387.97 359.295C1388.14 359.796 1388.59 360.147 1389.07 360.364C1389.27 360.464 1389.47 360.531 1389.67 360.598C1389.69 360.815 1389.76 361.016 1389.91 361.183C1388.94 360.849 1387.72 361.049 1387.15 361.901C1386.57 362.736 1387.04 364.172 1388.06 364.289C1387.24 364.356 1386.85 365.441 1387.19 366.193C1387.5 366.944 1388.27 367.395 1388.99 367.763C1389.07 367.813 1389.17 367.846 1389.27 367.88C1389.24 367.896 1389.19 367.913 1389.16 367.947C1390.49 368.848 1392.51 368.481 1393.47 367.178V367.329C1393.88 367.579 1394.35 366.995 1394.37 366.51C1394.37 366.327 1394.35 366.126 1394.32 365.926C1395.12 366.377 1395.94 366.828 1396.74 367.295C1396.9 370.552 1396.92 373.809 1396.79 377.065C1396.69 379.404 1400.33 379.404 1400.43 377.065C1400.58 373.675 1400.54 370.301 1400.34 366.928C1401.03 366.577 1401.73 366.226 1402.41 365.892C1402.48 366.21 1402.62 366.494 1402.82 366.744C1403.48 367.579 1404.62 367.896 1405.7 367.913C1406.22 367.93 1406.76 367.863 1407.19 367.613C1407.64 367.362 1407.97 366.861 1407.89 366.343C1407.86 366.16 1407.79 365.959 1407.82 365.775C1407.89 365.458 1408.26 365.324 1408.54 365.157C1409.51 364.506 1409.29 362.686 1408.16 362.318ZM1402.13 355.421C1402.05 355.421 1401.96 355.437 1401.88 355.437C1401.93 355.387 1401.96 355.32 1402 355.27C1402.03 355.32 1402.08 355.37 1402.13 355.421ZM1401.06 357.792C1401.31 357.291 1401.21 356.623 1400.81 356.222C1401 356.139 1401.16 356.039 1401.33 355.938C1401.51 356.356 1401.81 356.723 1402.18 356.991C1401.93 356.957 1401.66 357.041 1401.53 357.258C1401.25 357.675 1401.83 358.36 1402.25 358.076L1402.26 358.31C1401.81 358.46 1401.36 358.627 1401.05 358.978C1400.9 359.145 1400.8 359.362 1400.76 359.579C1400.43 359.796 1400.08 360.013 1399.73 360.231C1399.68 359.796 1399.63 359.362 1399.56 358.928C1399.61 358.894 1399.68 358.844 1399.73 358.811C1399.81 358.744 1399.91 358.644 1399.91 358.544C1400.38 358.527 1400.85 358.226 1401.06 357.792ZM1395.64 358.677C1395.62 358.477 1395.59 358.26 1395.65 358.059C1395.65 358.043 1395.67 358.009 1395.69 357.993C1395.72 358.009 1395.75 358.026 1395.79 358.043C1395.94 359.095 1396.09 360.147 1396.2 361.199C1395.94 360.899 1395.67 360.581 1395.4 360.264C1395.6 359.763 1395.69 359.212 1395.64 358.677ZM1395.32 354.836C1395.2 354.736 1395.07 354.636 1394.93 354.552C1394.93 354.519 1394.92 354.485 1394.92 354.452C1395.05 354.586 1395.18 354.719 1395.32 354.836ZM1394.6 364.706C1394.63 364.656 1394.65 364.623 1394.68 364.573C1394.88 364.105 1394.42 363.487 1393.9 363.588C1394.23 362.953 1394.57 362.268 1394.57 361.567C1394.63 361.5 1394.7 361.433 1394.75 361.366C1395.3 362.018 1395.85 362.636 1396.42 363.27C1396.5 364.122 1396.57 364.99 1396.62 365.842C1395.95 365.475 1395.29 365.091 1394.6 364.706ZM1399.86 361.567C1400.11 361.416 1400.38 361.249 1400.63 361.099C1400.83 361.233 1401.08 361.283 1401.31 361.333C1401.88 361.433 1402.46 361.533 1403.03 361.533L1403.7 361.7C1403.28 361.6 1402.87 361.533 1402.46 361.633C1401.93 361.767 1401.43 362.251 1401.51 362.803C1401.61 363.487 1402.41 363.755 1403.08 363.905C1402.87 364.038 1402.7 364.205 1402.58 364.406C1401.8 364.807 1401.01 365.191 1400.23 365.592C1400.13 364.256 1400.01 362.903 1399.86 361.567Z" fill="#DF7B4B"/>
<path opacity="0.2" d="M751.26 380.923C751.26 380.923 773.735 311.463 790.766 303.329C807.797 295.196 890.197 267.121 946.717 269.342C946.717 269.342 953.529 269.342 976.004 272.298C998.478 275.254 1008.7 270.077 1018.23 267.121C1027.76 264.165 1073.4 264.165 1093.15 267.856C1112.9 271.547 1202.8 281.901 1228 286.327C1253.19 290.753 1264.76 296.665 1269.54 301.108C1274.31 305.55 1295.42 302.578 1309.04 313.667C1322.67 324.757 1344.46 361.7 1347.18 374.994C1347.18 374.994 1360.12 386.084 1362.16 392.731H749.891L751.26 380.923Z" fill="#DF7B4B"/>
<path opacity="0.13" d="M815.778 321.784C827.833 320.448 819.802 304.382 830.505 301.693C829.169 308.39 823.809 317.759 827.833 320.448C834.529 324.473 833.193 309.743 839.889 307.054C838.553 311.079 838.553 315.087 837.217 319.112C845.248 319.112 846.584 309.743 851.944 305.718C858.022 297.2 861.895 287.597 868.574 278.879C850.308 283.104 833.126 288.115 819.334 292.641C821.472 302.344 816.98 312.064 815.778 321.784Z" fill="#FCF6F1"/>
<path opacity="0.13" d="M876.021 316.423C881.381 313.751 882.717 305.718 888.077 303.029C886.741 308.39 881.381 312.398 882.717 319.095C892.084 312.398 898.779 290.97 906.811 300.34C914.842 307.037 892.084 325.793 901.451 333.826C909.482 339.187 908.146 321.768 913.506 315.07C916.178 319.095 912.17 327.129 916.178 328.465C921.538 332.49 925.545 323.104 928.233 317.759C932.107 303.246 924.092 283.839 927.432 269.643C916.395 270.328 904.84 271.814 893.286 273.835C893.42 274.754 893.42 275.639 893.42 276.257C888.077 289.634 874.685 300.357 876.021 316.423Z" fill="#FCF6F1"/>
<path opacity="0.13" d="M972.414 335.162C984.469 333.826 983.117 317.759 989.812 309.709C991.148 307.037 995.172 305.684 995.172 307.037C997.843 311.062 999.196 319.095 1004.54 316.406C1012.57 311.045 1005.87 300.34 1009.9 293.643C1011.23 293.643 1012.57 290.97 1015.26 292.307C1018.16 282.102 1021.5 273.501 1026.5 265.818C1022.81 266.152 1019.92 266.587 1018.21 267.121C1008.88 270.027 998.862 275.021 977.339 272.465C972.096 283.188 965.735 293.325 965.735 304.382C967.071 315.087 977.773 321.784 972.414 335.162Z" fill="#FCF6F1"/>
<path opacity="0.13" d="M1051.41 286.962C1050.07 296.331 1036.68 311.062 1046.05 315.087C1055.42 320.448 1055.42 300.356 1062.11 292.323C1063.45 289.651 1066.13 290.987 1067.47 290.987C1074.17 305.718 1058.1 316.44 1058.1 331.17C1071.49 328.498 1063.46 311.079 1075.5 308.407C1075.5 315.104 1070.14 321.801 1070.14 328.498C1078.17 327.162 1076.84 316.44 1084.87 315.104C1084.87 317.776 1083.53 321.801 1083.53 324.473C1084.87 323.137 1086.2 327.145 1087.56 325.809C1099.61 311.079 1087.56 289.651 1096.92 273.584C1097.76 271.914 1099.13 270.495 1100.68 269.142C1097.59 268.674 1095.02 268.257 1093.12 267.889C1083.75 266.136 1068.57 265.217 1054.16 265.05C1051.99 268.507 1049.12 271.43 1047.38 274.92C1046.06 280.265 1051.41 284.273 1051.41 286.962Z" fill="#FCF6F1"/>
<path opacity="0.13" d="M1129.07 292.306C1122.37 304.365 1119.7 315.07 1121.03 329.801C1130.4 325.776 1127.73 309.709 1137.1 309.709C1139.77 309.709 1137.1 315.07 1138.43 319.079C1143.79 312.381 1147.8 303.012 1158.52 303.012C1162.54 303.012 1161.19 292.306 1165.22 292.306C1173.48 290.403 1179.02 285.76 1183 279.981C1163.88 277.492 1142.64 274.82 1125.21 272.516C1122.59 280.348 1121.64 288.599 1129.07 292.306Z" fill="#FCF6F1"/>
<path opacity="0.13" d="M1289.73 320.431C1292.4 324.456 1293.75 316.406 1296.42 315.07C1297.76 320.431 1293.75 328.465 1300.45 331.137C1301.78 331.137 1301.78 327.112 1304.47 325.776C1304.47 331.137 1304.47 336.481 1307.14 341.842C1311.65 336.431 1316.16 331.638 1321.08 327.028C1316.83 321.367 1312.63 316.607 1309.03 313.651C1302.68 308.49 1294.74 306.369 1287.54 305.133C1286.05 310.928 1285.7 316.406 1289.73 320.431Z" fill="#FCF6F1"/>
<path opacity="0.13" d="M1196 294.995C1197.34 296.331 1198.68 297.668 1201.36 297.668C1196 305.701 1193.33 311.062 1201.36 320.431C1206.72 325.792 1193.33 333.826 1196 336.498C1204.04 344.531 1208.06 328.465 1213.4 323.104C1217.43 328.465 1212.07 332.473 1212.07 336.498C1216.09 332.473 1220.1 331.137 1225.46 332.473C1225.46 327.112 1221.43 320.415 1225.46 317.742C1230.82 313.717 1229.48 323.104 1232.15 324.44C1230.28 312.281 1230.38 298.152 1236.55 287.997C1233.87 287.413 1231.02 286.862 1227.96 286.327C1222.04 285.292 1212.54 283.922 1201.21 282.386C1198.01 285.993 1195.17 289.968 1196 294.995Z" fill="#FCF6F1"/>
<path opacity="0.17" d="M1347.15 375.011C1346.16 370.184 1342.66 362.251 1337.95 353.567C1337.95 353.684 1337.93 353.801 1337.93 353.917C1332.57 352.581 1329.9 347.22 1328.56 341.859C1324.54 348.556 1327.23 357.926 1323.2 364.623C1320.53 361.951 1319.18 357.926 1316.51 357.926C1309.81 356.59 1312.48 365.959 1308.48 368.631C1305.81 361.934 1308.48 355.237 1304.45 349.876C1301.78 355.237 1299.09 361.934 1299.09 368.631C1293.73 360.598 1295.07 351.229 1293.73 343.179C1291.06 345.851 1291.06 349.876 1291.06 353.884C1288.39 347.187 1288.39 339.154 1287.04 331.12C1284.37 335.145 1285.7 339.154 1285.7 343.179C1277.67 336.481 1277.67 327.112 1275 319.079C1275 321.751 1275 324.44 1275 327.112C1274.1 318.928 1273.18 310.728 1272.28 302.544C1271.46 302.277 1270.74 301.96 1270.17 301.592C1269.1 315.454 1268.04 329.316 1266.97 343.179C1266.97 340.506 1264.3 340.506 1265.63 337.817C1262.96 340.49 1261.61 343.179 1261.61 345.851C1260.27 341.826 1262.94 339.154 1262.94 335.145C1258.92 336.481 1261.61 344.515 1260.27 341.842C1252.24 328.448 1248.22 312.381 1242.87 296.315C1244.21 304.348 1246.9 312.381 1246.9 320.415C1242.87 316.39 1242.87 309.709 1237.53 305.684C1244.23 321.751 1252.26 339.17 1253.59 356.573C1253.59 355.237 1252.26 355.237 1250.92 355.237C1248.25 357.909 1249.59 360.598 1248.25 363.27C1240.22 360.598 1234.86 352.565 1230.85 365.942C1229.52 363.27 1229.52 361.917 1229.52 359.245C1226.84 360.581 1226.84 365.942 1224.16 367.278C1222.82 363.253 1220.13 359.245 1217.46 355.22C1217.46 359.245 1213.44 361.917 1212.1 365.926C1206.74 364.59 1204.07 368.598 1202.73 373.959C1198.71 372.623 1194.7 369.934 1192.03 368.598C1185.34 363.237 1182.66 373.959 1177.3 375.295C1170.61 376.631 1162.58 368.598 1155.88 375.295C1151.86 361.901 1155.88 347.17 1166.58 337.801C1166.58 337.801 1166.58 332.44 1167.92 329.767C1171.94 324.406 1181.31 324.406 1182.65 321.734C1183.98 311.029 1177.29 290.937 1192.01 285.576C1165.23 282.904 1149.17 311.029 1143.81 335.129C1141.14 343.162 1125.06 347.187 1121.05 360.581C1121.05 361.917 1117.03 359.245 1115.69 357.909C1114.36 359.245 1114.36 363.27 1113.02 363.27C1110.35 361.934 1110.35 355.237 1107.66 355.237C1102.3 353.901 1100.96 363.27 1096.96 364.606C1090.26 365.942 1086.25 356.573 1090.26 351.212C1096.96 341.842 1109.01 335.145 1110.35 324.423C1111.58 305.985 1110.58 288.682 1117.65 271.48C1115.51 271.196 1113.45 270.912 1111.5 270.645C1104.67 277.058 1106.04 289.634 1105.01 298.987C1105.01 307.02 1096.97 313.717 1094.3 321.751C1094.3 325.776 1095.64 328.448 1096.97 332.456C1078.22 329.784 1075.55 345.851 1078.22 360.581C1075.55 359.245 1076.89 355.22 1074.2 353.884C1072.86 357.909 1070.18 360.581 1068.84 364.59C1064.82 359.228 1066.17 351.195 1063.48 345.834C1062.14 349.859 1062.14 353.867 1062.14 357.892C1059.47 356.556 1058.12 353.867 1058.12 351.195C1052.76 357.892 1059.46 369.951 1051.42 372.623C1048.75 373.959 1050.09 368.598 1047.4 365.926C1044.73 369.951 1044.73 375.295 1039.37 376.631C1038.03 372.606 1031.34 373.959 1031.34 368.598C1024.64 369.934 1017.95 371.27 1015.28 377.967C1013.94 375.295 1012.6 371.27 1009.92 369.934C1005.89 368.598 1003.22 373.959 1000.55 376.631C1000.55 369.934 999.213 361.901 1003.22 355.203C1009.92 345.834 1021.97 339.137 1024.64 331.104C1028.67 317.709 1035.35 305.651 1035.35 290.92C1035.35 283.338 1038.85 271.38 1047.28 264.95C1046.08 264.95 1044.9 264.967 1043.74 264.983C1023.26 276.507 1026.48 309.158 1011.25 324.39C1003.22 335.095 988.493 341.792 987.157 357.876C981.798 355.203 984.486 345.817 980.462 347.17C973.766 348.506 975.102 359.228 971.095 365.926C972.43 360.565 973.766 352.531 969.759 349.859C965.735 347.187 967.087 355.22 963.063 356.556C964.399 351.195 961.728 347.187 960.392 341.826C959.056 347.187 956.368 351.195 955.032 356.556C951.008 352.531 951.008 348.523 953.696 343.162C942.993 345.834 949.672 357.892 942.993 363.253C940.322 359.228 941.658 353.884 942.993 349.859C948.353 332.456 959.056 315.037 959.056 296.298C959.056 286.879 965.601 279.897 970.377 271.547C969.074 271.38 967.822 271.23 966.653 271.096C956.034 283.171 949.221 299.772 947.017 316.39C941.24 301.375 941.441 285.359 940.756 269.192C939.37 269.192 937.968 269.192 936.548 269.225C930.504 289.601 946.6 318.294 933.626 332.456C921.571 343.162 930.955 363.253 918.899 371.287C916.228 372.623 909.532 364.59 906.844 373.959C906.844 371.287 906.844 367.262 902.82 365.926C902.82 368.598 900.149 369.951 898.796 372.623C898.796 368.598 898.796 364.59 898.796 360.565C894.772 361.901 893.436 365.926 892.101 368.598C893.436 363.237 896.125 359.228 896.125 353.867C889.429 357.892 889.429 365.926 884.069 371.27C880.045 352.515 885.405 333.776 894.772 317.709C882.717 331.104 881.381 352.531 870.678 364.573C868.007 367.245 870.678 355.203 866.654 355.203C862.63 353.867 861.294 361.901 857.287 363.237C858.623 359.212 861.311 353.867 857.287 353.867C853.263 352.531 853.263 360.565 847.92 361.901C846.584 352.531 847.92 341.809 854.615 335.112C868.007 320.381 868.007 302.979 878.709 285.559C881.381 282.887 884.069 280.198 886.741 277.526C863.983 276.19 863.983 309.659 853.263 319.045C837.2 333.776 830.505 351.178 823.809 371.27C822.474 372.606 821.138 369.934 819.785 369.934C819.785 364.573 818.45 359.228 821.121 353.867C815.761 357.892 817.097 365.926 813.09 371.27C814.426 356.54 811.754 341.809 818.45 327.078C806.394 340.473 805.058 357.876 798.363 373.942C791.667 348.49 805.058 324.39 811.754 301.626C798.363 319.028 787.66 337.784 780.964 357.876C780.964 334.911 795.541 318.026 803.873 297.952C798.046 300.106 793.537 301.96 790.766 303.279C773.735 311.413 751.26 380.873 751.26 380.873L749.891 392.698H1362.12C1360.09 386.101 1347.15 375.011 1347.15 375.011Z" fill="#460632"/>
<path opacity="0.2" d="M1437.37 388.317C1432.1 383.517 1423.06 380.333 1412.8 380.333C1409.25 380.333 1405.85 380.733 1402.69 381.433C1398.68 377.117 1391.04 374.2 1382.24 374.2C1375.03 374.2 1368.6 376.167 1364.29 379.25C1362.8 379.167 1361.34 379.117 1359.83 379.117C1353.19 379.117 1346.86 379.883 1341.04 381.25C1338.19 379.617 1334.74 378.35 1330.93 377.567C1326.78 376.233 1322.08 375.45 1317.05 375.45C1310.74 375.45 1304.92 376.65 1300.13 378.667C1295.45 375.2 1288.33 373 1280.37 373C1267.86 373 1257.51 378.433 1255.35 385.583C1250.01 382.367 1242.65 380.367 1234.5 380.367C1230.95 380.367 1227.55 380.767 1224.38 381.467C1220.38 377.15 1212.74 374.233 1203.94 374.233C1196.72 374.233 1190.3 376.2 1185.99 379.283C1184.5 379.2 1183.04 379.15 1181.53 379.15C1174.43 379.15 1167.65 380.017 1161.49 381.583C1160.34 380.883 1159.07 380.25 1157.7 379.683C1152.57 377.083 1145.98 375.483 1138.74 375.483C1132.44 375.483 1126.62 376.683 1121.82 378.7C1117.15 375.233 1110.03 373.033 1102.07 373.033C1089.01 373.033 1078.25 378.967 1076.78 386.6C1071.37 382.817 1063.39 380.4 1054.42 380.4C1050.87 380.4 1047.47 380.8 1044.31 381.5C1040.3 377.183 1032.66 374.267 1023.86 374.267C1016.65 374.267 1010.22 376.233 1005.91 379.317C1004.42 379.233 1002.94 379.183 1001.45 379.183C994.811 379.183 988.484 379.95 982.659 381.317C979.807 379.683 976.356 378.417 972.544 377.633C968.398 376.3 963.7 375.517 958.667 375.517C952.363 375.517 946.538 376.717 941.745 378.733C937.071 375.267 929.952 373.067 921.994 373.067C909.483 373.067 899.128 378.5 896.971 385.65C891.626 382.433 884.268 380.433 876.118 380.433C872.547 380.433 869.167 380.833 866.003 381.533C862.001 377.217 854.355 374.3 845.558 374.3C838.344 374.3 831.92 376.267 827.606 379.35C826.12 379.267 824.633 379.217 823.147 379.217C815.909 379.217 809.006 380.117 802.726 381.733C797.309 377.95 789.304 375.533 780.363 375.533C774.059 375.533 768.235 376.733 763.441 378.75C758.767 375.283 751.649 373.083 743.691 373.083C729.621 373.083 718.236 379.95 718.236 388.433H717.158C711.861 383.633 702.848 380.45 692.566 380.45C688.994 380.45 685.615 380.85 682.451 381.55C678.448 377.233 670.802 374.317 662.006 374.317C654.791 374.317 648.367 376.283 644.053 379.367C642.567 379.283 641.105 379.233 639.595 379.233C632.956 379.233 626.628 380 620.803 381.367C617.951 379.733 614.5 378.467 610.689 377.683C606.542 376.35 601.844 375.567 596.811 375.567C590.507 375.567 584.682 376.767 579.889 378.783C575.215 375.317 568.096 373.117 560.139 373.117C547.627 373.117 537.272 378.55 535.115 385.7C529.77 382.483 522.412 380.483 514.262 380.483C510.691 380.483 507.311 380.883 504.148 381.583C500.145 377.267 492.499 374.35 483.702 374.35C476.488 374.35 470.064 376.317 465.75 379.4C464.264 379.317 462.778 379.267 461.292 379.267C454.197 379.267 447.414 380.133 441.254 381.7C440.103 381 438.833 380.367 437.467 379.8C432.337 377.2 425.746 375.6 418.507 375.6C412.204 375.6 406.379 376.8 401.585 378.817C396.911 375.35 389.793 373.15 381.835 373.15C368.772 373.15 358.01 379.083 356.548 386.717C351.131 382.933 343.15 380.517 334.185 380.517C330.614 380.517 327.234 380.917 324.071 381.617C320.068 377.3 312.422 374.383 303.625 374.383C296.411 374.383 289.987 376.35 285.673 379.433C284.187 379.35 282.701 379.3 281.214 379.3C274.575 379.3 268.247 380.067 262.423 381.433C259.571 379.8 256.119 378.533 252.308 377.75C248.162 376.417 243.464 375.633 238.43 375.633C232.127 375.633 226.302 376.833 221.508 378.85C216.834 375.383 209.716 373.183 201.758 373.183C189.246 373.183 178.892 378.617 176.735 385.767C171.39 382.55 164.031 380.55 155.882 380.55C152.311 380.55 148.931 380.95 145.767 381.65C141.764 377.333 134.118 374.417 125.322 374.417C118.107 374.417 111.684 376.383 107.369 379.467C105.883 379.383 104.397 379.333 102.911 379.333C95.6726 379.333 88.7696 380.233 82.4898 381.85C77.0728 378.067 69.0673 375.65 60.1269 375.65C53.8232 375.65 47.9988 376.85 43.205 378.867C38.5311 375.4 31.4124 373.2 23.4548 373.2C9.38515 373.2 -2 380.067 -2 388.55V483H1439V388.317H1437.37Z" fill="#CF4639"/>
<path opacity="0.2" d="M1440 385.385C1398.85 369.814 1114.55 411.916 1040.43 431.396C963.753 451.544 869.545 457.809 814.012 457.926C758.479 458.043 705.92 473.781 705.92 473.781C655.831 461.284 559.104 457.508 478.203 466.597C397.302 475.669 329.109 461.685 329.109 461.685C224.087 426.133 44.0853 431.863 -2 434.019V558L1440 524.787V385.385Z" fill="#AA273F"/>
<path opacity="0.2" d="M124.254 442.994C124.955 442.86 125.206 441.875 124.855 441.257C124.504 440.622 123.82 440.288 123.169 439.988C122.935 439.871 122.701 439.771 122.467 439.67C122.584 439.587 122.718 439.503 122.835 439.42C123.169 439.203 123.519 438.936 123.62 438.552C123.736 438.167 123.436 437.666 123.035 437.75C123.72 437.466 124.488 437.132 124.738 436.43C125.005 435.729 124.221 434.777 123.603 435.178C124.004 434.827 124.354 434.326 124.271 433.792C124.187 433.257 123.469 432.873 123.085 433.241C123.536 432.539 123.286 431.453 122.534 431.103C121.866 430.802 120.998 431.27 120.831 431.938C120.764 431.303 119.98 430.785 119.345 431.036C119.328 431.036 119.312 431.053 119.295 431.069C119.262 430.902 119.195 430.752 119.095 430.602C118.744 430.101 117.993 429.917 117.492 430.201C118.059 429.683 118.443 428.898 118.176 428.197C117.993 427.712 117.408 427.495 116.924 427.562C117.174 427.261 117.375 426.911 117.408 426.527C117.492 425.842 117.024 425.09 116.34 425.023C115.789 424.973 115.238 425.441 115.187 425.992C115.338 425.207 115.037 424.322 114.369 423.888C113.701 423.454 112.7 423.554 112.215 424.172C111.714 424.79 111.881 425.859 112.583 426.243C112.048 425.959 111.497 425.692 110.896 425.658C110.295 425.625 109.644 425.942 109.46 426.51C109.36 426.827 109.41 427.161 109.494 427.479C109.561 427.762 109.644 428.046 109.744 428.33C109.026 427.846 107.891 427.93 107.44 428.698C106.906 427.93 106.071 427.362 105.169 427.161C104.835 427.094 104.485 427.061 104.184 427.228C103.75 427.479 103.666 428.097 103.85 428.581C104.034 429.048 104.418 429.399 104.802 429.733C103.85 429.199 102.698 428.648 101.696 429.082C101.012 429.366 100.544 430.117 100.594 430.869C100.644 431.62 101.195 432.305 101.913 432.506C101.262 432.439 100.744 433.14 100.795 433.792C100.845 434.443 101.312 434.977 101.83 435.395C102.03 435.562 102.264 435.712 102.498 435.846C102.448 436.113 102.481 436.38 102.615 436.614C101.546 435.946 100.027 435.863 99.0915 436.714C98.1564 437.566 98.3234 439.42 99.5089 439.838C98.5071 439.687 97.7557 440.906 97.9394 441.892C98.123 442.877 98.9078 443.629 99.6759 444.28C99.7761 444.364 99.8762 444.43 99.9931 444.497C99.943 444.514 99.8929 444.531 99.8428 444.547C101.212 446 103.75 446.117 105.253 444.798L105.203 444.981C105.637 445.399 106.371 444.831 106.505 444.247C106.555 444.013 106.588 443.779 106.605 443.528C107.457 444.297 108.292 445.065 109.143 445.833C108.459 449.791 107.59 453.733 106.522 457.608C105.77 460.397 110.145 461.382 110.896 458.61C111.998 454.568 112.883 450.493 113.568 446.384C114.486 446.151 115.421 445.917 116.34 445.7C116.34 446.1 116.423 446.485 116.59 446.835C117.174 448.021 118.46 448.706 119.746 449.023C120.364 449.174 121.015 449.257 121.633 449.073C122.234 448.89 122.785 448.372 122.835 447.737C122.851 447.503 122.818 447.253 122.918 447.036C123.085 446.668 123.569 446.618 123.937 446.485C125.289 446 125.523 443.746 124.254 442.994ZM118.878 433.023C118.777 433.007 118.66 432.99 118.56 432.973C118.627 432.923 118.694 432.856 118.744 432.806C118.794 432.873 118.827 432.957 118.878 433.023ZM116.957 435.595C117.392 435.044 117.442 434.226 117.074 433.625C117.308 433.575 117.542 433.508 117.776 433.424C117.892 433.975 118.143 434.493 118.51 434.927C118.21 434.827 117.876 434.861 117.642 435.078C117.191 435.512 117.692 436.497 118.276 436.263L118.226 436.547C117.659 436.614 117.041 436.681 116.573 437.015C116.34 437.165 116.156 437.399 116.056 437.666C115.588 437.833 115.121 438.017 114.636 438.167C114.687 437.633 114.737 437.099 114.787 436.564C114.87 436.531 114.937 436.497 115.021 436.464C115.154 436.397 115.288 436.314 115.321 436.18C115.922 436.297 116.573 436.063 116.957 435.595ZM110.162 435.178C110.195 434.927 110.212 434.66 110.345 434.443C110.362 434.41 110.379 434.393 110.395 434.376C110.429 434.41 110.462 434.443 110.512 434.476C110.412 435.779 110.295 437.099 110.145 438.401C109.911 437.95 109.677 437.516 109.444 437.065C109.828 436.481 110.078 435.846 110.162 435.178ZM110.83 430.468C110.729 430.318 110.596 430.151 110.446 430.017C110.446 429.967 110.446 429.934 110.446 429.884C110.562 430.084 110.696 430.284 110.83 430.468ZM107.273 442.159C107.323 442.109 107.357 442.059 107.407 442.009C107.791 441.491 107.373 440.639 106.739 440.606C107.306 439.938 107.908 439.203 108.091 438.351C108.191 438.284 108.275 438.234 108.375 438.167C108.859 439.086 109.344 440.005 109.861 440.923C109.728 441.975 109.577 443.027 109.41 444.08C108.692 443.445 107.974 442.81 107.273 442.159ZM114.47 439.804C114.82 439.687 115.171 439.57 115.521 439.453C115.722 439.654 116.006 439.804 116.29 439.921C116.941 440.205 117.625 440.472 118.31 440.639L119.078 441.04C118.61 440.806 118.109 440.622 117.592 440.622C116.907 440.622 116.173 441.09 116.123 441.775C116.056 442.61 116.941 443.178 117.709 443.528C117.408 443.629 117.174 443.796 116.974 443.996C115.922 444.263 114.87 444.514 113.818 444.781C114.052 443.128 114.269 441.474 114.47 439.804Z" fill="#AA273F"/>
<path opacity="0.2" d="M728.402 445.574C729.521 445.106 729.537 443.386 728.736 442.484C727.934 441.582 726.665 441.282 725.48 441.031C725.046 440.948 724.628 440.847 724.194 440.764C724.361 440.58 724.528 440.413 724.695 440.23C725.146 439.745 725.63 439.194 725.664 438.509C725.697 437.825 725.012 437.123 724.411 437.407C725.446 436.689 726.565 435.837 726.732 434.601C726.899 433.365 725.28 432.079 724.395 432.964C724.929 432.246 725.313 431.278 724.979 430.443C724.645 429.608 723.343 429.24 722.825 429.975C723.309 428.656 722.508 426.969 721.122 426.685C719.92 426.434 718.651 427.52 718.634 428.689C718.283 427.67 716.797 427.102 715.862 427.754C715.829 427.77 715.812 427.804 715.796 427.82C715.662 427.57 715.495 427.319 715.295 427.119C714.543 426.418 713.241 426.418 712.506 427.069C713.258 426.017 713.592 424.58 712.89 423.528C712.406 422.81 711.354 422.66 710.586 422.944C710.903 422.359 711.07 421.708 711.003 421.056C710.887 419.904 709.835 418.835 708.683 418.986C707.748 419.102 707.03 420.071 707.163 421.006C707.13 419.67 706.295 418.334 705.026 417.867C703.774 417.399 702.171 417.95 701.586 419.153C701.002 420.355 701.653 422.042 702.955 422.409C701.97 422.159 700.952 421.892 699.967 422.075C698.965 422.259 698.013 423.011 697.93 424.013C697.88 424.564 698.097 425.098 698.347 425.599C698.564 426.05 698.815 426.484 699.082 426.919C697.713 426.384 695.876 426.952 695.425 428.388C694.256 427.319 692.687 426.702 691.117 426.718C690.55 426.718 689.948 426.818 689.531 427.203C688.913 427.787 688.997 428.839 689.481 429.541C689.965 430.242 690.733 430.676 691.468 431.077C689.698 430.559 687.627 430.075 686.125 431.161C685.106 431.896 684.622 433.298 684.973 434.501C685.323 435.703 686.492 436.622 687.744 436.706C686.659 436.822 686.058 438.192 686.392 439.244C686.726 440.296 687.694 441.014 688.679 441.482C689.08 441.683 689.498 441.833 689.932 441.966C689.965 442.417 690.115 442.835 690.416 443.202C688.412 442.501 685.874 442.935 684.672 444.689C683.47 446.442 684.422 449.415 686.525 449.666C684.839 449.799 684.038 452.071 684.706 453.624C685.373 455.177 686.96 456.112 688.446 456.897C688.629 456.998 688.83 457.081 689.047 457.148C688.963 457.198 688.88 457.231 688.813 457.282C691.601 459.152 695.809 458.4 697.779 455.678V455.996C698.664 456.53 699.633 455.311 699.649 454.292C699.649 453.891 699.599 453.49 699.549 453.073C701.219 454.025 702.905 454.96 704.575 455.912C704.926 462.676 704.959 469.457 704.675 476.237C704.475 481.098 712.022 481.098 712.239 476.237C712.54 469.19 712.473 462.158 712.072 455.144C713.508 454.426 714.944 453.691 716.38 452.973C716.53 453.624 716.797 454.242 717.215 454.743C718.617 456.48 720.988 457.131 723.209 457.165C724.278 457.181 725.396 457.081 726.315 456.547C727.25 456.012 727.934 454.96 727.784 453.908C727.734 453.524 727.567 453.123 727.651 452.739C727.801 452.087 728.552 451.803 729.137 451.453C731.224 450.15 730.756 446.342 728.402 445.574ZM715.846 431.211C715.662 431.228 715.495 431.228 715.311 431.244C715.395 431.127 715.478 431.01 715.562 430.894C715.645 431.01 715.745 431.111 715.846 431.211ZM713.642 436.154C714.159 435.102 713.942 433.716 713.107 432.881C713.475 432.714 713.825 432.514 714.176 432.28C714.577 433.148 715.178 433.916 715.946 434.484C715.412 434.434 714.877 434.601 714.577 435.052C713.992 435.937 715.194 437.357 716.063 436.756L716.096 437.257C715.178 437.574 714.209 437.925 713.558 438.643C713.241 438.977 713.024 439.445 712.957 439.895C712.239 440.346 711.538 440.814 710.82 441.248C710.703 440.346 710.603 439.445 710.469 438.543C710.586 438.459 710.703 438.376 710.82 438.292C711.003 438.142 711.187 437.941 711.204 437.724C712.222 437.674 713.191 437.056 713.642 436.154ZM702.338 437.992C702.304 437.557 702.221 437.123 702.354 436.722C702.371 436.672 702.404 436.639 702.421 436.589C702.488 436.622 702.555 436.672 702.638 436.706C702.972 438.893 703.256 441.081 703.506 443.286C702.955 442.651 702.388 442 701.853 441.349C702.271 440.263 702.438 439.127 702.338 437.992ZM701.686 430.008C701.453 429.791 701.186 429.591 700.885 429.407C700.868 429.34 700.868 429.257 700.852 429.19C701.102 429.491 701.386 429.758 701.686 430.008ZM700.2 450.551C700.267 450.467 700.317 450.367 700.351 450.267C700.785 449.282 699.783 448.029 698.731 448.213C699.416 446.893 700.134 445.474 700.1 444.021C700.234 443.887 700.367 443.753 700.484 443.603C701.62 444.939 702.772 446.259 703.957 447.561C704.124 449.348 704.275 451.135 704.391 452.922C703.006 452.138 701.603 451.336 700.2 450.551ZM711.137 444.004C711.671 443.687 712.206 443.353 712.74 443.035C713.141 443.303 713.675 443.419 714.159 443.503C715.328 443.72 716.547 443.92 717.732 443.937L719.135 444.305C718.283 444.104 717.398 443.971 716.547 444.171C715.428 444.438 714.393 445.474 714.543 446.609C714.744 448.012 716.43 448.614 717.816 448.897C717.365 449.165 717.031 449.532 716.781 449.95C715.144 450.768 713.525 451.586 711.888 452.421C711.688 449.616 711.438 446.81 711.137 444.004Z" fill="#AA273F"/>
<path opacity="0.2" d="M1440 482.482C1436.55 480.686 1436.62 480.52 1436.55 480.387C1435.01 477.193 1433.46 474 1432.35 475.913C1431.25 477.825 1423.89 480.486 1422.45 478.674C1421.04 476.877 1416.99 474.249 1414.64 476.212C1412.26 478.175 1408.74 481.135 1408.6 479.738C1408.48 478.341 1400.57 474.965 1400.57 474.965L1394.67 479.888L1391.7 474.881L1382.08 480.902L1377.7 474.1L1373.21 480.819L1368.85 474.482L1365.59 480.686L1358.66 474L1355.31 480.969C1353.7 478.79 1352.33 477.293 1352 478.773C1351.57 480.703 1345.91 483.563 1344.23 481.834C1342.53 480.104 1338.38 477.659 1336.87 479.671C1336.06 480.752 1335.05 482.1 1334.21 482.931C1333.59 482.948 1332.99 482.965 1332.37 482.981C1330.95 481.501 1324.48 478.906 1324.48 478.906L1321.15 483.347C1320.84 483.364 1320.52 483.364 1320.21 483.38L1316.81 479.139L1311.97 483.68C1310.89 483.713 1309.83 483.763 1308.75 483.796L1304.56 478.84L1302.98 484.012C1302.35 484.029 1301.73 484.062 1301.11 484.079L1297.06 479.522L1296.17 484.278C1296.15 484.278 1296.12 484.278 1296.07 484.278C1294.42 482 1292.98 480.37 1292.65 481.9C1292.6 482.15 1292.43 482.432 1292.21 482.698L1288.19 479.372L1287.4 484.644C1286.48 484.678 1285.57 484.727 1284.66 484.761C1282.86 483.048 1278.96 480.836 1277.49 482.782C1276.92 483.547 1276.25 484.445 1275.6 485.193C1274.4 485.26 1273.23 485.31 1272.08 485.376C1269.8 483.896 1265.1 482.016 1265.1 482.016L1262.15 485.958C1261.6 485.991 1261.05 486.025 1260.52 486.058L1257.45 482.233L1252.78 486.607C1251.63 486.69 1250.48 486.79 1249.4 486.873L1245.21 481.917L1243.53 487.422C1243.05 487.472 1242.59 487.522 1242.14 487.571L1237.73 482.599L1236.67 488.253C1236.46 488.287 1236.22 488.303 1235.98 488.337L1228.86 482.466L1228.33 485.991L1227.35 483.38L1221.76 489.667C1221.45 489.684 1221.11 489.717 1220.8 489.734L1218.57 484.362L1215 490.166C1214.71 490.183 1214.45 490.199 1214.16 490.233L1211 484.411L1207.33 490.698C1206.87 490.732 1206.44 490.765 1205.99 490.781L1198.94 485.858L1196.16 491.014L1191.32 486.374C1191.32 486.374 1184.39 490.149 1184.2 491.546C1184.03 492.944 1181.13 490.166 1179.19 488.303C1177.24 486.441 1173.67 489.268 1172.35 491.131C1171.3 492.644 1167.03 491.43 1165 489.917C1163.39 487.738 1162.05 486.258 1161.71 487.738C1161.28 489.667 1155.62 492.528 1153.94 490.798C1152.24 489.068 1148.1 486.623 1146.58 488.636C1145.07 490.665 1142.8 493.692 1142.34 492.328C1141.86 490.964 1134.19 487.887 1134.19 487.887L1130.4 492.944L1126.54 488.12L1119.86 494.374L1114.3 487.821L1112.21 494.607L1106.79 488.503L1105.62 494.74L1097.9 488.37L1096.72 496.187C1095.48 496.536 1094.28 496.536 1093.66 495.887C1091.95 494.158 1087.81 491.713 1086.3 493.725C1085.48 494.806 1084.47 496.17 1083.61 497.002C1083.01 497.035 1082.41 497.052 1081.81 497.085C1080.47 495.605 1073.88 492.977 1073.88 492.977L1070.45 497.567C1070.21 497.584 1070 497.584 1069.76 497.6L1066.23 493.21L1061.32 497.833C1060.98 497.334 1060.57 497.284 1060.05 498C1060.05 498 1060.05 498 1060.05 498.016C1059.5 498.033 1058.94 498.066 1058.39 498.083L1054.01 492.91L1052.35 498.316C1051.82 498.332 1051.3 498.365 1050.77 498.382L1046.53 493.592L1045.88 497.101C1045.59 497.201 1045.3 497.351 1045.04 497.567C1044.66 497.867 1044.23 498.199 1043.79 498.515L1037.66 493.459L1036.96 498.216C1035.33 496.919 1033.41 495.721 1033.41 495.721L1028.84 499.264C1028.24 499.28 1027.66 499.313 1027.06 499.33L1025.91 495.272L1018.58 499.663C1017.76 499.696 1016.95 499.729 1016.13 499.763L1014.24 493.908L1009.37 500.012C1009.2 500.012 1009.03 500.029 1008.87 500.029L1006.69 493.908L1002.61 499.979L998.176 492.977L995.467 497.268L994.364 494.324L988.635 500.744C988.371 500.76 988.107 500.76 987.868 500.777L985.614 495.305L982.115 500.993C981.779 501.01 981.467 501.01 981.132 501.027L978.063 495.339L974.611 501.243C973.892 501.276 973.197 501.293 972.478 501.309L966.005 496.785L963.392 501.625C963.225 501.625 963.081 501.642 962.913 501.642L958.382 497.284C958.382 497.284 952.653 500.411 951.478 502.024C950.807 502.041 950.136 502.074 949.465 502.091C948.458 501.343 947.235 500.162 946.253 499.214C944.311 497.351 940.739 500.178 939.421 502.041C939.301 502.207 939.157 502.324 938.965 502.424C937.958 502.457 936.928 502.49 935.921 502.523C933.835 502.041 931.558 500.827 931.055 499.746C930.431 498.365 929.448 499.796 928.394 501.958L925.973 495.472L919.716 502.507L917.223 496.453L913.196 503.006L909.672 496.486L905.62 503.455C905.573 503.455 905.549 503.455 905.501 503.455L897.614 497.95L894.833 503.106L889.991 498.465C889.991 498.465 883.063 502.241 882.871 503.638C882.703 505.035 879.803 502.257 877.861 500.395C875.919 498.532 872.348 501.359 871.029 503.222C869.711 505.101 863.526 502.79 862.663 500.927C862.447 500.478 862.208 500.328 861.944 500.411L861.009 497.916L854.92 504.769C854.848 504.769 854.776 504.769 854.68 504.769L852.259 498.881L848.544 504.885C848.328 504.885 848.136 504.902 847.92 504.902L844.684 498.914L841.112 505.035C840.513 505.051 839.938 505.051 839.338 505.068L832.626 500.378L829.989 505.234C829.846 505.234 829.678 505.234 829.534 505.234L825.003 500.877C825.003 500.877 819.753 503.721 818.267 505.384C817.428 505.401 816.589 505.401 815.75 505.417C814.815 504.669 813.737 503.638 812.874 502.79C810.98 500.96 807.48 503.671 806.114 505.534C805.083 505.55 804.028 505.567 802.997 505.584C802.518 503.721 801.942 502.607 801.031 503.871C800.768 504.236 800.264 504.636 799.665 505.018C798.706 504.503 797.963 503.904 797.699 503.338C797.052 501.925 796.045 503.455 794.967 505.7C793.912 505.717 792.857 505.733 791.802 505.75C790.748 503.937 788.183 501.742 785.953 503.455C784.97 504.22 783.772 505.151 782.717 505.883C781.734 505.9 780.751 505.916 779.768 505.933C778.546 504.27 774.327 501.625 774.327 501.625L768.55 506.099C768.43 506.099 768.334 506.099 768.214 506.099L766.824 501.176L758.338 506.249C757.978 506.249 757.619 506.266 757.235 506.266L755.125 499.796L749.9 506.349L747.55 499.812L743.475 505.883L739.04 498.881L734.654 505.85C732.592 506.498 730.53 506.681 730.099 505.717C729.284 503.854 726.431 501.06 724.01 502.923C721.589 504.802 717.969 507.596 718.161 506.199C718.353 504.802 712.384 501.076 712.384 501.076L706.343 505.75L704.881 500.611L695.46 506.232L693.182 499.23L687.956 505.783L685.607 499.247L681.532 505.318L677.097 498.316L673.789 503.555C672.734 502.241 671.895 501.625 671.608 502.756C671.104 504.686 665.399 507.513 663.745 505.783C662.091 504.037 658.016 501.575 656.458 503.588C654.875 505.6 652.526 508.627 652.095 507.247C651.663 505.866 644.088 502.756 644.088 502.756L640.157 507.796L636.441 502.939L630.28 508.511C629.873 508.527 629.465 508.527 629.058 508.544L624.191 502.573L622.13 508.694C621.866 508.694 621.626 508.71 621.363 508.71L616.688 503.222L615.466 508.843C615.202 508.843 614.914 508.86 614.627 508.86L607.819 503.039L606.74 509.026C606.668 509.026 606.62 509.026 606.548 509.026L603.887 501.858L597.631 508.893L595.138 502.839L591.11 509.376H591.086L587.563 502.873L583.655 509.575C583.463 509.575 583.248 509.592 583.056 509.592L575.529 504.32L572.748 509.475L567.906 504.835C567.906 504.835 560.978 508.611 560.786 510.008C560.618 511.405 557.718 508.627 555.776 506.765C554.002 505.051 550.814 507.313 549.304 509.143L547.889 505.318L544.03 509.642C542.424 509.043 540.985 508.128 540.602 507.297C540.29 506.615 539.907 506.631 539.451 507.064L539.14 506.282L535.975 511.405C535.448 511.421 534.896 511.455 534.369 511.471L531.588 506.315L528.424 511.737C527.417 511.787 526.41 511.821 525.404 511.87L519.531 507.779L517.109 512.253C516.774 512.27 516.414 512.286 516.079 512.303L511.908 508.295C511.908 508.295 506.682 511.139 505.195 512.802C504.38 512.835 503.565 512.868 502.774 512.918C501.815 512.17 500.713 511.105 499.802 510.224C497.86 508.361 494.288 511.189 492.97 513.051C492.874 513.184 492.778 513.284 492.634 513.367C491.555 513.417 490.453 513.467 489.374 513.517C488.463 513.301 487.504 512.935 486.689 512.502C485.155 510.307 483.837 508.794 483.453 510.274C482.95 512.203 477.244 515.03 475.59 513.301C473.936 511.554 469.861 509.093 468.303 511.105C467.368 512.303 466.169 513.833 465.258 514.615C464.803 514.631 464.347 514.648 463.892 514.681C463.173 513.268 455.933 510.29 455.933 510.29L452.098 515.197C452.026 515.197 451.954 515.197 451.906 515.213L448.286 510.49L442.653 515.613C441.958 515.646 441.287 515.662 440.591 515.696L436.061 510.124L434.095 515.962C433.735 515.978 433.376 515.995 433.016 516.012L428.558 510.773L428.054 513.134C427.575 512.552 427.143 512.469 426.736 513.251C426.448 513.8 425.705 514.398 424.794 514.931L419.712 510.59L418.681 516.294C418.489 516.195 418.298 516.078 418.202 515.895C417.027 514.082 413.647 511.405 411.562 513.351C410.195 514.631 408.373 516.344 407.271 516.943C406.959 516.96 406.671 516.96 406.36 516.976C406.336 516.926 406.336 516.877 406.312 516.81C406.24 515.413 399.552 511.937 399.552 511.937L394.374 516.793L391.953 511.754L383.73 517.542C383.658 517.542 383.586 517.542 383.515 517.542L379.967 510.789L375.963 517.459L372.392 511.072L369.443 517.243L367.453 514.897C367.31 514.349 367.094 514.033 366.758 514.099L363.666 510.473L360.789 517.026C358.752 517.525 356.858 517.575 356.642 516.627C356.187 514.731 353.909 511.821 351.153 513.617C348.396 515.396 344.249 518.091 344.704 516.694C345.184 515.297 340.006 511.355 340.006 511.355L333.102 515.829L332.67 510.64L322.243 515.929L321.38 508.827L314.907 515.197L313.876 508.561L308.627 514.498L305.606 507.33L302.754 510.739C299.997 512.053 295.706 512.935 295.37 511.488C294.915 509.592 292.637 506.681 289.881 508.478C287.124 510.257 282.977 512.952 283.432 511.554C283.912 510.157 278.734 506.216 278.734 506.216L271.83 510.69L271.398 505.501L263.008 509.758C262.289 509.675 261.546 509.592 260.803 509.509L260.084 503.688L254.834 508.86C254.642 508.843 254.474 508.827 254.307 508.794C254.019 508.76 253.707 508.727 253.42 508.71L252.605 503.422L249.656 506.765C249.488 505.5 249.057 504.952 248.122 505.95C247.762 506.332 247.139 506.731 246.396 507.114L244.334 502.191L239.756 507.646C239.396 507.629 239.036 507.596 238.653 507.579C238.006 505.7 235.872 503.305 233.283 504.968C232.205 505.667 230.934 506.482 229.807 507.147C228.753 507.097 227.674 507.064 226.571 507.014C225.54 505.284 222.136 502.673 222.136 502.673L215.928 506.681C215.688 506.681 215.424 506.665 215.185 506.665L214.801 501.941L205.859 506.465C205.332 506.448 204.805 506.449 204.253 506.432L203.486 500.128L197.182 506.332C197.11 506.332 197.062 506.332 196.99 506.332L195.983 499.862L190.733 505.8L187.713 498.632L181.336 506.216C180.306 506.216 179.275 506.216 178.244 506.199C176.926 504.519 174.217 502.457 174.217 502.457L168.44 506.199C168.056 506.199 167.648 506.199 167.241 506.199L166.881 501.725L157.988 506.232C157.436 506.232 156.909 506.232 156.358 506.249L155.591 499.929L149.118 506.299L148.087 499.663L142.838 505.6L139.817 498.432L133.345 506.149C132.026 503.122 130.732 500.311 129.869 502.124C128.958 504.037 122.701 506.648 121.431 504.835C120.184 503.022 116.684 500.378 114.695 502.34C112.705 504.303 109.733 507.23 109.589 505.833C109.469 504.436 102.637 501.01 102.637 501.01L97.8186 505.916L95.1817 500.91L87.0552 506.881L83.1718 500.062L79.4562 506.765L75.5967 500.411L72.9119 506.598L66.847 499.879L65.8881 502.307C65.5286 502.091 65.2169 502.191 64.9293 502.773C64.0183 504.686 57.7617 507.297 56.4912 505.484C55.2447 503.671 51.7448 501.027 49.7551 502.989C47.7655 504.952 44.793 507.879 44.6491 506.482C44.5293 505.085 37.6973 501.659 37.6973 501.659L32.7351 506.548L30.0982 501.542L21.9478 507.463L18.0644 500.644L14.3488 507.347L10.4893 500.993L7.80447 507.18L1.7396 500.461L-2 509.941L5.02374 593H1439.98V482.482H1440Z" fill="#460632"/>
<path opacity="0.2" d="M-2 489C-2 489 207.292 490.065 347.348 525.224C487.403 560.383 559.731 562.514 655.129 553.991C750.552 545.467 929.059 497.523 1067.58 526.29C1206.08 555.056 1440 557.187 1440 557.187V603H-2V489Z" fill="#2B172B"/>
<path opacity="0.2" d="M1194.03 554.888C1194.23 554.637 1194.4 554.37 1194.48 554.103C1194.26 554.27 1194.03 554.387 1193.81 554.487C1190.54 548.007 1190.14 541.042 1190.57 534.145C1190.84 530.287 1191.34 526.412 1191.96 522.504C1192.59 518.596 1193.24 514.537 1193.78 510.496C1194.85 502.396 1195.48 494.045 1194.73 485.644C1194.03 477.294 1191.69 468.809 1187.03 461.928C1188.55 470.079 1188.92 477.895 1188.42 485.761C1187.98 493.611 1186.85 501.46 1185.81 509.444C1185.31 513.452 1184.78 517.427 1184.41 521.585C1184.06 525.727 1183.93 529.969 1184.28 534.228C1184.61 538.47 1185.51 542.779 1187.2 546.771C1188.47 549.76 1190.32 552.516 1192.61 554.704C1191.91 554.687 1191.24 554.437 1190.66 554.103C1189.54 553.435 1188.52 552.516 1187.75 551.497C1187.55 551.23 1187.4 551.013 1187.2 550.712L1186.61 549.81C1186.21 549.226 1185.86 548.591 1185.48 547.99L1184.43 546.136L1183.46 544.249C1180.97 539.188 1179.2 533.844 1177.9 528.299C1176.6 522.788 1175.76 517.059 1174.99 511.18C1174.19 505.302 1173.56 499.256 1172.1 493.16C1170.2 499.122 1169.12 505.168 1168.68 511.364C1168.28 517.544 1168.6 523.907 1170.08 530.153C1171.55 536.366 1174.19 542.445 1178.13 547.606C1179.12 548.892 1180.2 550.111 1181.35 551.247C1181.96 551.798 1182.51 552.382 1183.14 552.883L1184.08 553.652C1184.39 553.902 1184.78 554.22 1185.15 554.453C1186.65 555.422 1188.28 556.107 1190.07 556.257C1190.96 556.324 1191.89 556.257 1192.73 555.906C1192.99 555.79 1193.21 555.639 1193.43 555.472C1193.94 555.906 1194.46 556.341 1195.01 556.708C1194.68 556.09 1194.35 555.489 1194.03 554.888Z" fill="#2B172B"/>
<path opacity="0.2" d="M1203.85 526.462C1205.6 521.301 1206.67 515.823 1206.95 510.362C1207.22 504.884 1206.77 499.373 1205.06 494.095C1203.41 499.373 1202.14 504.416 1200.72 509.36C1199.32 514.32 1197.85 519.114 1196.23 523.957C1194.61 528.85 1192.94 534.095 1192.37 539.74C1192.12 542.562 1192.16 545.485 1192.79 548.324C1193.44 551.147 1194.68 553.852 1196.6 555.873C1195.88 550.362 1196.98 545.685 1198.54 540.975C1200.11 536.266 1202.14 531.573 1203.85 526.462Z" fill="#2B172B"/>
<path opacity="0.2" d="M1226.47 507.222C1226.09 500.993 1224.8 495.014 1222.73 489.168C1221.46 495.264 1220.99 501.243 1220.16 506.988C1219.37 512.734 1218.26 518.195 1216.37 523.306C1215.45 525.861 1214.3 528.299 1212.96 530.587C1212.29 531.74 1211.53 532.825 1210.76 533.894C1209.96 534.93 1209.09 535.982 1208.1 537.034C1206.17 539.172 1203.95 541.376 1202.09 544.032C1200.26 546.654 1198.82 549.977 1199.22 553.117C1200.59 550.295 1202.64 548.408 1204.93 546.754C1207.22 545.084 1209.74 543.598 1212.28 541.76C1214.85 539.94 1217.35 537.485 1219.29 534.813C1221.24 532.107 1222.78 529.151 1223.92 526.095C1226.19 519.949 1226.84 513.418 1226.47 507.222Z" fill="#2B172B"/>
<path opacity="0.2" d="M107.279 491.151C107.746 488.228 107.913 485.289 107.83 482.366C107.746 479.444 107.396 476.521 106.761 473.631C106.093 470.742 105.192 467.87 103.589 465.08C102.403 468.07 101.869 470.993 101.502 473.915C101.168 476.821 101.051 479.711 101.134 482.583C101.151 483.185 101.184 483.769 101.218 484.37C101.051 483.736 100.917 483.101 100.75 482.466C100.015 479.828 99.1639 477.222 98.1287 474.634C97.0768 472.045 95.8913 469.439 94.1381 466.851C93.1363 469.824 92.9025 472.78 92.9693 475.702C93.0695 478.608 93.5203 481.498 94.3051 484.27C95.0731 487.059 96.1752 489.748 97.5944 492.303C99.0304 494.842 100.75 497.247 103.155 499.285C103.221 498.065 103.188 496.913 103.121 495.777C103.522 497.147 104.023 498.533 104.657 499.919C106.077 496.997 106.795 494.074 107.279 491.151Z" fill="#2B172B"/>
<path opacity="0.2" d="M117.163 474.2C116.996 471.094 116.395 467.987 114.926 465.064C113.607 468.037 112.755 470.843 111.937 473.615C111.136 476.371 110.418 479.077 109.75 481.799C109.082 484.521 108.448 487.244 107.863 490.066C107.295 492.889 106.744 495.778 106.494 499.018C109.149 497.114 111.119 494.659 112.739 492.004C114.325 489.331 115.494 486.425 116.245 483.419C116.98 480.43 117.314 477.306 117.163 474.2Z" fill="#2B172B"/>
<path opacity="0.2" d="M153.613 483.469L150.424 471.411C149.339 467.352 148.287 463.244 146.834 458.985C145.498 463.294 145.114 467.736 145.215 472.146C145.331 476.555 145.999 480.964 147.168 485.223C148.32 489.481 149.957 493.623 152.077 497.498C154.214 501.356 156.786 505.014 160.092 508.053C159.19 503.644 158.021 499.569 156.919 495.511L153.613 483.469Z" fill="#2B172B"/>
<path opacity="0.2" d="M164.55 469.49C164.099 465.398 163.431 461.29 162.095 457.181C160.643 461.256 159.858 465.331 159.29 469.423C158.739 473.515 158.455 477.59 158.389 481.682C158.339 485.774 158.505 489.866 158.94 493.974C159.39 498.066 160.058 502.174 161.377 506.283C162.83 502.208 163.598 498.133 164.183 494.041C164.734 489.949 165.017 485.874 165.084 481.782C165.151 477.69 164.967 473.598 164.55 469.49Z" fill="#2B172B"/>
<path opacity="0.2" d="M177.691 462.726C177.306 457.482 176.321 452.254 174.334 447.344C173.566 452.588 173.065 457.616 172.431 462.592C171.813 467.569 171.129 472.48 170.31 477.373C169.492 482.267 168.574 487.143 167.539 492.053C166.537 496.98 165.368 501.891 164.4 507.101C167.873 503.093 170.477 498.467 172.548 493.623C174.585 488.78 176.054 483.669 176.922 478.475C177.791 473.281 178.058 467.987 177.691 462.726Z" fill="#2B172B"/>
<path opacity="0.2" d="M1393.45 538.5L1390.26 526.441C1389.17 522.383 1388.12 518.274 1386.67 514.016C1385.33 518.325 1384.95 522.767 1385.05 527.176C1385.17 531.585 1385.83 535.994 1387 540.253C1388.16 544.512 1389.79 548.654 1391.91 552.529C1394.05 556.387 1396.62 560.044 1399.93 563.084C1399.03 558.675 1397.86 554.6 1396.75 550.541L1393.45 538.5Z" fill="#2B172B"/>
<path opacity="0.2" d="M1404.37 524.521C1403.92 520.429 1403.25 516.321 1401.91 512.212C1400.46 516.287 1399.68 520.362 1399.11 524.454C1398.56 528.546 1398.27 532.621 1398.21 536.713C1398.16 540.805 1398.32 544.896 1398.76 549.005C1399.21 553.097 1399.88 557.205 1401.2 561.314C1402.65 557.239 1403.42 553.164 1404 549.072C1404.55 544.98 1404.84 540.905 1404.9 536.813C1404.97 532.721 1404.8 528.629 1404.37 524.521Z" fill="#2B172B"/>
<path opacity="0.2" d="M1417.53 517.773C1417.14 512.529 1416.16 507.302 1414.17 502.392C1413.4 507.636 1412.9 512.663 1412.27 517.64C1411.65 522.617 1410.96 527.527 1410.15 532.42C1409.33 537.314 1408.41 542.191 1407.37 547.101C1406.37 552.028 1405.2 556.938 1404.23 562.149C1407.71 558.14 1410.31 553.514 1412.38 548.687C1414.42 543.844 1415.89 538.734 1416.76 533.539C1417.63 528.329 1417.89 523.018 1417.53 517.773Z" fill="#2B172B"/>
</g>
<g opacity="0.2">
<path opacity="0.2" d="M1410.99 370.449C1409.45 371.363 1395.61 376.567 1389.9 345.011C1384.19 313.455 1377.16 308.44 1377.16 308.44C1377.14 308.426 1377.12 308.426 1377.1 308.413C1374.17 299.445 1364.3 293.865 1364.3 293.865C1342.21 279.775 1320.97 285.287 1319.08 284.373C1317.2 283.459 1311.86 279.506 1311.34 277.489C1310.83 275.472 1308.67 268.615 1306.54 261.422C1304.4 254.215 1304.04 254.363 1302.46 254.014C1300.88 253.677 1300.37 262.027 1300.37 262.027C1298.41 256.81 1295.75 254.753 1294.83 254.834C1293.93 254.914 1297.1 264.192 1297.1 264.192L1295.92 265.146C1290.83 267.486 1291.36 270.941 1291.29 271.654C1291.23 272.366 1288.63 274.786 1286.88 276.037C1285.14 277.287 1286.53 279.398 1286.53 279.398C1288.71 280.877 1298.45 280.622 1298.45 280.622C1298.45 280.622 1299.61 283.243 1300.23 286C1300.84 288.743 1294.38 290.41 1310.1 306.894C1310.21 307.001 1310.3 307.095 1310.41 307.203C1309.18 310.161 1307.95 313.361 1307.43 315.391C1306.24 319.922 1308.06 321.361 1311.82 321.576C1311.82 321.576 1313.44 321.562 1314.02 319.478C1314.02 319.478 1314.57 317.569 1313.31 317.609C1312.05 317.663 1309.57 317.22 1310.65 315.539C1311.26 314.598 1312.77 313.025 1314.5 311.048C1325.17 320.137 1335.7 322.235 1341.71 323.055C1341.71 324.735 1342.13 337.145 1352.83 342.08C1364.31 347.377 1375.17 357.098 1377.42 361.266C1379.69 365.434 1390.52 382.308 1390.73 387.162C1390.95 392.015 1389.44 390.967 1389.59 392.956C1389.73 394.946 1393.03 394.382 1393.84 393.575C1394.61 392.795 1393.83 380.036 1393.12 375.908C1395.11 380.52 1397.26 385.642 1397.96 386.839C1399.17 388.936 1398.65 388.883 1398.05 391.141C1397.46 393.414 1396.63 394.395 1397.66 394.866C1398.69 395.336 1401.47 394.543 1401.47 394.543C1401.47 394.543 1401.16 390.577 1402.28 388.533C1403.38 386.503 1401.89 381.864 1401.89 381.864C1401.89 381.864 1397.55 375.505 1395.76 370.933C1401.06 376.916 1405.4 375.505 1408.02 374.792C1411.35 373.891 1410.99 370.449 1410.99 370.449ZM1376.92 325.125C1378.93 330.006 1381.84 340.802 1385.5 350.927C1382.05 347.162 1377.1 341.475 1376 338.745C1374.91 336.016 1375.99 331.256 1376.92 325.125Z" fill="#C31923"/>
<g opacity="0.74">
<path opacity="0.74" d="M1313.3 317.596C1312.03 317.65 1309.56 317.206 1310.64 315.525C1311.02 314.934 1311.75 314.1 1312.67 313.078C1312.56 312.984 1312.45 312.904 1312.34 312.823C1310.6 314.799 1309.09 316.372 1308.49 317.314C1307.41 318.994 1309.9 319.424 1311.15 319.384C1312.42 319.33 1311.86 321.253 1311.86 321.253C1311.83 321.374 1311.78 321.468 1311.73 321.576C1311.76 321.576 1311.78 321.576 1311.8 321.576C1311.8 321.576 1313.42 321.562 1314 319.478C1314 319.465 1314.56 317.556 1313.3 317.596Z" fill="#C31923"/>
<path opacity="0.74" d="M1298.23 263.802C1298.23 263.802 1298.41 261.045 1298.84 258.76C1297.21 255.936 1295.52 254.766 1294.83 254.834C1294.45 254.874 1294.8 256.595 1295.34 258.558C1296.3 259.714 1297.34 261.435 1298.23 263.802Z" fill="#C31923"/>
<path opacity="0.74" d="M1410.99 370.449C1409.45 371.363 1395.61 376.567 1389.9 345.011C1384.19 313.455 1377.16 308.44 1377.16 308.44C1377.14 308.426 1377.12 308.426 1377.1 308.413C1374.17 299.445 1364.3 293.865 1364.3 293.865C1342.21 279.774 1320.97 285.287 1319.08 284.373C1317.2 283.458 1311.86 279.506 1311.34 277.489C1310.83 275.472 1308.67 268.615 1306.54 261.422C1304.4 254.215 1304.04 254.363 1302.46 254.013C1301.92 253.892 1301.51 254.793 1301.19 256.03C1302.13 256.42 1302.73 257.55 1304.39 263.197C1306.52 270.403 1308.68 277.247 1309.2 279.264C1309.71 281.28 1315.04 285.233 1316.93 286.148C1318.81 287.062 1340.06 281.549 1362.15 295.64C1362.15 295.64 1372.02 301.22 1374.95 310.188C1374.98 310.201 1374.99 310.201 1375.02 310.214C1375.02 310.214 1382.05 315.23 1387.75 346.785C1393.46 378.341 1407.3 373.152 1408.84 372.224C1408.84 372.224 1408.96 373.488 1408.33 374.684C1411.31 373.649 1410.99 370.449 1410.99 370.449Z" fill="#C31923"/>
<path opacity="0.74" d="M1398.56 376.526C1397.04 375.867 1395.39 374.711 1393.62 372.721C1395.42 377.279 1399.75 383.652 1399.75 383.652C1399.75 383.652 1401.25 388.277 1400.14 390.321C1399.44 391.598 1399.31 393.629 1399.31 394.973C1400.39 394.852 1401.49 394.543 1401.49 394.543C1401.49 394.543 1401.18 390.577 1402.3 388.533C1403.41 386.503 1401.91 381.864 1401.91 381.864C1401.91 381.864 1400.24 379.444 1398.56 376.526Z" fill="#C31923"/>
<path opacity="0.74" d="M1390.98 377.682C1391.57 381.205 1392.23 390.993 1391.94 394.287C1392.73 394.207 1393.5 393.911 1393.84 393.575C1394.27 393.144 1394.22 388.936 1393.96 384.607C1393.07 382.563 1392 380.049 1390.98 377.682Z" fill="#C31923"/>
<path opacity="0.74" d="M1374.77 326.9C1373.84 333.031 1372.76 337.791 1373.86 340.52C1374.95 343.263 1379.91 348.95 1383.35 352.701C1382.52 350.416 1381.74 348.09 1380.99 345.817C1378.7 343.101 1376.65 340.385 1376 338.745C1375.26 336.876 1375.54 334.026 1376.08 330.463C1375.61 329.078 1375.17 327.868 1374.77 326.9Z" fill="#C31923"/>
</g>
</g>
<g opacity="0.16">
<mask id="mask0" mask-type="alpha" maskUnits="userSpaceOnUse" x="922" y="0" width="518" height="603">
<g opacity="0.16">
<path opacity="0.16" d="M1440 0H922V603H1440V0Z" fill="#C4C4C4"/>
</g>
</mask>
<g mask="url(#mask0)">
<g opacity="0.16">
<path opacity="0.16" d="M1041.1 119.734L1040.99 119.668L991.902 91.3054V34.4263L992.012 34.3601L1041.1 5.9978L1041.21 6.06397L1090.3 34.4263V91.2833L1090.19 91.3495L1041.1 119.734ZM992.321 91.0407L1041.08 119.227L1089.84 91.0407V34.691L1041.08 6.50507L992.321 34.691V91.0407Z" fill="#F8C85D"/>
<path opacity="0.16" d="M1139.06 119.734L1138.95 119.668L1089.86 91.3054V34.4263L1089.97 34.3601L1139.06 5.9978L1139.17 6.06397L1188.27 34.4263V91.2833L1188.16 91.3495L1139.06 119.734ZM1090.28 91.0407L1139.06 119.227L1187.82 91.0407V34.691L1139.06 6.50507L1090.3 34.691V91.0407H1090.28Z" fill="#F8C85D"/>
<path opacity="0.16" d="M1237.03 119.734L1236.92 119.668L1187.82 91.3054V34.4263L1187.93 34.3601L1237.03 5.9978L1237.14 6.06397L1286.23 34.4263V91.2833L1286.12 91.3495L1237.03 119.734ZM1188.27 91.0407L1237.05 119.227L1285.81 91.0407V34.691L1237.05 6.50507L1188.27 34.691V91.0407Z" fill="#F8C85D"/>
<path opacity="0.16" d="M1335.01 119.734L1334.9 119.668L1285.81 91.3054V34.4263L1285.92 34.3601L1335.01 5.9978L1335.12 6.06397L1384.21 34.4263V91.2833L1384.1 91.3495L1335.01 119.734ZM1286.23 91.0407L1334.99 119.227L1383.75 91.0407V34.691L1334.99 6.50507L1286.23 34.691V91.0407Z" fill="#F8C85D"/>
<path opacity="0.16" d="M1445 112.279L1432.97 119.227L1384.19 91.0407V34.691L1432.97 6.50507L1445 13.4523V12.945L1433.08 6.06397L1432.97 5.9978L1383.88 34.3822L1383.77 34.4263V91.3054L1432.86 119.668L1432.97 119.734L1445 112.787V112.279Z" fill="#F8C85D"/>
<path opacity="0.16" d="M1090.08 204.644L1089.97 204.578L1040.88 176.216V119.359L1040.99 119.293L1090.08 90.9304L1090.19 90.9966L1139.28 119.359V176.216L1139.17 176.282L1090.08 204.644ZM1041.3 175.973L1090.06 204.159L1138.82 175.973V119.602L1090.06 91.4156L1041.3 119.602V175.973Z" fill="#F8C85D"/>
<path opacity="0.16" d="M1188.04 204.644L1187.93 204.578L1138.84 176.216V119.359L1138.95 119.293L1188.04 90.9304L1188.16 90.9966L1237.25 119.359V176.216L1237.14 176.282L1188.04 204.644ZM1139.28 175.973L1188.04 204.159L1236.81 175.973V119.602L1188.04 91.4156L1139.28 119.602V175.973Z" fill="#F8C85D"/>
<path opacity="0.16" d="M1286.01 204.644L1285.9 204.578L1236.8 176.216V119.359L1236.92 119.293L1286.01 90.9304L1286.12 90.9966L1335.21 119.359V176.216L1335.1 176.282L1286.01 204.644ZM1237.25 175.973L1286.01 204.159L1334.77 175.973V119.602L1286.01 91.4156L1237.25 119.602V175.973Z" fill="#F8C85D"/>
<path opacity="0.16" d="M1383.99 204.644L1383.88 204.578L1334.79 176.216V119.359L1334.9 119.293L1383.99 90.9304L1384.1 90.9966L1433.19 119.359V176.216L1433.08 176.282L1383.99 204.644ZM1335.21 175.973L1383.97 204.159L1432.73 175.973V119.602L1383.97 91.4156L1335.21 119.602V175.973Z" fill="#F8C85D"/>
<path opacity="0.16" d="M1445 182.81L1433.17 175.973V119.601L1445 112.787V112.279L1432.86 119.293L1432.75 119.359V176.216L1445 183.295V182.81Z" fill="#F8C85D"/>
<path opacity="0.16" d="M1237.03 289.577L1236.92 289.511L1187.82 261.149V204.292L1187.93 204.225L1237.03 175.863L1237.14 175.929L1286.23 204.292V261.149L1286.12 261.215L1237.03 289.577ZM1188.27 260.906L1237.05 289.092L1285.81 260.906V204.534L1237.05 176.348L1188.27 204.534V260.906Z" fill="#F8C85D"/>
<path opacity="0.16" d="M1335.01 289.577L1334.9 289.511L1285.81 261.149V204.292L1285.92 204.225L1335.01 175.863L1335.12 175.929L1384.21 204.292V261.149L1384.1 261.215L1335.01 289.577ZM1286.23 260.906L1334.99 289.092L1383.75 260.906V204.534L1334.99 176.348L1286.23 204.534V260.906Z" fill="#F8C85D"/>
<path opacity="0.16" d="M1445 282.123L1432.97 289.092L1384.19 260.906V204.534L1432.97 176.348L1445 183.295V182.81L1433.08 175.907L1432.97 175.841L1383.88 204.225L1383.77 204.291V261.148L1432.86 289.511L1432.97 289.577L1445 282.63V282.123Z" fill="#F8C85D"/>
<path opacity="0.16" d="M1286.01 374.51L1285.9 374.444L1236.8 346.081V289.224L1236.92 289.158L1286.01 260.796L1286.12 260.862L1335.21 289.224V346.081L1335.1 346.147L1286.01 374.51ZM1237.25 345.817L1286.01 374.002L1334.77 345.817V289.445L1286.01 261.259L1237.25 289.445V345.817Z" fill="#F8C85D"/>
<path opacity="0.16" d="M1383.99 374.51L1383.88 374.444L1334.79 346.081V289.224L1334.9 289.158L1383.99 260.796L1384.1 260.862L1433.19 289.224V346.081L1433.08 346.147L1383.99 374.51ZM1335.21 345.817L1383.97 374.002L1432.73 345.817V289.445L1383.99 261.259L1335.23 289.445V345.817H1335.21Z" fill="#F8C85D"/>
<path opacity="0.16" d="M1445 352.653L1433.17 345.816V289.445L1445 282.63V282.123L1432.86 289.136L1432.75 289.202V346.059L1445 353.139V352.653Z" fill="#F8C85D"/>
<path opacity="0.16" d="M1335.01 459.42L1334.9 459.354L1285.81 430.992V374.135L1285.92 374.069L1335.01 345.706L1335.12 345.772L1384.21 374.135V430.992L1384.1 431.058L1335.01 459.42ZM1286.23 430.749L1334.99 458.935L1383.75 430.749V374.377L1334.99 346.191L1286.23 374.377V430.749Z" fill="#F8C85D"/>
<path opacity="0.16" d="M1445 451.988L1432.97 458.935L1384.19 430.749V374.377L1432.97 346.191L1445 353.139V352.653L1433.08 345.75L1432.97 345.706L1383.88 374.069L1383.77 374.135V430.992L1432.86 459.354L1432.97 459.42L1445 452.473V451.988Z" fill="#F8C85D"/>
<path opacity="0.16" d="M1445 522.497L1433.17 515.66V459.31L1445 452.473V451.988L1432.86 459.001L1432.75 459.045V515.924L1445 522.982V522.497Z" fill="#F8C85D"/>
<path opacity="0.16" d="M1237.25 661V629.153L1286.01 600.967L1334.79 629.153V661H1335.21V628.911L1286.12 600.526L1286.01 600.46L1236.92 628.844L1236.83 628.911V661H1237.25Z" fill="#F8C85D"/>
<path opacity="0.16" d="M1335.21 661V629.153L1383.99 600.967L1432.75 629.153V661H1433.17V628.911L1384.08 600.526L1383.99 600.46L1334.9 628.844L1334.79 628.911V661H1335.21Z" fill="#F8C85D"/>
<path opacity="0.16" d="M1222.04 -85V-36.7664L1159.31 -0.508484L1096.58 -36.7664V-85H1094.36V-35.4872L1159.31 2.04986L1224.25 -35.4872V-85H1222.04Z" fill="#F8C85D"/>
<path opacity="0.16" d="M1349.71 -85V-36.7664L1286.98 -0.508484L1224.25 -36.7664V-85H1222.04V-35.4872L1286.98 2.04986L1351.93 -35.4872V-85H1349.71Z" fill="#F8C85D"/>
<path opacity="0.16" d="M1351.93 -36.7664V-85H1349.7V-35.4872L1414.66 2.04986L1445 -15.4836V-18.042L1414.66 -0.508484L1351.93 -36.7664Z" fill="#F8C85D"/>
<path opacity="0.16" d="M1223.14 112.72L1158.19 75.1832V0.131069L1223.14 -37.406L1288.1 0.131069V75.2052L1223.14 112.72ZM1160.41 73.9261L1223.14 110.184L1285.87 73.9261V1.41024L1223.14 -34.8477L1160.41 1.41024V73.9261Z" fill="#F8C85D"/>
<path opacity="0.16" d="M1350.83 112.72L1285.87 75.1832V0.131069L1350.83 -37.406L1415.78 0.131069V75.2052L1350.83 112.72ZM1288.1 73.9261L1350.83 110.184L1413.56 73.9261V1.41024L1350.83 -34.8477L1288.1 1.41024V73.9261Z" fill="#F8C85D"/>
<path opacity="0.16" d="M1445 90.7979L1415.76 73.9261V1.41025L1445 -15.4836V-18.042L1413.56 0.131077V75.2052L1445 93.3563V90.7979Z" fill="#F8C85D"/>
<path opacity="0.16" d="M1286.98 223.413L1222.02 185.876V110.802L1286.98 73.2645L1351.93 110.802V185.876L1286.98 223.413ZM1224.25 184.597L1286.98 220.854L1349.7 184.597V112.081L1286.98 75.8229L1224.25 112.081V184.597Z" fill="#F8C85D"/>
<path opacity="0.16" d="M1445 203.321L1414.66 220.854L1351.93 184.597V112.081L1414.66 75.8449L1445 93.3563V90.7979L1414.66 73.2865L1349.7 110.802V185.876L1414.66 223.413L1445 205.879V203.321Z" fill="#F8C85D"/>
<path opacity="0.16" d="M1445 312.161L1415.76 295.267V222.773L1445 205.879V203.321L1413.56 221.494V296.546L1445 314.719V312.161Z" fill="#F8C85D"/>
<path opacity="0.16" d="M1350.83 555.446L1285.87 517.909V442.835L1350.83 405.298L1415.78 442.835V517.909L1350.83 555.446ZM1288.1 516.63L1350.83 552.888L1413.56 516.63V444.114L1350.83 407.856L1288.1 444.114V516.63Z" fill="#F8C85D"/>
<path opacity="0.16" d="M1282.55 661L1224.25 627.3V554.806L1286.98 518.549L1349.71 554.806V627.3L1291.43 661H1295.85L1351.93 628.601V553.527L1286.98 515.99L1222.04 553.527V628.601L1278.12 661H1282.55Z" fill="#F8C85D"/>
<path opacity="0.16" d="M1414.66 518.549L1445 536.082V533.524L1414.66 515.99L1349.7 553.527V628.601L1405.8 661H1410.23L1351.93 627.3V554.806L1414.66 518.549Z" fill="#F8C85D"/>
<path opacity="0.16" d="M943.12 6.8356C943.45 6.8356 943.715 6.57094 943.715 6.24013C943.715 5.90931 943.45 5.64465 943.12 5.64465C942.789 5.64465 942.525 5.90931 942.525 6.24013C942.525 6.57094 942.789 6.8356 943.12 6.8356Z" fill="#F8C85D"/>
<path opacity="0.16" d="M992.123 27.7876C988.399 27.7876 985.358 30.8091 985.358 34.5584C985.358 38.2856 988.377 41.3292 992.123 41.3292C995.846 41.3292 998.887 38.3077 998.887 34.5584C998.865 30.8311 995.846 27.7876 992.123 27.7876Z" fill="#F8C85D"/>
<path opacity="0.16" d="M992.123 95.4074C994.458 95.4074 996.353 93.5107 996.353 91.1729C996.353 88.8351 994.458 86.9384 992.123 86.9384C989.787 86.9384 987.892 88.8351 987.892 91.1729C987.892 93.5107 989.787 95.4074 992.123 95.4074Z" fill="#F8C85D"/>
<path opacity="0.16" d="M1041.1 123.284C1043.2 123.284 1044.91 121.586 1044.91 119.469C1044.91 117.374 1043.22 115.653 1041.1 115.653C1039.01 115.653 1037.29 117.352 1037.29 119.469C1037.29 121.586 1038.99 123.284 1041.1 123.284Z" fill="#F8C85D"/>
<path opacity="0.16" d="M1041.1 8.20308C1042.19 8.20308 1043.06 7.32428 1043.06 6.24021C1043.06 5.15615 1042.19 4.27734 1041.1 4.27734C1040.02 4.27734 1039.14 5.15615 1039.14 6.24021C1039.14 7.32428 1040.02 8.20308 1041.1 8.20308Z" fill="#F8C85D"/>
<path opacity="0.16" d="M1090.08 38.44C1092.22 38.44 1093.96 36.6977 1093.96 34.5584C1093.96 32.4191 1092.22 30.6768 1090.08 30.6768C1087.95 30.6768 1086.21 32.4191 1086.21 34.5584C1086.21 36.6977 1087.95 38.44 1090.08 38.44Z" fill="#F8C85D"/>
<path opacity="0.16" d="M1090.08 84.3579C1086.32 84.3579 1083.28 87.4014 1083.28 91.1728C1083.28 94.9441 1086.32 97.9877 1090.08 97.9877C1093.85 97.9877 1096.89 94.9441 1096.89 91.1728C1096.89 87.4014 1093.83 84.3579 1090.08 84.3579Z" fill="#F8C85D"/>
<path opacity="0.16" d="M1139.06 9.12923C1140.65 9.12923 1141.93 7.85006 1141.93 6.26213C1141.93 4.67419 1140.65 3.39502 1139.06 3.39502C1137.48 3.39502 1136.2 4.67419 1136.2 6.26213C1136.2 7.82801 1137.48 9.12923 1139.06 9.12923Z" fill="#F8C85D"/>
<path opacity="0.16" d="M1188.04 39.8516C1190.95 39.8516 1193.33 37.4918 1193.33 34.5585C1193.33 31.6473 1190.98 29.2654 1188.04 29.2654C1185.14 29.2654 1182.76 31.6252 1182.76 34.5585C1182.76 37.4697 1185.14 39.8516 1188.04 39.8516Z" fill="#F8C85D"/>
<path opacity="0.16" d="M1188.04 97.4805C1191.53 97.4805 1194.35 94.6565 1194.35 91.1729C1194.35 87.6893 1191.53 84.8652 1188.04 84.8652C1184.56 84.8652 1181.74 87.6893 1181.74 91.1729C1181.74 94.6565 1184.56 97.4805 1188.04 97.4805Z" fill="#F8C85D"/>
<path opacity="0.16" d="M1237.03 9.5483C1238.85 9.5483 1240.33 8.07063 1240.33 6.24009C1240.33 4.40955 1238.85 2.93188 1237.03 2.93188C1235.2 2.93188 1233.72 4.40955 1233.72 6.24009C1233.74 8.07063 1235.22 9.5483 1237.03 9.5483Z" fill="#F8C85D"/>
<path opacity="0.16" d="M1286.01 38.3518C1288.1 38.3518 1289.8 36.6536 1289.8 34.5584C1289.8 32.4632 1288.1 30.765 1286.01 30.765C1283.91 30.765 1282.22 32.4632 1282.22 34.5584C1282.22 36.6536 1283.91 38.3518 1286.01 38.3518Z" fill="#F8C85D"/>
<path opacity="0.16" d="M1286.01 93.8855C1287.5 93.8855 1288.72 92.671 1288.72 91.1728C1288.72 89.6746 1287.5 88.4601 1286.01 88.4601C1284.51 88.4601 1283.3 89.6746 1283.3 91.1728C1283.3 92.671 1284.51 93.8855 1286.01 93.8855Z" fill="#F8C85D"/>
<path opacity="0.16" d="M1335.01 8.79845C1336.42 8.79845 1337.56 7.6516 1337.56 6.2401C1337.56 4.82861 1336.42 3.68176 1335.01 3.68176C1333.6 3.68176 1332.45 4.82861 1332.45 6.2401C1332.45 7.6516 1333.6 8.79845 1335.01 8.79845Z" fill="#F8C85D"/>
<path opacity="0.16" d="M1383.99 38.5723C1386.21 38.5723 1388 36.7639 1388 34.5584C1388 32.3309 1386.19 30.5444 1383.99 30.5444C1381.76 30.5444 1379.98 32.3529 1379.98 34.5584C1379.96 36.7859 1381.76 38.5723 1383.99 38.5723Z" fill="#F8C85D"/>
<path opacity="0.16" d="M1383.99 95.7381C1386.51 95.7381 1388.55 93.6941 1388.55 91.1727C1388.55 88.6514 1386.51 86.6074 1383.99 86.6074C1381.47 86.6074 1379.43 88.6514 1379.43 91.1727C1379.43 93.6941 1381.47 95.7381 1383.99 95.7381Z" fill="#F8C85D"/>
<path opacity="0.16" d="M1432.97 10.0777C1435.08 10.0777 1436.8 8.35748 1436.8 6.24022C1436.8 4.12297 1435.08 2.40271 1432.97 2.40271C1430.85 2.40271 1429.14 4.12297 1429.14 6.24022C1429.14 8.35748 1430.85 10.0777 1432.97 10.0777Z" fill="#F8C85D"/>
<path opacity="0.16" d="M1041.1 181.2C1043.92 181.2 1046.21 178.906 1046.21 176.083C1046.21 173.26 1043.92 170.967 1041.1 170.967C1038.28 170.967 1035.99 173.26 1035.99 176.083C1035.99 178.928 1038.28 181.2 1041.1 181.2Z" fill="#F8C85D"/>
<path opacity="0.16" d="M1139.06 116.867C1137.63 116.867 1136.44 118.035 1136.44 119.491C1136.44 120.925 1137.61 122.116 1139.06 122.116C1140.52 122.116 1141.69 120.947 1141.69 119.491C1141.69 118.035 1140.5 116.867 1139.06 116.867Z" fill="#F8C85D"/>
<path opacity="0.16" d="M1139.06 180.957C1141.73 180.957 1143.91 178.796 1143.91 176.105C1143.91 173.437 1141.75 171.253 1139.06 171.253C1136.4 171.253 1134.22 173.415 1134.22 176.105C1134.22 178.774 1136.4 180.957 1139.06 180.957Z" fill="#F8C85D"/>
<path opacity="0.16" d="M1188.04 207.467C1189.74 207.467 1191.11 206.095 1191.11 204.402C1191.11 202.708 1189.74 201.336 1188.04 201.336C1186.35 201.336 1184.98 202.708 1184.98 204.402C1184.98 206.095 1186.35 207.467 1188.04 207.467Z" fill="#F8C85D"/>
<path opacity="0.16" d="M1237.03 112.323C1233.08 112.323 1229.86 115.521 1229.86 119.491C1229.86 123.439 1233.06 126.659 1237.03 126.659C1240.97 126.659 1244.19 123.461 1244.19 119.491C1244.19 115.521 1240.99 112.323 1237.03 112.323Z" fill="#F8C85D"/>
<path opacity="0.16" d="M1335.01 124.806C1337.94 124.806 1340.32 122.424 1340.32 119.491C1340.32 116.558 1337.94 114.176 1335.01 114.176C1332.08 114.176 1329.7 116.558 1329.7 119.491C1329.7 122.424 1332.06 124.806 1335.01 124.806Z" fill="#F8C85D"/>
<path opacity="0.16" d="M1383.99 209.695C1386.92 209.695 1389.28 207.313 1389.28 204.402C1389.28 201.468 1386.9 199.109 1383.99 199.109C1381.06 199.109 1378.7 201.49 1378.7 204.402C1378.7 207.335 1381.06 209.695 1383.99 209.695Z" fill="#F8C85D"/>
<path opacity="0.16" d="M1335.01 182.347C1338.45 182.347 1341.24 179.546 1341.24 176.105C1341.24 172.665 1338.45 169.864 1335.01 169.864C1331.57 169.864 1328.77 172.665 1328.77 176.105C1328.75 179.546 1331.55 182.347 1335.01 182.347Z" fill="#F8C85D"/>
<path opacity="0.16" d="M1432.97 125.159C1436.1 125.159 1438.63 122.623 1438.63 119.469C1438.63 116.337 1436.1 113.779 1432.97 113.779C1429.84 113.779 1427.28 116.315 1427.28 119.469C1427.28 122.623 1429.84 125.159 1432.97 125.159Z" fill="#F8C85D"/>
<path opacity="0.16" d="M1094.16 204.402C1094.16 202.152 1092.33 200.322 1090.08 200.322C1087.84 200.322 1086.01 202.152 1086.01 204.402C1086.01 206.651 1087.84 208.482 1090.08 208.482C1092.33 208.482 1094.16 206.651 1094.16 204.402Z" fill="#F8C85D"/>
<path opacity="0.16" d="M1237.03 179.392C1238.84 179.392 1240.31 177.92 1240.31 176.105C1240.31 174.291 1238.84 172.819 1237.03 172.819C1235.21 172.819 1233.74 174.291 1233.74 176.105C1233.74 177.92 1235.21 179.392 1237.03 179.392Z" fill="#F8C85D"/>
<path opacity="0.16" d="M1286.01 207.93C1287.94 207.93 1289.53 206.364 1289.53 204.402C1289.53 202.461 1287.97 200.873 1286.01 200.873C1284.07 200.873 1282.48 202.439 1282.48 204.402C1282.5 206.342 1284.07 207.93 1286.01 207.93Z" fill="#F8C85D"/>
<path opacity="0.16" d="M1432.97 292.819C1434.89 292.819 1436.45 291.259 1436.45 289.334C1436.45 287.41 1434.89 285.85 1432.97 285.85C1431.05 285.85 1429.49 287.41 1429.49 289.334C1429.49 291.259 1431.05 292.819 1432.97 292.819Z" fill="#F8C85D"/>
<path opacity="0.16" d="M1383.99 256.473C1381.48 256.473 1379.45 258.502 1379.45 261.016C1379.45 263.53 1381.48 265.559 1383.99 265.559C1386.5 265.559 1388.53 263.53 1388.53 261.016C1388.51 258.524 1386.48 256.473 1383.99 256.473Z" fill="#F8C85D"/>
<path opacity="0.16" d="M1432.97 180.45C1435.37 180.45 1437.31 178.505 1437.31 176.105C1437.31 173.706 1435.37 171.761 1432.97 171.761C1430.57 171.761 1428.63 173.706 1428.63 176.105C1428.63 178.505 1430.57 180.45 1432.97 180.45Z" fill="#F8C85D"/>
<path opacity="0.16" d="M1188.04 255.789C1185.16 255.789 1182.8 258.127 1182.8 261.038C1182.8 263.927 1185.14 266.287 1188.04 266.287C1190.93 266.287 1193.29 263.949 1193.29 261.038C1193.29 258.127 1190.93 255.789 1188.04 255.789Z" fill="#F8C85D"/>
<path opacity="0.16" d="M1231.61 289.334C1231.61 292.334 1234.03 294.782 1237.05 294.782C1240.04 294.782 1242.49 292.356 1242.49 289.334C1242.49 286.335 1240.07 283.887 1237.05 283.887C1234.03 283.887 1231.61 286.313 1231.61 289.334Z" fill="#F8C85D"/>
<path opacity="0.16" d="M1286.01 377.531C1287.82 377.531 1289.29 376.06 1289.29 374.245C1289.29 372.43 1287.82 370.958 1286.01 370.958C1284.19 370.958 1282.72 372.43 1282.72 374.245C1282.72 376.06 1284.19 377.531 1286.01 377.531Z" fill="#F8C85D"/>
<path opacity="0.16" d="M1237.03 350.227C1239.39 350.227 1241.3 348.312 1241.3 345.949C1241.3 343.586 1239.39 341.67 1237.03 341.67C1234.66 341.67 1232.75 343.586 1232.75 345.949C1232.75 348.312 1234.66 350.227 1237.03 350.227Z" fill="#F8C85D"/>
<path opacity="0.16" d="M1286.01 265.581C1288.52 265.581 1290.57 263.537 1290.57 261.016C1290.57 258.495 1288.52 256.451 1286.01 256.451C1283.49 256.451 1281.44 258.495 1281.44 261.016C1281.44 263.537 1283.49 265.581 1286.01 265.581Z" fill="#F8C85D"/>
<path opacity="0.16" d="M1335.01 352.433C1338.59 352.433 1341.49 349.53 1341.49 345.949C1341.49 342.368 1338.59 339.465 1335.01 339.465C1331.43 339.465 1328.53 342.368 1328.53 345.949C1328.53 349.53 1331.43 352.433 1335.01 352.433Z" fill="#F8C85D"/>
<path opacity="0.16" d="M1383.99 377.928C1386.02 377.928 1387.65 376.296 1387.65 374.267C1387.65 372.238 1386.02 370.606 1383.99 370.606C1381.96 370.606 1380.33 372.238 1380.33 374.267C1380.31 376.274 1381.96 377.928 1383.99 377.928Z" fill="#F8C85D"/>
<path opacity="0.16" d="M1335.01 295.752C1338.56 295.752 1341.42 292.885 1341.42 289.334C1341.42 285.783 1338.56 282.916 1335.01 282.916C1331.46 282.916 1328.6 285.783 1328.6 289.334C1328.57 292.885 1331.46 295.752 1335.01 295.752Z" fill="#F8C85D"/>
<path opacity="0.16" d="M1432.97 348.86C1434.58 348.86 1435.88 347.556 1435.88 345.949C1435.88 344.341 1434.58 343.037 1432.97 343.037C1431.36 343.037 1430.06 344.341 1430.06 345.949C1430.06 347.556 1431.36 348.86 1432.97 348.86Z" fill="#F8C85D"/>
<path opacity="0.16" d="M943.12 464.691C946.161 464.691 948.628 462.221 948.628 459.177C948.628 456.134 946.161 453.664 943.12 453.664C940.079 453.664 937.612 456.134 937.612 459.177C937.612 462.221 940.079 464.691 943.12 464.691Z" fill="#F8C85D"/>
<path opacity="0.16" d="M943.12 521.835C946.447 521.835 949.157 519.122 949.157 515.792C949.157 512.462 946.447 509.749 943.12 509.749C939.793 509.749 937.083 512.462 937.083 515.792C937.105 519.122 939.793 521.835 943.12 521.835Z" fill="#F8C85D"/>
<path opacity="0.16" d="M1286.01 541.066C1284.33 541.066 1282.99 542.412 1282.99 544.088C1282.99 545.764 1284.33 547.109 1286.01 547.109C1287.68 547.109 1289.02 545.764 1289.02 544.088C1289.02 542.412 1287.68 541.066 1286.01 541.066Z" fill="#F8C85D"/>
<path opacity="0.16" d="M1286.01 434.388C1287.94 434.388 1289.53 432.8 1289.53 430.859C1289.53 428.918 1287.94 427.33 1286.01 427.33C1284.07 427.33 1282.48 428.918 1282.48 430.859C1282.48 432.822 1284.07 434.388 1286.01 434.388Z" fill="#F8C85D"/>
<path opacity="0.16" d="M1335.01 452.274C1331.2 452.274 1328.11 455.362 1328.11 459.177C1328.11 462.993 1331.2 466.08 1335.01 466.08C1338.82 466.08 1341.91 462.993 1341.91 459.177C1341.88 455.362 1338.8 452.274 1335.01 452.274Z" fill="#F8C85D"/>
<path opacity="0.16" d="M1383.99 434.608C1386.06 434.608 1387.73 432.932 1387.73 430.859C1387.73 428.786 1386.06 427.11 1383.99 427.11C1381.92 427.11 1380.24 428.786 1380.24 430.859C1380.24 432.932 1381.92 434.608 1383.99 434.608Z" fill="#F8C85D"/>
<path opacity="0.16" d="M1432.97 464.801C1436.08 464.801 1438.59 462.287 1438.59 459.177C1438.59 456.068 1436.08 453.553 1432.97 453.553C1429.86 453.553 1427.35 456.068 1427.35 459.177C1427.35 462.287 1429.86 464.801 1432.97 464.801Z" fill="#F8C85D"/>
<path opacity="0.16" d="M1432.97 508.293C1428.83 508.293 1425.48 511.646 1425.48 515.792C1425.48 519.938 1428.83 523.29 1432.97 523.29C1437.11 523.29 1440.46 519.938 1440.46 515.792C1440.46 511.646 1437.09 508.293 1432.97 508.293Z" fill="#F8C85D"/>
<path opacity="0.16" d="M1290.08 600.724C1290.08 598.475 1288.25 596.644 1286.01 596.644C1283.76 596.644 1281.93 598.475 1281.93 600.724C1281.93 602.974 1283.76 604.804 1286.01 604.804C1288.25 604.782 1290.08 602.952 1290.08 600.724Z" fill="#F8C85D"/>
<path opacity="0.16" d="M1383.99 549.403C1386.92 549.403 1389.28 547.021 1389.28 544.11C1389.28 541.177 1386.9 538.817 1383.99 538.817C1381.06 538.817 1378.7 541.199 1378.7 544.11C1378.68 547.021 1381.06 549.403 1383.99 549.403Z" fill="#F8C85D"/>
<path opacity="0.16" d="M1383.99 595.431C1381.06 595.431 1378.7 597.791 1378.7 600.724C1378.7 603.658 1381.06 606.017 1383.99 606.017C1386.92 606.017 1389.28 603.658 1389.28 600.724C1389.28 597.791 1386.9 595.431 1383.99 595.431Z" fill="#F8C85D"/>
</g>
</g>
</g>
</g>
<defs>
<clipPath id="clip0">
<rect width="1440" height="603" fill="white"/>
</clipPath>
</defs>
</svg>
