<svg fill="none" height="120" viewBox="0 0 120 120" width="120" xmlns="http://www.w3.org/2000/svg" xmlns:xlink="http://www.w3.org/1999/xlink"><clipPath id="a"><path d="m0 0h120v120h-120z"/></clipPath><g clip-path="url(#a)"><path d="m60.4994 72c-.177 0-.3533-.0622-.4934-.1852-.4934-.4316-12.0746-10.6374-12.0057-16.1097.0465-3.6971 3.3092-6.7051 7.2739-6.7051 1.995 0 3.8558.7446 5.2252 2.0684 1.3687-1.3236 3.2296-2.0684 5.2245-2.0684 3.9502 0 7.1448 2.9387 7.2732 6.6894.214 6.2235-11.5275 15.7431-12.0274 16.1454-.1371.1101-.304.1652-.4703.1652zm-5.2252-21.5363c-3.1546 0-5.7514 2.3598-5.7876 5.2601-.0479 3.8072 7.5411 11.4364 11.0325 14.576 3.5263-2.9353 11.1429-10.2079 10.9934-14.5603-.1016-2.9588-2.6438-5.2758-5.7884-5.2758-1.8396 0-3.5329.784-4.6446 2.1512-.2817.3473-.8782.3473-1.1597 0-1.1127-1.3672-2.8059-2.1512-4.6456-2.1512z" fill="#e74762"/><path d="m120 59.8828c0-7.4029-10.246-13.7768-28.1085-17.4875-9.5114-1.9757-20.539-3.0203-31.8915-3.0203-.9824 0-1.9601.0082-2.9343.0238 5.0327-4.3698 10.1212-8.2608 15.0476-11.4926 13.1287-8.6124 24.0519-11.7398 27.8266-7.9633 2.7791 2.7787 1.8881 9.4391-2.4463 18.273-.4276.8716-.0678 1.9245.8038 2.352.8725.4276 1.9256.0678 2.3526-.8038 5.186-10.5707 5.8-18.284 1.776-22.3077-5.2336-5.235-16.9853-2.4976-32.2408 7.51-6.0965 3.9991-12.4264 8.974-18.5989 14.6009-9.6057.4412-18.6575 1.6351-26.4798 3.4927-.7306-1.2607-1.4117-2.504-2.038-3.7253-4.7561-9.2715-5.8804-16.5207-3.0084-19.3927 1.81-1.81 4.9942-1.7935 7.8397-1.2771-.0815.4458-.1264.9045-.1264 1.3742 0 4.2004 3.4168 7.6171 7.6172 7.6171 2.6688 0 5.0199-1.3806 6.3803-3.4643 3.761 2.0911 7.7243 4.6701 11.8058 7.6849.314.2317.6793.3434 1.0427.3434.5384 0 1.0703-.2463 1.4145-.7132.5777-.781.412-1.8815-.3689-2.4582-4.3863-3.2401-8.6536-5.9995-12.6984-8.2132.0275-.2619.0412-.5274.0412-.7965 0-4.2005-3.4167-7.6172-7.6172-7.6172-2.4435 0-4.6206 1.1581-6.015 2.9526-5.3073-1.1417-9.2752-.445-11.8021 2.0819-2.1981 2.1991-3.0139 5.5215-2.4224 9.8767.5218 3.8507 2.1331 8.4283 4.7891 13.6065.5108.9961 1.0565 2.006 1.6342 3.0268-1.1298.314-2.2302.6418-3.2959.9851-5.5389 1.7834-9.91607 3.8809-13.00781 6.2347-3.49731 2.6615-5.27069 5.5875-5.27069 8.6966 0 5.5225 5.57831 10.4343 16.1307 14.2035.3406.1218.6866.2426 1.0364.3607.1876.0641.3781.0943.5648.0943.7325 0 1.4164-.4614 1.6645-1.1929.3122-.9201-.1795-1.918-1.0987-2.2302-.3323-.1126-.6601-.2271-.9842-.3424-8.76888-3.1321-13.79788-7.1027-13.79788-10.893 0-4.0604 5.92164-8.3917 15.83958-11.5851 1.3073-.4202 2.6678-.8185 4.075-1.1929 2.5598 4.1537 5.6122 8.454 9.0646 12.7817-3.3105 4.1519-6.2686 8.2937-8.7854 12.3285-5.0784 8.1408-8.0429 15.3085-8.6334 20.8383-2.6029 1.2131-4.4119 3.8525-4.4119 6.9076 0 4.2001 3.4167 7.6171 7.6171 7.6171 2.3191 0 4.3982-1.043 5.7963-2.682.2444.012.4934.019.747.019 7.3883 0 18.4241-5.0456 30.7233-14.1112.7809-.5758.9476-1.6763.3717-2.4582-.5759-.7809-1.6763-.9475-2.4582-.3717-11.0532 8.1473-21.1349 12.9901-27.6956 13.3991.086-.458.1327-.93.1327-1.4111 0-4.0567-3.186-7.381-7.1869-7.6044 1.2122-7.6071 7.1302-18.3957 16.0557-29.6869 3.2867 3.934 6.8865 7.869 10.7318 11.7142 11.1264 11.1264 23.0035 20.2029 33.4451 25.5587 5.1773 2.6555 9.7549 4.2675 13.6056 4.7895.9165.124 1.7872.186 2.6111.186 3.0927 0 5.5302-.873 7.2652-2.609 5.235-5.2348 2.498-16.9865-7.5096-32.2419-.1602-.2436-.3205-.4899-.4816-.737-1.0226-1.5683-2.0801-3.1897-3.3499-4.769-9.7147-12.0822-16.4255-18.1549-16.7065-18.4076-.7215-.6491-1.832-.5905-2.482.1318-.6491.7215-.5906 1.832.1309 2.482.0668.0604 6.8005 6.1606 16.3183 17.9974 1.16 1.442 2.1689 2.9892 3.144 4.4861.1629.25.325.4981.487.7453 8.6134 13.1286 11.7394 24.0518 7.9642 27.8265-2.872 2.8724-10.1221 1.7464-19.3918-3.0075-10.1248-5.1938-21.6897-14.0424-32.5644-24.917-3.9477-3.9477-7.6263-7.9861-10.9616-12.0135 3.3215-4.0101 7.0001-8.0549 10.9616-12.0173 1.6608-1.6607 3.3435-3.2748 5.0391-4.8431 2.297-.0888 4.6252-.1346 6.9763-.1346 11.1163 0 21.8967 1.019 31.1765 2.9471 15.3735 3.1925 25.3075 8.7067 25.3075 14.0451 0 2.0197-1.443 3.8306-3.046 5.2185-1.398-1.6836-3.505-2.7575-5.86-2.7575-4.2 0-7.6171 3.4167-7.6171 7.6171 0 4.2005 3.4171 7.6172 7.6171 7.6172 4.201 0 7.617-3.4167 7.617-7.6172 0-.5529-.06-1.0922-.173-1.6122 3.301-2.5974 4.978-5.441 4.978-8.4659zm-84.6094-43.9453c2.2614 0 4.1016 1.8402 4.1016 4.1016 0 2.2613-1.8402 4.1015-4.1016 4.1015-2.2613 0-4.1015-1.8402-4.1015-4.1015 0-2.2614 1.8402-4.1016 4.1015-4.1016zm-13.0078 84.0234c0 2.2611-1.8402 4.1011-4.1016 4.1011-2.2613 0-4.1015-1.84-4.1015-4.1011 0-1.8914 1.29-3.4845 3.034-3.956.0119-.0027.0238-.0054.0358-.0082.3305-.0861.6747-.1373 1.0317-.1373 2.2614 0 4.1016 1.8402 4.1016 4.1015zm23.1162-54.5791c-3.8388 3.8388-7.4387 7.771-10.7318 11.7151-2.9059-3.6795-5.5088-7.3307-7.7454-10.8738 6.2045-1.4025 13.1772-2.3858 20.5774-2.904-.7031.6811-1.4044 1.3669-2.1002 2.0627zm62.079 28.6807c-2.261 0-4.101-1.8402-4.101-4.1016 0-2.2613 1.84-4.1015 4.101-4.1015s4.102 1.8402 4.102 4.1015c0 2.2614-1.841 4.1016-4.102 4.1016z" fill="#e74762"/><g fill="#9e9e9e"><path d="m63.3667 4c-2.959 0-5.3667 2.40772-5.3667 5.36667 0 2.95893 2.4077 5.36663 5.3667 5.36663 2.9589 0 5.3666-2.4077 5.3666-5.36663 0-2.95895-2.4077-5.36667-5.3666-5.36667zm0 7.6667c-1.2685 0-2.3-1.0316-2.3-2.30003 0-1.26845 1.0315-2.3 2.3-2.3 1.2684 0 2.3 1.03155 2.3 2.3 0 1.26843-1.0316 2.30003-2.3 2.30003z"/><path d="m36.7361 111.472c.9589 0 1.7361-.777 1.7361-1.736s-.7772-1.736-1.7361-1.736c-.9588 0-1.7361.777-1.7361 1.736s.7773 1.736 1.7361 1.736z"/><path d="m49.4901 19.3946c.9588 0 1.7361-.7773 1.7361-1.7361s-.7773-1.7361-1.7361-1.7361-1.7361.7773-1.7361 1.7361.7773 1.7361 1.7361 1.7361z"/><path d="m76.7361 108.472c.9588 0 1.7361-.777 1.7361-1.736s-.7773-1.736-1.7361-1.736-1.7361.777-1.7361 1.736.7773 1.736 1.7361 1.736z"/><path d="m10.7576 32.8241c-.5988-.5988-1.5694-.5988-2.16816 0l-1.73267 1.7326-1.73267-1.7326c-.59876-.5988-1.56936-.5988-2.16813 0-.59876.5987-.59876 1.5693 0 2.1681l1.73267 1.7327-1.73267 1.7327c-.59876.5987-.59876 1.5693 0 2.1681.29939.2994.69192.4493 1.08407.4493s.78468-.1499 1.08406-.4493l1.73267-1.7327 1.73267 1.7327c.29938.2994.69191.4493 1.08406.4493.3922 0 .7847-.1499 1.0841-.4493.5987-.5988.5987-1.5694 0-2.1681l-1.7327-1.7327 1.7327-1.7327c.5987-.5988.5987-1.569 0-2.1681z"/><path d="m61.7576 105.824c-.5987-.599-1.5693-.599-2.1681 0l-1.7327 1.733-1.7326-1.733c-.5988-.599-1.5694-.599-2.1682 0-.5987.599-.5987 1.569 0 2.168l1.7327 1.733-1.7327 1.733c-.5987.598-.5987 1.569 0 2.168.2994.299.6919.449 1.0841.449.3921 0 .7847-.15 1.0841-.449l1.7326-1.733 1.7327 1.733c.2994.299.6919.449 1.0841.449.3921 0 .7846-.15 1.084-.449.5988-.599.5988-1.57 0-2.168l-1.7326-1.733 1.7326-1.733c.5988-.599.5988-1.569 0-2.168z"/></g></g></svg>