<svg fill="none" height="35" viewBox="0 0 36 35" width="36" xmlns="http://www.w3.org/2000/svg"><ellipse cx="18" cy="17.0526" fill="#fef8eb" rx="18" ry="17.0526"/><g stroke="#f5b521" stroke-linecap="round" stroke-linejoin="round" stroke-width="2"><path d="m26 17.5v10h-16v-10"/><path d="m8 12.5h20v5h-20z"/><path d="m18 27.5v-15"/><path d="m18 12.5h-4.5c-.663 0-1.2989-.2634-1.7678-.7322-.4688-.4689-.7322-1.1048-.7322-1.7678 0-.66304.2634-1.29893.7322-1.76777.4689-.46884 1.1048-.73223 1.7678-.73223 3.5 0 4.5 5 4.5 5z"/><path d="m18 12.5h4.5c.663 0 1.2989-.2634 1.7678-.7322.4688-.4689.7322-1.1048.7322-1.7678 0-.66304-.2634-1.29893-.7322-1.76777-.4689-.46884-1.1048-.73223-1.7678-.73223-3.5 0-4.5 5-4.5 5z"/></g></svg>