<svg fill="none" height="120" viewBox="0 0 120 120" width="120" xmlns="http://www.w3.org/2000/svg"><g fill="#9e9e9e"><path d="m18.1636 21.5999c3.0876 0 5.6-2.5124 5.6-5.6s-2.5124-5.6-5.6-5.6-5.6 2.5124-5.6 5.6 2.5124 5.6 5.6 5.6zm0-8c1.3236 0 2.4 1.0764 2.4 2.4s-1.0764 2.4-2.4 2.4-2.4-1.0764-2.4-2.4 1.0764-2.4 2.4-2.4z"/><path d="m96.5636 98.3999c-3.0876 0-5.6 2.5121-5.6 5.6001 0 3.087 2.5124 5.6 5.6 5.6s5.6004-2.513 5.6004-5.6c0-3.088-2.5128-5.6001-5.6004-5.6001zm0 8.0001c-1.3236 0-2.4-1.076-2.4-2.4s1.0764-2.4 2.4-2.4 2.4 1.076 2.4 2.4-1.0764 2.4-2.4 2.4z"/><path d="m94.0932 19.2705c.3124.3124.722.4688 1.1312.4688s.8188-.1564 1.1312-.4688l1.808-1.808 1.808 1.808c.3124.3124.7224.4688 1.1314.4688s.819-.1564 1.131-.4688c.625-.6248.625-1.6376 0-2.2624l-1.808-1.808 1.808-1.808c.625-.6248.625-1.6376 0-2.2624s-1.638-.6248-2.2624 0l-1.808 1.808-1.808-1.808c-.6248-.6248-1.6376-.6248-2.2624 0s-.6248 1.6376 0 2.2624l1.808 1.808-1.808 1.808c-.6248.6248-.6248 1.6372 0 2.2624z"/><path d="m20.634 97.5296c-.6248-.6248-1.6376-.6248-2.2624 0l-1.808 1.808-1.808-1.808c-.6248-.6248-1.6376-.6248-2.2624 0s-.6248 1.6376 0 2.2624l1.808 1.808-1.808 1.808c-.6248.625-.6248 1.638 0 2.262.3124.313.722.469 1.1312.469s.8188-.156 1.1312-.469l1.808-1.808 1.808 1.808c.3124.313.722.469 1.1312.469s.8188-.156 1.1312-.469c.6248-.624.6248-1.637 0-2.262l-1.808-1.808 1.808-1.808c.6248-.6248.6248-1.6372 0-2.2624z"/><path d="m37.3636 17.8116c1.0004 0 1.812-.8112 1.812-1.8116 0-1.0008-.8112-1.812-1.812-1.812s-1.812.8112-1.812 1.812c.0004 1.0004.8116 1.8116 1.812 1.8116z"/><path d="m106.164 84.5879c-1.001 0-1.812.8112-1.812 1.812 0 1.0004.811 1.8116 1.812 1.8116 1 0 1.812-.8112 1.812-1.8116 0-1.0008-.812-1.812-1.812-1.812z"/><path d="m14.1636 58.6119c1.0004 0 1.812-.8112 1.812-1.8116 0-1.0008-.8112-1.812-1.812-1.812s-1.812.8112-1.812 1.812c.0004 1.0004.8116 1.8116 1.812 1.8116z"/></g><path d="m107.974 49.4506c0-3.1744-2.582-5.7564-5.758-5.7564-3.1732 0-5.756 2.582-5.756 5.7564 0 2.6152 1.764 4.8036 4.156 5.5024v13.0468h-6.4528v-19.2c0-.1936-.0472-.3744-.11-.546.0628-.172.11-.3524.11-.546v-5.2132c0-10.6392-8.6548-19.2944-19.2936-19.2944h-35.0124c-10.6392 0-19.2936 8.6556-19.2936 19.2944v5.5048c0 .1724.0476.33.098.4856-.0216.1052-.0636.2036-.0636.3152v33.4296c-.0064.0588-.0344.11-.0344.1704s.028.1116.0344.1704v9.4884c0 .8836.7156 1.6 1.6 1.6h4.632c2.4352 6.692 8.7276 11.141 15.9148 11.141h29.572c7.1872 0 13.4796-4.449 15.9148-11.1418h4.332c.8844 0 1.6-.7164 1.6-1.6v-12.8584h8.0534c.884 0 1.6-.7164 1.6-1.6v-8-14.6464c2.393-.6984 4.157-2.8872 4.157-5.5028zm-8.3136 0c0-1.4092 1.1466-2.5564 2.5566-2.5564 1.411 0 2.558 1.1468 2.558 2.5564 0 1.41-1.147 2.5572-2.558 2.5572-1.41 0-2.5566-1.1472-2.5566-2.5572zm-27.8968 31.3492v-20.8h9.6v20.8zm11.2-24h-12.8c-.8844 0-1.6.7164-1.6 1.6v22.4h-3.2v-22.4c0-.8836-.7156-1.6-1.6-1.6h-12.8c-.8844 0-1.6.7164-1.6 1.6v22.4h-3.2v-22.4c0-.8836-.7156-1.6-1.6-1.6h-12.8c-.8844 0-1.6.7164-1.6 1.6v22.4h-6.3656v-30.4h67.1656v30.4h-6.4v-22.4c0-.8836-.7156-1.6-1.6-1.6zm-30.4 24v-20.8h9.6v20.8zm-19.2 0v-20.8h9.6v20.8zm-4.3208-33.6c.5032-7.1276 6.4484-12.7764 13.7024-12.7764h29.572c7.254 0 13.1988 5.6492 13.7024 12.7764zm10.8144-20.8h35.0124c8.8736 0 16.0936 7.2204 16.0936 16.0944v4.7056h-1.7448c-.5092-8.8928-7.884-15.9764-16.9024-15.9764h-29.572c-9.018 0-16.3928 7.084-16.9024 15.9764h-2.0792v-4.7056c.0012-8.874 7.2216-16.0944 16.0948-16.0944zm32.4596 75.2002h-29.572c-5.4272 0-10.2092-3.135-12.442-7.9418h54.4564c-2.2332 4.8068-7.0156 7.9418-12.4424 7.9418zm-48.5188-11.1418v-6.4584h67.1656v6.4584zm76.819-14.4584h-6.4534v-4.8h6.4534z" fill="#e74762"/><path d="m76.5636 63.2002c-.8844 0-1.6.7164-1.6 1.6v11.2c0 .8836.7156 1.6 1.6 1.6s1.6-.7164 1.6-1.6v-11.2c0-.8836-.7156-1.6-1.6-1.6z" fill="#e74762"/><path d="m57.3636 63.2002c-.8844 0-1.6.7164-1.6 1.6v11.2c0 .8836.7156 1.6 1.6 1.6s1.6-.7164 1.6-1.6v-11.2c0-.8836-.7156-1.6-1.6-1.6z" fill="#e74762"/><path d="m38.1636 63.2002c-.8844 0-1.6.7164-1.6 1.6v11.2c0 .8836.7156 1.6 1.6 1.6s1.6-.7164 1.6-1.6v-11.2c0-.8836-.7156-1.6-1.6-1.6z" fill="#e74762"/><path d="m50.1636 43.2481c.9102 0 1.648-.7378 1.648-1.648 0-.9101-.7378-1.648-1.648-1.648s-1.648.7379-1.648 1.648c0 .9102.7378 1.648 1.648 1.648z" fill="#e74762"/><path d="m56.5636 43.2481c.9102 0 1.648-.7378 1.648-1.648 0-.9101-.7378-1.648-1.648-1.648s-1.648.7379-1.648 1.648c0 .9102.7378 1.648 1.648 1.648z" fill="#e74762"/><path d="m62.9636 43.2481c.9101 0 1.648-.7378 1.648-1.648 0-.9101-.7379-1.648-1.648-1.648-.9102 0-1.648.7379-1.648 1.648 0 .9102.7378 1.648 1.648 1.648z" fill="#e74762"/></svg>