<svg fill="none" height="120" viewBox="0 0 120 120" width="120" xmlns="http://www.w3.org/2000/svg"><path d="m70.0781 59.6063v-8.2919c2.3438-.5219 4.1172-2.6065 4.1172-5.1425 0-2.9334-2.4354-5.2735-5.3714-5.2735h-7.1503c-.2957-6.6787-5.8154-12.0236-12.5656-12.0236-6.9919 0-12.6801-5.6882-12.6801-12.6791 0-6.9919 5.6882-12.68008 12.6801-12.68008 3.6355 0 7.1017 1.56464 9.5096 4.29291.6427.72785 1.7532.79651 2.481.15473.7279-.6427.7975-1.75324.1548-2.48108-3.0753-3.4845-7.5019-5.48218-12.1454-5.48218-8.9301 0-16.1957 7.26471-16.1957 16.1957 0 8.93 7.2656 16.1947 16.1957 16.1947 4.812 0 8.7561 3.7684 9.0481 8.508h-7.3132c-2.915 0-5.2734 2.3584-5.2734 5.2735 0 2.5259 1.7633 4.617 4.1162 5.1416l-.0092 8.2965c-12.4695 4.3378-20.8484 16.1261-20.8484 29.3344-.0009 17.1266 13.9215 31.0556 31.0538 31.0556h.1016c17.0682-.054 30.954-13.986 30.954-31.0547 0-13.2074-8.3771-24.9957-20.8594-29.339zm-10.1065 56.8777c-.0293 0-.0586 0-.0888 0-15.184-.001-27.54-12.35-27.539-27.5396 0-11.7133 7.4295-22.1677 18.4872-26.0147 1.4191-.4935 2.3721-1.8283 2.3721-3.3225v-8.1619h3.1238c.0147 0 .0311.0046.0421 0 .9686-.0027 1.756-.7901 1.756-1.7578 0-.9705-.7874-1.7578-1.7578-1.7578h-5.5243c-.9677-.0028-1.756-.7901-1.7578-1.7578.0018-.9677.7901-1.7551 1.7578-1.7578h17.9837c.9586 0 1.853.7397 1.853 1.7578-.0018.9677-.7892 1.755-1.7578 1.7578h-5.5215c-.9677 0-1.7578.7873-1.7578 1.7578s.7901 1.7578 1.7578 1.7578h.0045 3.1577v8.161c0 1.4942.954 2.8308 2.3749 3.3252 11.0559 3.8471 18.4845 14.3015 18.4845 26.0138 0 15.1377-12.3139 27.4917-27.4503 27.5387z" fill="#e74762"/><path d="m63.5458 16.2888c.9128 0 1.7578-.7095 1.7578-1.8127 0-.9714-.7873-1.7578-1.7578-1.7578-.9713 0-1.7578.7864-1.7578 1.7578v.0549c0 .9705.7865 1.7578 1.7578 1.7578z" fill="#e74762"/><path d="m83.7603 81.9486-2.8226-2.8282c-.2563-.2578-.649-.3112-.9632-.1365l-1.4315.7965c-.7388.4106-1.6051.5611-2.3655.4376l-2.8668-.762c.5337-.4914 1.085-.971 1.6671-1.4236.1849-.1436.3001-.3617.3159-.5973.015-.2359-.0707-.4672-.2348-.6347l-4.4864-4.5581c-.2586-.2612-.6539-.3175-.972-.1381l-2.2732 1.283c-1.2672.7151-2.7511.9763-4.1809.7338l-1.9759-.3349c-1.0457-.1769-2.113-.2665-3.1731-.2665h-10.4345c-.4491 0-.8125.3681-.8125.8221v5.6132l-2.2313-.593c-.0674-.0177-.1365-.0269-.2063-.0269h-6.5003c-.4491 0-.8125.3681-.8125.8221v8.2217c0 .454.3634.8222.8125.8222h1.8823c.3467 0 .6555-.2228.768-.5544l.4254-1.2505c.3697-.9282 1.2553-1.5276 2.2557-1.5276h.6054c-1.5052 2.2639-4.2404 7.1021-4.2404 12.3763 0 .4541.3634.8222.8125.8222h8.7822c.2643 0 .5111-.1297.6635-.3476.1523-.2179.1905-.4974.1024-.7492-.0169-.0489-1.6261-4.8023.0402-10.4136h.6445c.3451 0 .6523-.2203.7664-.55l.6864-1.9804c.6634-1.684 2.2448-2.7723 4.0293-2.7723h1.9306c-2.1187 3.2163-7.1541 11.8182-7.1541 20.9241 0 .454.3634.822.8125.822h13.813c.2523 0 .4896-.118.6436-.32.1539-.202.2063-.465.1419-.711-.0172-.067-1.6522-6.5802.7478-13.768h1.1613c.3467 0 .6555-.2224.768-.5544l.4254-1.2505c.3697-.9282 1.2553-1.5276 2.2558-1.5276h.6053c-1.5052 2.2639-4.2404 7.1021-4.2404 12.3763 0 .4541.3634.8222.8125.8222h8.7823c.2602 0 .5045-.126.6569-.3387.1532-.2128.196-.487.1158-.7371-.0301-.0927-2.8796-9.332 5.318-14.7709.2056-.1361.3388-.3584.3634-.6053s-.062-.4917-.2356-.6664zm-35.7284 15.4743h-6.8732c.3705-6.2117 4.7673-11.8019 4.8141-11.86.196-.2465.2356-.5854.1007-.8707-.1357-.2859-.4205-.4676-.7331-.4676h-2.1965c-1.6663 0-3.1438 1.0032-3.7778 2.5962l-.2507.7362h-.4903v-6.5773h5.5828l2.5425.6758v5.0794c0 .454.3634.8221.8125.8221h.6506c-1.17 4.3255-.6008 8.0824-.1816 9.8659zm16.4046 4.9331h-11.9832c.3721-10.4318 7.6475-20.3278 7.7231-20.4296.1848-.2489.2157-.5825.0778-.8614-.1373-.2789-.4189-.4553-.7268-.4553h-3.4906c-2.4543 0-4.6276 1.4945-5.5504 3.8404l-.5079 1.4624h-1.6031v-10.7484h9.6218c.9703 0 1.948.0822 2.905.2442l1.9758.3348c1.7894.3028 3.6518-.0232 5.2411-.9194l1.7361-.98 3.4104 3.4652c-.768.638-1.4948 1.3116-2.1694 2.01-.0047.0048-.0059.0113-.0104.0161h-4.8347c-.4492 0-.8126.3681-.8126.8221v8.2217c0 .059.0216.111.0333.1667-2.0583 6.0526-1.4351 11.5815-1.0353 13.8105zm12.0768-4.9331h-6.916c.3705-6.2117 4.7673-11.8019 4.814-11.86.196-.2465.2356-.5854.1008-.8707-.1357-.2859-.4205-.4676-.7332-.4676h-2.1962c-1.6663 0-3.1439 1.0032-3.7779 2.5962l-.2506.7362h-.4904v-6.5773h5.5829l3.1922.845c1.1918.1971 2.4313-.0152 3.4874-.6035l.8991-.5003 1.6987 1.7021c-6.602 4.9657-5.9402 12.2742-5.4108 14.9999z" fill="#e74762"/><g fill="#9e9e9e"><path d="m24.1568 30.0249c-2.9589 0-5.3666 2.4077-5.3666 5.3667 0 2.9589 2.4077 5.3666 5.3666 5.3666 2.959 0 5.3667-2.4077 5.3667-5.3666 0-2.959-2.4077-5.3667-5.3667-5.3667zm0 7.6667c-1.2684 0-2.3-1.0316-2.3-2.3 0-1.2685 1.0316-2.3 2.3-2.3 1.2685 0 2.3 1.0315 2.3 2.3 0 1.2684-1.0315 2.3-2.3 2.3z"/><path d="m83.3667 50c-2.959 0-5.3667 2.4077-5.3667 5.3667 0 2.9589 2.4077 5.3666 5.3667 5.3666 2.9589 0 5.3666-2.4077 5.3666-5.3666 0-2.959-2.4077-5.3667-5.3666-5.3667zm0 7.6667c-1.2685 0-2.3-1.0316-2.3-2.3 0-1.2685 1.0315-2.3 2.3-2.3 1.2684 0 2.3 1.0315 2.3 2.3 0 1.2684-1.0316 2.3-2.3 2.3z"/><path d="m26.7361 101.472c.9589 0 1.7361-.777 1.7361-1.7359 0-.9588-.7772-1.7361-1.7361-1.7361-.9588 0-1.7361.7773-1.7361 1.7361 0 .9589.7773 1.7359 1.7361 1.7359z"/><path d="m39.4901 49.3946c.9588 0 1.7361-.7773 1.7361-1.7361s-.7773-1.7361-1.7361-1.7361-1.7361.7773-1.7361 1.7361.7773 1.7361 1.7361 1.7361z"/><path d="m96.7361 48.4722c.9588 0 1.7361-.7772 1.7361-1.7361 0-.9588-.7773-1.7361-1.7361-1.7361s-1.7361.7773-1.7361 1.7361c0 .9589.7773 1.7361 1.7361 1.7361z"/><path d="m25.7576 69.8241c-.5988-.5988-1.5694-.5988-2.1682 0l-1.7326 1.7326-1.7327-1.7326c-.5988-.5988-1.5694-.5988-2.1681 0-.5988.5987-.5988 1.5693 0 2.1681l1.7326 1.7327-1.7326 1.7327c-.5988.5987-.5988 1.5693 0 2.1681.2994.2994.6919.4493 1.084.4493.3922 0 .7847-.1499 1.0841-.4493l1.7327-1.7327 1.7326 1.7327c.2994.2994.692.4493 1.0841.4493.3922 0 .7847-.1499 1.0841-.4493.5987-.5988.5987-1.5694 0-2.1681l-1.7327-1.7327 1.7327-1.7327c.5987-.5988.5987-1.569 0-2.1681z"/><path d="m94.7576 23.8241c-.5987-.5988-1.5693-.5988-2.1681 0l-1.7327 1.7326-1.7326-1.7326c-.5988-.5988-1.5694-.5988-2.1682 0-.5987.5987-.5987 1.5693 0 2.1681l1.7327 1.7327-1.7327 1.7326c-.5987.5988-.5987 1.5694 0 2.1682.2994.2994.6919.4492 1.0841.4492.3921 0 .7847-.1498 1.0841-.4492l1.7326-1.7327 1.7327 1.7327c.2994.2994.6919.4492 1.0841.4492.3921 0 .7846-.1498 1.084-.4492.5988-.5988.5988-1.5694 0-2.1682l-1.7326-1.7326 1.7326-1.7327c.5988-.5988.5988-1.569 0-2.1681z"/></g></svg>