<svg fill="none" height="35" viewBox="0 0 36 35" width="36" xmlns="http://www.w3.org/2000/svg"><ellipse cx="18" cy="17.0526" fill="#fef8eb" rx="18" ry="17.0526"/><g stroke="#f5b521" stroke-linecap="round" stroke-linejoin="round"><path d="m23.9565 13h-6-5-3.9565m14.9565 0v-2.2163-2.7837h-14.9565v5m14.9565 0v8m-14.9565-8 .00003 13h14.95647v-5m4-5c-.5753 0-1-.4246-1-1s.4247-1 1-1c.5754 0 1 .4246 1 1s-.4246 1-1 1zm0 0v5h-4" stroke-width="2"/><path d="m11.5 17.5h2l-1.5 4"/><path d="m15.5 17.5h2l-1.5 4"/><path d="m19.5 17.5h2l-1.5 4"/></g></svg>