<svg fill="none" height="120" viewBox="0 0 120 120" width="120" xmlns="http://www.w3.org/2000/svg" xmlns:xlink="http://www.w3.org/1999/xlink"><clipPath id="a"><path d="m0 0h120v120h-120z"/></clipPath><g clip-path="url(#a)" fill="#e74762"><path d="m76.8037 5c-22.7155 0-41.1963 18.4808-41.1963 41.1963 0 14.3719 7.4499 27.6192 19.6532 35.1127l-.0059.0033c-.8224.595-1.8027.9106-2.8316.9131-1.8244-.0033-2.7736-.9332-2.9885-1.0356-.0008-.0025-.1309-.1083-.1334-.1099-1.3696-1.0818-2.6839-2.2517-3.9075-3.4761-1.2227-1.222-2.3935-2.537-3.4761-3.9075-.6923-.8871-1.1279-1.8178-1.143-3.075-.0084-.8786-.7301-1.5962-1.6088-1.5962l-.0176.0025c-.8821.0042-1.6005.7268-1.5963 1.6223v.0042c.0193 1.9185.7318 3.7111 1.8128 5.0102.1552.2148 1.7565 2.2273 3.7514 4.2197.9273.9265 1.9033 1.8211 2.9129 2.6771l-.0042.0017c-.031.0378-22.0584 26.4912-22.0877 26.5302-2.4548 3.068-6.9355 3.595-10.0314 1.124-1.7036-1.362-2.6805-3.396-2.683-5.583 0-1.587.4926-3.177 1.7556-4.6991.0336-.0596.4658-.4943 3.7397-3.2226 3.0741-2.5723 9.0326-7.5212 20.0174-16.6588.6814-.5673.7754-1.5853.2064-2.2685-.5656-.6848-1.5861-.7746-2.2693-.2089-12.2385 10.1824-18.3204 15.2304-21.2351 17.6801-1.832 1.5417-5.43739 3.9922-5.43739 9.3778-.00503 3.052 1.34865 6.071 3.89489 8.102 1.8463 1.475 4.1198 2.264 6.4545 2.264h.0126c3.0179 0 6.0408-1.326 8.0928-3.895 0 0 0 0 0-.002l22.1599-26.6167c1.1657.6244 2.4766.9601 3.8017.9601h.0135c2.2038 0 4.2859-.8955 5.8007-2.4707 5.7253 2.8928 12.1177 4.4169 18.5731 4.4169 22.7155 0 41.1963-18.4808 41.1963-41.1963s-18.4808-41.1963-41.1963-41.1963zm0 79.1699c-6.3547 0-12.6422-1.6004-18.1837-4.6292 0-.0008-.0008-.0008-.0008-.0008-12.2335-6.6862-19.7891-19.461-19.7891-33.3436 0-20.9389 17.0347-37.97364 37.9736-37.97364s37.9733 17.03474 37.9733 37.97364-17.0344 37.9736-37.9733 37.9736z"/><path d="m77 16c-16.5417 0-30 13.4583-30 30s13.4583 30 30 30 30-13.4583 30-30-13.4583-30-30-30zm0 56.7684c-14.7602 0-26.7684-12.0082-26.7684-26.7684s12.0082-26.7684 26.7684-26.7684 26.768 12.0082 26.768 26.7684-12.0078 26.7684-26.768 26.7684z"/><path d="m58 40.5c0 .8281-.6719 1.5-1.5 1.5-.8289 0-1.5-.6719-1.5-1.5 0-.8289.6711-1.5 1.5-1.5.8281 0 1.5.6711 1.5 1.5z"/><path d="m77 23.5c0 .8289-.6711 1.5-1.5 1.5-.8281 0-1.5-.6711-1.5-1.5 0-.8281.6719-1.5 1.5-1.5.8289 0 1.5.6719 1.5 1.5z"/><path d="m101 42.5c0 .8281-.672 1.5-1.5 1.5-.8281 0-1.5-.6719-1.5-1.5 0-.8289.6719-1.5 1.5-1.5.828 0 1.5.6711 1.5 1.5z"/><path d="m88 66.5c0 .8281-.6719 1.5-1.5 1.5s-1.5-.6719-1.5-1.5c0-.8289.6719-1.5 1.5-1.5s1.5.6711 1.5 1.5z"/><path d="m88.1846 35.8784h2.0177c.3987 0 .7212-.3138.7212-.7008v-3.4767c0-.3871-.3225-.7009-.7212-.7009h-9.3993c-.3987 0-.7212.3138-.7212.7009v3.4767c0 .387.3225.7008.7212.7008h1.6607c1.5599 3.7467 2.3995 8.0159 2.3995 10.2274 0 4.4817-3.7518 8.1282-8.3634 8.1282s-8.3637-3.6465-8.3637-8.1282c0-2.4631 1.2281-6.7876 2.8872-10.2274h1.8706c.3986 0 .7212-.3138.7212-.7008v-3.4767c0-.3871-.3226-.7009-.7212-.7009h-9.3992c-.3983 0-.7212.3138-.7212.7009v3.4767c0 .387.3229.7008.7212.7008h1.3046c-3.0699 3.076-4.7993 7.2192-4.7993 11.6216 0 9.0981 7.4021 16.5 16.5 16.5s16.5-7.4019 16.5-16.5c-.0002-4.399-1.7355-8.5423-4.8154-11.6216zm-11.6846 26.7198c-8.3028 0-15.0576-6.7729-15.0576-15.0982 0-4.6067 2.0627-8.9009 5.6597-11.7817.2349-.1878.3232-.499.2205-.7776-.1028-.2783-.3747-.464-.679-.464h-2.4277v-2.0749h7.957v2.0749h-1.6037c-.2757 0-.5272.1526-.648.3935-1.8702 3.7227-3.2273 8.4482-3.2273 11.2356 0 5.2548 4.3992 9.53 9.8061 9.53s9.8058-4.275 9.8058-9.53c0-2.4951-.9262-7.1439-2.696-11.2018-.1134-.2591-.3746-.4273-.6642-.4273h-1.4213v-2.0749h7.957v2.0749h-3.1432c-.3044 0-.5761.1859-.679.4643-.103.2784-.0141.5896.2205.7776 3.6088 2.8857 5.6779 7.18 5.6779 11.7814 0 8.3252-6.7547 15.0982-15.0575 15.0982z"/><path d="m77 56c-1.103 0-2 1.1214-2 2.5002 0 1.3784.897 2.4998 2 2.4998s2-1.1214 2-2.4998c0-1.3786-.897-2.5002-2-2.5002zm0 3.3274c-.3653 0-.6619-.3707-.6619-.827 0-.4562.2966-.8274.6619-.8274s.6619.3712.6619.8274c0 .4563-.2968.827-.6619.827z"/><path d="m84.9997 54c-1.1025 0-1.9997.8971-1.9997 2.0002 0 1.1027.8972 1.9998 1.9997 1.9998 1.1031 0 2.0003-.8971 2.0003-1.9998 0-1.1029-.8972-2.0002-2.0003-2.0002zm0 2.6618c-.3647 0-.6613-.2966-.6613-.6616s.2966-.662.6613-.662c.3653 0 .6619.297.6619.662s-.2966.6616-.6619.6616z"/><path d="m69.0002 54c-1.1031 0-2.0002.8971-2.0002 2.0002 0 1.1027.8971 1.9998 2.0002 1.9998 1.1027 0 1.9998-.8971 1.9998-1.9998 0-1.1029-.8971-2.0002-1.9998-2.0002zm0 2.6618c-.365 0-.662-.2966-.662-.6616s.297-.662.662-.662.6616.297.6616.662-.2966.6616-.6616.6616z"/><path d="m67 64.5c0 .8289-.8948 1.5-2 1.5-1.1042 0-2-.6711-2-1.5 0-.8281.8958-1.5 2-1.5 1.1052 0 2 .6719 2 1.5z"/><path d="m17.1568 30.0249c-2.9589 0-5.3666 2.4077-5.3666 5.3667 0 2.9589 2.4077 5.3666 5.3666 5.3666 2.959 0 5.3667-2.4077 5.3667-5.3666 0-2.959-2.4077-5.3667-5.3667-5.3667zm0 7.6667c-1.2684 0-2.3-1.0316-2.3-2.3 0-1.2685 1.0316-2.3 2.3-2.3 1.2685 0 2.3 1.0315 2.3 2.3 0 1.2684-1.0315 2.3-2.3 2.3z"/><path d="m63.3667 100c-2.959 0-5.3667 2.408-5.3667 5.367s2.4077 5.366 5.3667 5.366c2.9589 0 5.3666-2.407 5.3666-5.366s-2.4077-5.367-5.3666-5.367zm0 7.667c-1.2685 0-2.3-1.032-2.3-2.3 0-1.269 1.0315-2.3 2.3-2.3 1.2684 0 2.3 1.031 2.3 2.3 0 1.268-1.0316 2.3-2.3 2.3z"/><path d="m46.7361 101.472c.9589 0 1.7361-.777 1.7361-1.7359 0-.9588-.7772-1.7361-1.7361-1.7361-.9588 0-1.7361.7773-1.7361 1.7361 0 .9589.7773 1.7359 1.7361 1.7359z"/><path d="m11.4901 49.3946c.9588 0 1.7361-.7773 1.7361-1.7361s-.7773-1.7361-1.7361-1.7361-1.73613.7773-1.73613 1.7361.77733 1.7361 1.73613 1.7361z"/><path d="m78.7361 120.472c.9588 0 1.7361-.777 1.7361-1.736s-.7773-1.736-1.7361-1.736-1.7361.777-1.7361 1.736.7773 1.736 1.7361 1.736z"/><path d="m25.7576 69.8241c-.5988-.5988-1.5694-.5988-2.1682 0l-1.7326 1.7326-1.7327-1.7326c-.5988-.5988-1.5694-.5988-2.1681 0-.5988.5987-.5988 1.5693 0 2.1681l1.7326 1.7327-1.7326 1.7327c-.5988.5987-.5988 1.5693 0 2.1681.2994.2994.6919.4493 1.084.4493.3922 0 .7847-.1499 1.0841-.4493l1.7327-1.7327 1.7326 1.7327c.2994.2994.692.4493 1.0841.4493.3922 0 .7847-.1499 1.0841-.4493.5987-.5988.5987-1.5694 0-2.1681l-1.7327-1.7327 1.7327-1.7327c.5987-.5988.5987-1.569 0-2.1681z"/><path d="m92.2507 96.4491c-.5988-.5988-1.5694-.5988-2.1682 0l-1.7326 1.7326-1.7327-1.7326c-.5988-.5988-1.5694-.5988-2.1681 0-.5988.5987-.5988 1.5693 0 2.1681l1.7326 1.7328-1.7326 1.733c-.5988.598-.5988 1.569 0 2.168.2994.299.6919.449 1.084.449.3922 0 .7847-.15 1.0841-.449l1.7327-1.733 1.7326 1.733c.2994.299.692.449 1.0841.449.3922 0 .7847-.15 1.0841-.449.5987-.599.5987-1.57 0-2.168l-1.7327-1.733 1.7327-1.7328c.5987-.5988.5987-1.569 0-2.1681z"/></g></svg>