<svg fill="none" height="140" viewBox="0 0 140 140" width="140" xmlns="http://www.w3.org/2000/svg"><g fill="#fff"><path d="m78.1167 29.9502c-26.0442 0-47.2336 21.1885-47.2336 47.2337 0 26.0451 21.1894 47.2341 47.2336 47.2341 26.0443 0 47.2333-21.189 47.2333-47.2341 0-26.0452-21.19-47.2337-47.2333-47.2337zm36.3593 71.0738-7.258-6.2417c1.684-2.7743 2.977-5.8011 3.816-9.0178l9.542.8484c-1.158 5.2154-3.252 10.0809-6.1 14.4111zm-19.7865 5.884 5.9725 7.465c-3.9957 2.432-8.4165 4.227-13.1167 5.27l-.848-9.541c2.8201-.737 5.5048-1.801 7.9922-3.194zm-16.5728.598c-16.7197 0-30.3226-13.6024-30.3226-30.3226s13.6024-30.3226 30.3226-30.3226 30.3223 13.6024 30.3223 30.3226-13.6025 30.3226-30.3223 30.3226zm-8.8536 2.525-.9282 9.53c-5.4394-1.255-10.4911-3.528-14.9422-6.615l5.9864-7.354c2.996 1.983 6.329 3.48 9.884 4.439zm-33.6056-23.4186 9.5415-.8479c.5777 2.2138 1.3687 4.3367 2.3576 6.3522l-7.4065 6.2636c-2.0374-3.6344-3.5653-7.5884-4.4926-11.7679zm-1.0411-9.4285c0-2.0706.1549-4.1044.4363-6.0984l9.4449.9198c-.2599 1.693-.4368 3.4136-.4368 5.1781 0 1.6679.161 3.2947.3939 4.8991l-9.4482.8395c-.2487-1.8793-.3901-3.7921-.3901-5.7381zm6.9459-23.5364 7.3066 6.1787c-1.5666 2.6297-2.7842 5.481-3.5999 8.5041l-9.5303-.9282c1.1452-4.9616 3.1388-9.5994 5.8236-13.7546zm19.7414-6.0424-6.0368-7.4162c3.9769-2.4654 8.379-4.3008 13.068-5.383l.9282 9.5302c-2.813.7593-5.4833 1.856-7.9594 3.269zm25.3932-3.3394.8493-9.5415c3.9522.8773 7.7065 2.2853 11.1762 4.1594l-6.048 7.5586c-1.9035-.9049-3.9004-1.6343-5.9775-2.1765zm33.8191 23.2316-9.58.7256c-1.084-3.9666-2.861-7.6407-5.205-10.8924l7.203-6.195c3.591 4.7875 6.207 10.3408 7.582 16.3618zm-8.738 14.5852c.233-1.6044.394-3.2312.394-4.8986 0-1.799-.181-3.5523-.452-5.2766l9.474-.7178c.271 1.961.423 3.9597.423 5.9944 0 1.9464-.142 3.8593-.391 5.7386zm-1.216-33.8329-7.182 6.1773c-2.153-2.388-4.6319-4.4651-7.3764-6.1684l5.9494-7.4359c3.185 2.0949 6.079 4.5934 8.609 7.427zm-26.7062-14.1759-.8409 9.4476c-1.604-.2328-3.2308-.3938-4.8982-.3938-1.7644 0-3.485.1764-5.1781.4368l-.9198-9.4449c1.9941-.2809 4.0278-.4363 6.0979-.4363 1.9465.0004 3.8594.1418 5.7391.3906zm-31.689 8.2198 5.9887 7.357c-2.7332 1.9871-5.1524 4.3662-7.189 7.0602l-7.238-6.1208c2.4258-3.1304 5.2617-5.9276 8.4383-8.2964zm-10.0357 59.3005 7.2824-6.1588c1.9072 2.9885 4.2452 5.6748 6.9612 7.9338l-5.9626 7.325c-3.1696-2.624-5.9602-5.69-8.281-9.1zm29.8877 18.654.9198-9.445c1.6931.26 3.4132.436 5.1781.436 1.6674 0 3.2947-.161 4.8986-.394l.84 9.449c-1.8792.248-3.7921.39-5.7386.39-2.0701 0-4.1043-.155-6.0979-.436zm31.7532-7.965-5.919-7.398c2.749-1.965 5.186-4.326 7.244-7.0012l7.184 6.1782c-2.451 3.109-5.313 5.878-8.509 8.221z"/><path d="m78.1167 52.626c-13.5408 0-24.5565 11.0166-24.5565 24.5574s11.0157 24.5576 24.5565 24.5576 24.5563-11.0168 24.5563-24.5576-11.016-24.5574-24.5563-24.5574zm0 45.3814c-11.4823 0-20.8231-9.3417-20.8231-20.824 0-11.4824 9.3408-20.8241 20.8231-20.8241s20.8231 9.3417 20.8231 20.8241c0 11.4823-9.3408 20.824-20.8231 20.824z"/><path d="m110.783 28.6497c3.603 0 6.534-2.9312 6.534-6.5334s-2.931-6.5333-6.534-6.5333c-3.602 0-6.533 2.9311-6.533 6.5333s2.931 6.5334 6.533 6.5334zm0-9.3334c1.545 0 2.8 1.2558 2.8 2.8s-1.255 2.8-2.8 2.8c-1.544 0-2.8-1.2558-2.8-2.8s1.256-2.8 2.8-2.8z"/><path d="m21.1834 101.45c-3.6022 0-6.5333 2.931-6.5333 6.534 0 3.602 2.9311 6.533 6.5333 6.533s6.5334-2.931 6.5334-6.533c0-3.603-2.9316-6.534-6.5334-6.534zm0 9.334c-1.5442 0-2.8-1.256-2.8-2.8 0-1.545 1.2558-2.8 2.8-2.8s2.8 1.255 2.8 2.8c0 1.544-1.2562 2.8-2.8 2.8z"/><path d="m27.7984 27.6346c-.7289-.7289-1.9105-.7289-2.6395 0l-2.1093 2.1093-2.1093-2.1093c-.729-.7289-1.9106-.7289-2.6395 0s-.7289 1.9105 0 2.6395l2.1093 2.1093-2.1093 2.1093c-.7289.729-.7289 1.9106 0 2.6395.3645.3645.8423.5469 1.3197.5469s.9553-.1824 1.3198-.5469l2.1093-2.1093 2.1093 2.1093c.3645.3645.8424.5469 1.3198.5469s.9552-.1824 1.3197-.5469c.7289-.7289.7289-1.9105 0-2.6395l-2.1093-2.1093 2.1093-2.1093c.7294-.729.7294-1.9106 0-2.6395z"/><path d="m121.983 41.0303c1.168 0 2.114-.9464 2.114-2.1136 0-1.1676-.946-2.114-2.114-2.114-1.167 0-2.114.9464-2.114 2.114 0 1.1672.947 2.1136 2.114 2.1136z"/><path d="m23.05 85.8301c1.1672 0 2.114-.9464 2.114-2.1136 0-1.1676-.9464-2.114-2.114-2.114s-2.114.9464-2.114 2.114c0 1.1672.9464 2.1136 2.114 2.1136z"/><path d="m37.9834 22.3633c1.1671 0 2.114-.9464 2.114-2.1136 0-1.1676-.9464-2.114-2.114-2.114s-2.114.9464-2.114 2.114c0 1.1672.9464 2.1136 2.114 2.1136z"/><path d="m81.3703 70.1731c0 1.0308.8349 1.8666 1.8667 1.8666s1.8667-.8358 1.8667-1.8666c0-2.87-2.1756-5.216-4.9602-5.5403v-1.6128c0-1.0309-.8349-1.8667-1.8667-1.8667s-1.8667.8358-1.8667 1.8667v1.5806c-2.9381.1717-5.2808 2.5928-5.2808 5.5725 0 2.2232 1.2908 4.2882 3.2905 5.2607l1.9908.9692v7.2997c-.9249-.5745-1.5475-1.5914-1.5475-2.758v-.8013c0-1.0309-.8348-1.8667-1.8666-1.8667s-1.8667.8358-1.8667 1.8667v.8013c0 3.261 2.2545 5.985 5.2808 6.7517v1.7831c0 1.0309.8349 1.8667 1.8667 1.8667s1.8666-.8358 1.8666-1.8667v-1.883c2.8607-.875 4.9602-3.5088 4.9602-6.6518 0-2.7109-1.575-5.2281-4.0105-6.413l-.9497-.4624v-5.6378c.7122.265 1.2264.938 1.2264 1.7416zm0 10.7716c0 1.0243-.4848 1.9282-1.2268 2.5246v-5.1184c.7574.638 1.2268 1.5816 1.2268 2.5938zm-5.3172-8.8667c-.7238-.3528-1.1904-1.0999-1.1904-1.9049 0-.9175.6757-1.6474 1.5474-1.8065v3.8855z"/></g></svg>