<svg fill="none" height="140" viewBox="0 0 140 140" width="140" xmlns="http://www.w3.org/2000/svg"><g fill="#fff"><path d="m124.133 28.9331h-82.133c-1.0309 0-1.8667.8349-1.8667 1.8667v19.5673l-21.6122 15.309c-.4942.3495-.7878.9184-.7878 1.5237v38.2662h-1.8666c-1.0309 0-1.8667.835-1.8667 1.867v16.8c0 1.032.8358 1.867 1.8667 1.867h44.8c1.0308 0 1.8666-.835 1.8666-1.867v-16.8c0-1.032-.8358-1.867-1.8666-1.867h-1.8667v-1.903c4.6676-3.9042 7.3556-9.5756 7.4093-15.7039l.0415-4.7927h57.8822c1.032 0 1.867-.8348 1.867-1.8666v-50.4c0-1.0318-.835-1.8667-1.867-1.8667zm-65.333 93.3329h-41.0667v-13.066h41.0667zm3.6759-34.44c-.0466 5.2826-2.4789 10.1518-6.6756 13.356-.462.354-.7336.903-.7336 1.484v2.8h-33.6v-37.3002l18.6666-13.2221v13.1894c0 .0569.0271.1045.0322.1601l-11.5602 10.597c-.7602.6963-.8111 1.8774-.1148 2.6376.6962.7584 1.8774.8111 2.6376.1148l20.9636-19.2173c1.1312 1.6408 1.7262 3.584 1.701 5.6219-.0336 2.6414-1.1065 5.0988-3.0208 6.9198l-6.5734 6.251c-.5759.5469-.7411 1.4018-.413 2.1256.0438.0985 4.3759 9.864-.4784 16.3371-.6188.8243-.4522 1.9943.3729 2.6123.3365.252.7289.374 1.1181.374.568 0 1.1284-.257 1.4948-.748 5.0628-6.7482 2.5909-15.5845 1.3986-18.8521h14.8255zm59.7911-8.4929h-57.8507-.0163-12.8025l1.7462-1.6609c2.6507-2.5209 4.1352-5.9224 4.1818-9.5792.0458-3.6568-1.3533-7.0948-3.9391-9.6796-.7075-.7094-1.8457-.7327-2.5811-.0565l-7.1386 6.5436v-32.2341h78.4003z"/><path d="m23.3334 119.467c1.5464 0 2.8-1.254 2.8-2.8 0-1.547-1.2536-2.8-2.8-2.8s-2.8 1.253-2.8 2.8c0 1.546 1.2536 2.8 2.8 2.8z"/><path d="m73.7333 42.0004h16.8c1.0318 0 1.8667-.8348 1.8667-1.8666s-.8349-1.8667-1.8667-1.8667h-16.8c-1.0318 0-1.8667.8349-1.8667 1.8667s.8349 1.8666 1.8667 1.8666z"/><path d="m66.2667 49.4667h31.7333c1.0318 0 1.8667-.8348 1.8667-1.8666s-.8349-1.8667-1.8667-1.8667h-31.7333c-1.0309 0-1.8667.8349-1.8667 1.8667s.8358 1.8666 1.8667 1.8666z"/><path d="m117.6 111.067c-3.602 0-6.533 2.931-6.533 6.533s2.931 6.534 6.533 6.534 6.533-2.932 6.533-6.534-2.931-6.533-6.533-6.533zm0 9.333c-1.544 0-2.8-1.256-2.8-2.8s1.256-2.8 2.8-2.8 2.8 1.256 2.8 2.8-1.256 2.8-2.8 2.8z"/><path d="m28 27.0667c3.6022 0 6.5333-2.9312 6.5333-6.5334s-2.9311-6.5333-6.5333-6.5333-6.5333 2.9311-6.5333 6.5333 2.9311 6.5334 6.5333 6.5334zm0-9.3334c1.5442 0 2.8 1.2558 2.8 2.8s-1.2558 2.8-2.8 2.8-2.8-1.2558-2.8-2.8 1.2558-2.8 2.8-2.8z"/><path d="m102.667 97.3135c1.167 0 2.113-.9463 2.113-2.1135 0-1.1673-.946-2.1136-2.113-2.1136-1.168 0-2.114.9463-2.114 2.1136 0 1.1672.946 2.1135 2.114 2.1135z"/><path d="m74.6668 125.313c1.1672 0 2.1135-.946 2.1135-2.113s-.9463-2.114-2.1135-2.114c-1.1673 0-2.1136.947-2.1136 2.114s.9463 2.113 2.1136 2.113z"/><path d="m119.467 20.7803c1.167 0 2.113-.9463 2.113-2.1135 0-1.1673-.946-2.1136-2.113-2.1136-1.168 0-2.114.9463-2.114 2.1136 0 1.1672.946 2.1135 2.114 2.1135z"/><path d="m83.1488 89.5179c-.7289-.7289-1.9105-.7289-2.6394 0l-2.1094 2.1093-2.1093-2.1093c-.7289-.7289-1.9105-.7289-2.6394 0-.729.7289-.729 1.9105 0 2.6395l2.1093 2.1093-2.1093 2.1093c-.729.729-.729 1.9106 0 2.6395.3644.3645.8423.5469 1.3197.5469s.9552-.1824 1.3197-.5469l2.1093-2.1093 2.1094 2.1093c.3644.3645.8423.5469 1.3197.5469s.9553-.1824 1.3197-.5469c.729-.7289.729-1.9105 0-2.6395l-2.1093-2.1093 2.1093-2.1093c.729-.729.729-1.9101 0-2.6395z"/><path d="m98.6636 65.8818c-.2189.6743-.0364 1.4163.4723 1.9124l2.7451 2.674-.649 3.779c-.12.7.168 1.4075.742 1.8247.574.4191 1.342.4741 1.965.1423l3.394-1.7826 3.394 1.7826c.272.1442.571.2152.868.2152.386 0 .773-.1204 1.098-.3575.574-.4177.862-1.1247.742-1.8247l-.65-3.779 2.746-2.674c.508-.4956.69-1.2376.472-1.9124-.219-.6762-.804-1.1686-1.507-1.2708l-3.792-.5525-1.697-3.4361c-.627-1.2758-2.72-1.2758-3.347 0l-1.697 3.4361-3.792.5525c-.7033.1022-1.2885.5946-1.5074 1.2708zm6.8064 1.7299c.609-.0877 1.134-.4704 1.406-1.0211l.457-.9258.458.9258c.271.5507.796.9334 1.405 1.0211l1.019.1493-.738.7201c-.439.4284-.64 1.0463-.536 1.6515l.175 1.0174-.915-.4793c-.271-.1442-.569-.2151-.867-.2151-.299 0-.596.0709-.868.2151l-.915.4793.175-1.0174c.104-.6052-.096-1.2231-.536-1.6515l-.738-.7201z"/><path d="m64.4009 73.7333c.2534 0 .5105-.0508.7574-.1605 1.8573-.826 3.5238-1.624 5.0003-2.3954.9096.6925 2.1439 1.3435 3.8192 1.8466 2.1859.6543 4.5976.3575 6.6225-.8167l.8423-.4867c.2497-.1442.4611-.3425.6198-.5833.3243-.4849.8092-.5376 1.0042-.5376.1951 0 .68.0527 1.0043.5376.1185.1806.2679.3374.441.4666l.1643.1204c1.6025 1.1868 3.611 1.5223 5.5141.9208 1.8993-.6016 3.3507-2.031 3.9811-3.921.3244-.979-.2044-2.036-1.1811-2.3622-.9861-.3192-2.0379.2044-2.3623 1.1811-.2459.7439-.8166 1.3053-1.5642 1.5423-.7201.2278-1.4822.1148-2.1-.3136-.9334-1.1993-2.3642-1.9049-3.8976-1.9049-1.4929 0-2.891.6711-3.8225 1.8139l-.5143.2954c-1.1358.6618-2.4756.8349-3.6787.4723-.4209-.126-.8129-.266-1.1723-.4177 3.2191-2.0892 4.8034-3.9377 4.7269-5.5253-.0345-.7345-.3957-2.0692-2.4155-2.7417-2.2712-.7583-4.7908-.2207-6.5809 1.3963-1.6207 1.4677-2.324 3.5126-1.883 5.4726.0345.1512.0803.3155.1386.4905-1.3379.6981-2.7734 1.3944-4.2238 2.0379-.9417.4191-1.3664 1.5223-.9469 2.4645.3099.6958.9926 1.1078 1.7071 1.1078zm7.7135-8.8046c.4592-.4139 1.1704-.7728 1.9908-.7728.0439 0 .0878 0 .133.0038-.6272.5488-1.6296 1.2413-2.8728 1.9996.0873-.4321.3463-.8661.749-1.2306z"/></g></svg>