<svg fill="none" height="140" viewBox="0 0 140 140" width="140" xmlns="http://www.w3.org/2000/svg"><g fill="#fff"><path d="m82.1819 27.0667c3.6022 0 6.5333-2.9312 6.5333-6.5334s-2.9311-6.5333-6.5333-6.5333-6.5333 2.9311-6.5333 6.5333 2.9311 6.5334 6.5333 6.5334zm0-9.3334c1.5442 0 2.8 1.2558 2.8 2.8s-1.2558 2.8-2.8 2.8-2.8-1.2558-2.8-2.8 1.2558-2.8 2.8-2.8z"/><path d="m97.1147 30.1128c1.1673 0 2.1135-.9463 2.1135-2.1135 0-1.1673-.9462-2.1136-2.1135-2.1136s-2.1135.9463-2.1135 2.1136c0 1.1672.9462 2.1135 2.1135 2.1135z"/><path d="m123.248 52.5132c1.167 0 2.114-.9463 2.114-2.1135 0-1.1673-.947-2.1136-2.114-2.1136s-2.113.9463-2.113 2.1136c0 1.1672.946 2.1135 2.113 2.1135z"/><path d="m54.1813 35.7134c1.1673 0 2.1136-.9463 2.1136-2.1135 0-1.1673-.9463-2.1136-2.1136-2.1136-1.1672 0-2.1135.9463-2.1135 2.1136 0 1.1672.9463 2.1135 2.1135 2.1135z"/><path d="m119.597 17.6512c-.729-.7289-1.911-.7289-2.64 0l-2.109 2.1093-2.109-2.1093c-.729-.7289-1.911-.7289-2.64 0s-.729 1.9105 0 2.6395l2.11 2.1093-2.11 2.1093c-.729.729-.729 1.9106 0 2.6395.365.3645.843.5469 1.32.5469s.955-.1824 1.32-.5469l2.109-2.1093 2.109 2.1093c.365.3645.843.5469 1.32.5469.478 0 .955-.1824 1.32-.5469.729-.7289.729-1.9105 0-2.6395l-2.109-2.1093 2.109-2.1093c.729-.729.729-1.9101 0-2.6395z"/><path d="m20.4997 34.6156c.3645.3645.8424.5469 1.3198.5469s.9552-.1824 1.3197-.5469l2.1093-2.1093 2.1094 2.1093c.3644.3645.8423.5469 1.3197.5469s.9553-.1824 1.3197-.5469c.729-.7289.729-1.9105 0-2.6395l-2.1093-2.1093 2.1093-2.1093c.729-.729.729-1.9106 0-2.6395-.7289-.7289-1.9105-.7289-2.6394 0l-2.1094 2.1093-2.1093-2.1093c-.7289-.7289-1.9105-.7289-2.6395 0-.7289.7289-.7289 1.9105 0 2.6395l2.1094 2.1093-2.1094 2.1093c-.7294.729-.7294 1.9101 0 2.6395z"/><path d="m111.705 43.9082h-95.2004c-1.0309 0-1.8667.8349-1.8667 1.8667v52.2246 1.8667 11.1998 1.867 11.2c0 1.032.8358 1.867 1.8667 1.867h95.2004c1.03 0 1.866-.835 1.866-1.867v-13.067-11.1998-54.0913c0-1.0318-.836-1.8667-1.866-1.8667zm-93.3337 57.8248h91.4667v7.467h-91.4667zm0-54.0915h91.4667v50.358h-91.4667zm91.4667 74.6245h-91.4667v-9.333h91.4667z"/><path d="m102.015 61.4228c-.232.0346-.465.0728-.706.0728-3.0738 0-5.5746-2.4192-5.5746-5.3923 0-.2296.0401-.4503.0868-.7602.0812-.5376-.0766-1.0845-.4312-1.4947-.3547-.4121-.8713-.6492-1.4145-.6492h-59.7413c-.5441 0-1.0537.281-1.4084.6926-.3546.4116-.5058 1.0023-.4246 1.5404.0336.2207.0737.441.0737.6711 0 2.9731-2.5009 5.3923-5.5743 5.3923-.2418 0-.4742-.0382-.8032-.0858-.5324-.0784-1.0756.0858-1.4849.4391-.4074.3556-.6417.8694-.6417 1.4093v20.9491c0 .5414.2819 1.0482.6902 1.4038.4093.3556 1.0062.4993 1.533.4321.2324-.0345.4648-.0728.7066-.0728 3.0734 0 5.5743 2.4192 5.5743 5.3923 0 .2296-.0401.4504-.0868.7602-.0812.5376.0765 1.0846.4312 1.4948.3547.412.8713.6491 1.4145.6491h59.7408c.5441 0 1.0537-.2809 1.4084-.6925.3546-.4116.5058-1.0024.4246-1.5405-.0336-.2207-.0737-.441-.0737-.6711 0-2.9731 2.5009-5.3923 5.5741-5.3923.242 0 .474.0383.803.0859.535.0821 1.078-.084 1.485-.4392.408-.3551.642-.8694.642-1.4093v-20.9491c0-.5414-.282-1.0482-.69-1.4038-.409-.3537-.999-.4941-1.533-.4321zm-1.51 20.8469c-4.4794.3776-8.0611 3.8776-8.4662 8.2633h-55.8684c-.4046-4.3857-3.9867-7.8857-8.4658-8.2633v-17.0734c4.4791-.3775 8.0608-3.8775 8.4658-8.2633h55.8689c.4046 4.3858 3.9867 7.8858 8.4657 8.2633z"/><path d="m64.1046 59.0547c-8.1876 0-14.8484 6.6607-14.8484 14.8475 0 8.1886 6.6608 14.8493 14.8484 14.8493 8.1877 0 14.8484-6.6607 14.8484-14.8493.0005-8.1868-6.6607-14.8475-14.8484-14.8475zm0 25.9639c-6.1287 0-11.115-4.9877-11.115-11.116 0-6.1282 4.9868-11.1141 11.115-11.1141 6.1283 0 11.1151 4.9859 11.1151 11.1141 0 6.1283-4.9863 11.116-11.1151 11.116z"/><path d="m92.2324 72.0361h-6.4913c-1.0308 0-1.8666.8349-1.8666 1.8667s.8358 1.8667 1.8666 1.8667h6.4913c1.0309 0 1.8667-.8349 1.8667-1.8667s-.8358-1.8667-1.8667-1.8667z"/><path d="m42.4685 72.0361h-6.4913c-1.0309 0-1.8667.8349-1.8667 1.8667s.8358 1.8667 1.8667 1.8667h6.4913c1.0309 0 1.8667-.8349 1.8667-1.8667s-.8358-1.8667-1.8667-1.8667z"/><path d="m66.1365 71.6845-2.6166-1.4238h1.4056c.0047 0 .0172 0 .0284.0163.5815.8531 1.7426 1.0719 2.5943.4905.8516-.5815 1.0709-1.7426.4904-2.5942-.7028-1.03-1.8666-1.646-3.1126-1.646h-1.4056c-2.0772 0-3.767 1.6898-3.767 3.7679 0 1.4784.8596 2.8527 2.1891 3.5l2.5611 1.2469c.2772.1349.456.4191.456.7276 0 .4064-.33.7364-.7364.7364-.2973 0-.5642-.1769-.68-.4504-.4008-.9496-1.4938-1.3925-2.4462-.9916-.9497.4008-1.3935 1.4966-.9917 2.4462.7009 1.6572 2.3179 2.7291 4.1179 2.7291 2.4644 0 4.4697-2.0053 4.4697-4.4697-.0009-1.7262-1.0043-3.3288-2.5564-4.0852z"/></g></svg>