<svg fill="none" height="140" viewBox="0 0 140 140" width="140" xmlns="http://www.w3.org/2000/svg"><g fill="#fff"><path d="m95.0113 24.3905c.6102-.6054.9887-1.4447.9887-2.371v-3.3398c0-3.6834-2.9905-6.6797-6.6667-6.6797h-36.6666c-3.6762 0-6.6667 2.9963-6.6667 6.6797v3.3398c0 .9263.3785 1.7656.9887 2.371-6.5286 3.4546-10.9887 10.3265-10.9887 18.2247v72.8088c0 5.832 4.7352 10.576 10.5556 10.576h48.8888c5.8206 0 10.5556-4.744 10.5556-10.576v-72.8088c0-7.8982-4.46-14.7701-10.9887-18.2247zm-12.3446-2.371v-6.6797h3.3333v6.6797zm-26.6667 0v-6.6797h3.3333v6.6797zm6.6667-6.6797h3.3333v6.6797h-3.3333zm6.6666 0h3.3334v6.6797h-3.3334zm6.6667 0h3.3333v6.6797h-3.3333zm16.6667 3.3399v3.3398h-3.3334v-6.6797c1.8377 0 3.3334 1.4986 3.3334 3.3399zm-43.3334 0c0-1.8413 1.4957-3.3399 3.3334-3.3399v6.6797h-3.3334zm46.1111 103.9803h-48.8888c-3.9827 0-7.2223-3.246-7.2223-7.236v-11.356h6.1111c.9202 0 1.6667-.747 1.6667-1.67 0-.922-.7465-1.669-1.6667-1.669h-6.1111v-54.5513h6.1111c.9202 0 1.6667-.7471 1.6667-1.6699s-.7465-1.6699-1.6667-1.6699h-6.1111v-.2227c0-9.515 7.7257-17.2558 17.2223-17.2558h28.8888c9.4966 0 17.2226 7.7408 17.2226 17.2558v.2227h-50.5559c-.921 0-1.6667.7471-1.6667 1.6699 0 .9219.7457 1.6699 1.6667 1.6699h50.5559v54.5513h-50.5559c-.921 0-1.6667.747-1.6667 1.669s.7457 1.67 1.6667 1.67h50.5559v11.356c0 3.99-3.2399 7.236-7.2226 7.236z"/><path d="m68.0109 93.4806 11.9534-11.5875c.0017-.0017.0034-.0043.0061-.006.0017-.0017.0035-.0034.0052-.0051 13.8446-13.6816 12.3372-12.0308 13.3787-13.7816 2.5027-4.2163 2.1224-9.6275-.9464-13.4672-4.578-5.7281-13.1991-6.2029-18.4103-1.1009l-11.4352 11.3117-11.9543 11.5875c-4.8108 4.71-4.8108 12.3332 0 17.044 4.7969 4.6955 12.6059 4.7015 17.4028.0051zm8.3611-37.6347c3.6873-3.6109 9.9698-3.4819 13.3989.8079 2.2322 2.7936 2.5087 6.7307.6873 9.7983-.7685 1.2965.622-.1955-11.6777 11.9523l-12.6713-12.4066zm-23.4008 22.9103 10.7697-10.4388 12.6704 12.4048-10.7635 10.4346c-3.5015 3.4281-9.169 3.4281-12.6705 0-3.4945-3.4204-3.4945-8.9861-.0061-12.4006z"/><path d="m11.5333 47.0667c3.6022 0 6.5334-2.9312 6.5334-6.5334s-2.9312-6.5333-6.5334-6.5333c-3.60217 0-6.5333 2.9311-6.5333 6.5333s2.93113 6.5334 6.5333 6.5334zm0-9.3334c1.5442 0 2.8 1.2558 2.8 2.8s-1.2558 2.8-2.8 2.8c-1.54417 0-2.79997-1.2558-2.79997-2.8s1.2558-2.8 2.79997-2.8z"/><path d="m130.561 112.123c1.167 0 2.114-.947 2.114-2.114s-.947-2.113-2.114-2.113-2.114.946-2.114 2.113.947 2.114 2.114 2.114z"/><path d="m123.696 126.409c1.167 0 2.113-.947 2.113-2.114s-.946-2.113-2.113-2.113c-1.168 0-2.114.946-2.114 2.113s.946 2.114 2.114 2.114z"/><path d="m34.1135 25.2271c1.1673 0 2.1136-.9463 2.1136-2.1136 0-1.1672-.9463-2.1135-2.1136-2.1135-1.1672 0-2.1135.9463-2.1135 2.1135 0 1.1673.9463 2.1136 2.1135 2.1136z"/><path d="m120.044 91.5467c-.729-.7289-1.91-.7289-2.639 0l-2.109 2.1093-2.11-2.1093c-.729-.7289-1.91-.7289-2.639 0s-.729 1.9105 0 2.6395l2.109 2.1093-2.109 2.1093c-.729.729-.729 1.9102 0 2.6392.364.365.842.547 1.319.547.478 0 .956-.182 1.32-.547l2.11-2.109 2.109 2.109c.364.365.842.547 1.32.547.477 0 .955-.182 1.319-.547.729-.729.729-1.9102 0-2.6392l-2.109-2.1093 2.11-2.1093c.729-.729.729-1.9101-.001-2.6395z"/><path d="m5.54705 20.0443c.36447.3645.84233.5469 1.31973.5469s.95527-.1824 1.31974-.5469l2.10928-2.1093 2.1094 2.1093c.3644.3645.8423.5469 1.3197.5469s.9553-.1824 1.3197-.5469c.729-.7289.729-1.9105 0-2.6395l-2.1093-2.1093 2.1093-2.1093c.729-.729.729-1.9106 0-2.6395-.7289-.72893-1.9105-.72893-2.6394 0l-2.1094 2.1093-2.10928-2.1093c-.72894-.72893-1.91054-.72893-2.63947 0-.72893.7289-.72893 1.9105 0 2.6395l2.10933 2.1093-2.10933 2.1093c-.7294.729-.7294 1.9101 0 2.6395z"/></g></svg>