<svg width="496" height="418" fill="none" xmlns="http://www.w3.org/2000/svg"><g clip-path="url(#a)"><g clip-path="url(#b)"><mask id="c" style="mask-type:luminance" maskUnits="userSpaceOnUse" x="7" y="27" width="418" height="330"><path d="M7 27h418v330H7V27Z" fill="#fff"/></mask><g mask="url(#c)"><g opacity=".12" fill="#fff"><path d="M176.409 291.118c13.645 22.533 127.948 16.446 170.717-4.484 42.77-20.93 47.061-200.494 26.717-227.298-20.378-26.788-149.521-35.347-202.463-6.268-52.941 29.08-13.137 208.071 5.029 238.05Z"/><path d="M374.94 47.537c.115-10.997 24.882-23.597 39.15-19.866 14.267 3.731 16.478 52.856-5.242 54.476-21.721 1.62-34.039-20.897-33.908-34.61ZM149.594 279.859c-1.9-8.247 4.472-17.018 10.303-15.497 5.832 1.522 12.45 28.998 3.555 29.652-8.878.655-12.597-8.705-13.858-14.155Z"/></g><path d="M213.577 44.28s-13.432 9.623-18.886 31.142c-5.439 21.519 25.848-5.057 25.848-5.057l-6.962-26.084Z" fill="url(#d)"/><path d="M201.751 66.749s10.238-25.823 19.656-29.914c9.419-4.091 23.441 3.96 23.441 3.96L201.751 66.75Z" fill="url(#e)"/><path d="M318.215 154.199c-24.636 26.052-119.184 12.731-132.403-5.204-5.258-7.135-7.863-15.726-8.191-24.89v-.033c-1.392-39.24 38.642-89.495 88.226-85.617 33.596 2.635 55.841 35.101 61.705 66.308 3.702 19.506.999 38.521-9.337 49.436Z" fill="url(#f)"/><path d="M297.118 164.95c-12.515 2.831-30.862 4.271-42.869 3.567-22.31-1.292-38.231-4.729-47.011-8.836h-.017c-5.782-2.7-8.469-5.679-7.879-8.559.344-1.751 4.816-3.043 11.778-3.911 20.459-2.503 62.426-1.211 84.818 3.502 1.932.409 3.718.835 5.323 1.293.361.098.672.196.999.295.066.016.115.016.181.049 3.849 1.178 6.535 2.503 7.682 4.009.295.376.491.753.573 1.145.688 2.979-5.109 5.531-13.578 7.446Z" fill="url(#g)"/><path opacity=".3" d="M318.215 154.199c-24.636 26.052-119.184 12.731-132.403-5.204-5.258-7.135-7.863-15.726-8.191-24.89v-.033s5.652 12.764 24.8 16.217c19.133 3.453 75.547 3.862 87.439-3.911 11.893-7.773 9.73-46.621 9.73-46.621l27.962 14.989c3.702 19.523.999 38.538-9.337 49.453Z" fill="url(#h)"/><path opacity=".5" d="M297.118 164.95c-9.37-4.729-36.823-17.166-59.609-13.402-27.945 4.598-30.254 8.149-30.254 8.149h-.017c-5.782-2.7-8.468-5.678-7.879-8.558.344-1.751 4.816-3.044 11.778-3.911 20.459-2.504 62.426-1.211 84.818 3.502 2.342.556 4.455 1.096 6.323 1.603.065.017.114.017.18.049 3.849 1.179 6.536 2.504 7.682 4.01.295.376.492.752.574 1.145.671 2.946-5.127 5.498-13.596 7.413Z" fill="url(#i)"/><path d="M301.279 152.022c-5.553 4.73-31.091 7.642-45.505 6.792-25.832-1.522-41.279-6.497-44.637-11.603 22.212-2.716 69.83-.949 90.142 4.811Z" fill="url(#j)"/><path d="M177.278 125.856c3.358 11.995 85.014 20.995 107.161 1.669 22.146-19.326 6.421-89.005-37.282-85.274-41.656 3.568-75.957 61.874-69.879 83.605Z" fill="#FBDFDF"/><path d="M177.622 124.089c3.358 11.995 85.015 20.995 107.161 1.669 22.163-19.343 6.422-89.021-37.281-85.274-41.656 3.551-75.957 61.873-69.88 83.605Z" fill="url(#k)"/><path d="M291.45 52.38s-4.226 40.339 20.738 54.477c0 0 12.236 1.26 19.296-6.202 0 0-11.008 10.44-22.736-.311-11.729-10.767-9.059-40.6-.246-50.352 8.813-9.753 21.622-7.266 21.622-7.266l-5.143-4.582c0 .016-18.854-3.731-33.531 14.237Z" fill="url(#l)"/><path d="M324.981 38.16s-13.858-1.21-23.457 14.908c-10.188 17.1-2.571 46.556 9.943 50.975 12.515 4.418 24.899-43.366 24.899-43.366l-7.355-18.95c0 .017-1.458-2.65-4.03-3.567Z" fill="url(#m)"/><path d="M343.098 78.71c-1.736 9.23-5.455 16.774-10.451 21.552l-.033.033-1.392 1.244h-.016c-4.046 3.305-8.846 4.893-14.055 4.255-16.872-2.062-19.263-26.445-17.347-40.289 2.228-15.988 15.857-25.643 26.75-24.3 12.94 1.62 19.951 19.456 16.544 37.506Z" fill="url(#n)"/><path d="M177.164 113.092s-11.778 2.667-22.933 11.799c-11.139 9.131-14.071 20.275-.328 19.277l6.372-3.731s-8.206 1.145-7.125-7.201c1.097-8.345 23.719-18.622 23.719-18.622l.295-1.522Z" fill="url(#o)"/><path d="M151.479 137.344c-4.128 4.189 3.915 8.002 10.664 9.098 7.568 1.244 21.213.409 20.82-7.298-.394-7.691-21.786-11.602-31.484-1.8Z" fill="url(#p)"/><path d="M151.954 138.178c-.295 1.244 26.881 3.011 27.782-1.751.901-4.762-25.456-7.838-27.782 1.751Z" fill="url(#q)"/><path d="M247.877 89.266c-.59.802 10.729-6.48 28.732.507 1.785.687-17.151-16.315-28.732-.507Z" fill="url(#r)"/><path d="M191.087 89.347c-.59.802 5.357-4.925 21.18-1.096 1.851.442-10.795-13.01-21.18 1.096Z" fill="url(#s)"/><path d="M200.341 73.998c1.851 2.798 17.33-5.237 34.35-3.518 17.019 1.718 35.66 18.41 49.616 16.331 11.073-1.653-3.538-41.434-31.745-44.985-28.207-3.551-54.056 29.39-52.221 32.172Z" fill="url(#t)"/><path d="M195.312 127.689s17.725-4.697 39.609-2.258c21.884 2.438 25.423 4.762 25.013 6.823-.409 2.062-16.331 6.284-36.414 4.141-20.082-2.144-28.208-8.706-28.208-8.706Z" fill="url(#u)"/><path d="M178.245 120.898s-2.244-15.415 11.679-37.212c0 0 2.998-3.42 4.357-2.193 1.36 1.227-12.564 17.035-16.036 39.405Z" fill="url(#v)"/><path d="M302.638 84.978s1.867 14.957 12.891 18.132c11.025 3.175 19.935-4.811 22.687-16.053 0 0-3.407 9.704-17.74 7.298-14.349-2.406-17.838-9.377-17.838-9.377Z" fill="url(#w)"/><path opacity=".72" d="M304.521 56.685c.147 2.782 20.312-3.11 26.749-2.291 6.421.818 9.206 8.673 10.222 8.493 1.015-.197-1.802-18.59-13.744-19.883-11.957-1.309-23.325 11.75-23.227 13.68Z" fill="url(#x)"/><path d="M209.662 104.763s20.066.703 31.45-2.16c0 0-2.686 18.786-15.725 18.786-13.039.016-15.725-16.626-15.725-16.626Z" fill="#53171A"/><path d="M208.859 215.745s-33.695 19.097-41.623 18.327c-7.928-.769-4.406-18.769-4.406-18.769 1.048-1.244 2.227-2.52 3.489-3.846l.016-.016c12.662-13.353 34.284-30.372 46.701-38.489l.016-.016c5.225-3.42 8.829-5.253 9.435-4.566 4.62 5.139-13.628 47.375-13.628 47.375Z" fill="url(#y)"/><path d="M162.847 215.303s4.406-3.699 9.861 1.276c5.455 4.975-.164 16.904-5.455 17.493-5.29.59-8.468-11.029-4.406-18.769Z" fill="url(#z)"/><path opacity=".3" d="M208.859 215.745s-33.695 19.097-41.623 18.327c-7.928-.769-4.406-18.769-4.406-18.769 1.048-1.244 2.227-2.52 3.489-3.846l.016-.016s8.239 4.86 23.408 2.536c15.184-2.324 23.293-41.025 23.293-41.025l.016-.016c5.225-3.42 8.829-5.253 9.435-4.566 4.62 5.139-13.628 47.375-13.628 47.375Z" fill="url(#A)"/><path d="M248.206 278.026c.507 7.152-7.257 31.502-15.103 38.98-.017.016-.017.016-.017.033-1.523 1.423-3.03 2.242-4.488 2.176-6.503-.245-14.153-30.012-17.036-46.981-1.113-6.562-1.507-11.194-.851-11.488 5.503-2.389 36.872 8.755 37.495 17.28Z" fill="url(#B)"/><path d="M248.549 280.334s-7.11 5.4-20.148 1.178c-10.189-3.305-18.871-17.771-17.691-20.75 1.179-2.978 40.541 7.937 37.839 19.572Z" fill="url(#C)"/><path opacity=".3" d="M248.206 278.026c.507 7.152-7.257 31.502-15.103 38.98 5.438-8.575 3.309-24.055-1.966-30.486-3.98-4.877-14.628-11.406-19.575-14.286-1.113-6.562-1.507-11.194-.851-11.488 5.503-2.389 36.872 8.755 37.495 17.28Z" fill="url(#D)"/><path d="M223.438 288.794c-1.998-.147-.671 5.253-.278 5.548.377.294 1.31-1.522 1.392-3.011.066-1.309-.409-2.488-1.114-2.537Z" fill="#fff"/><path d="M294.939 234.563c1.966 26.805-9.222 41.893-35.169 49.224-25.422 7.184-49.141-15.595-50.566-50.206-.901-22.091-.279-42.121 7.109-56.669l.016-.016v-.033c4.177-8.231 10.549-14.678 20.017-18.769 7.486-3.224 15.152-.982 22.392 4.565 18.838 14.45 34.678 51.236 36.201 71.904Z" fill="url(#E)"/><path opacity=".3" d="M267.289 191.345s8.551 18.819 12.449 31.911c4.619 15.513.262 33.203.262 33.203l15.152-17.363s.59-11.226-3.423-21.339c-4.014-10.113-6.274-14.613-6.274-14.613l-18.166-11.799Z" fill="url(#F)"/><path d="M208.876 237.967s.213-20.766 18.412-26.183c21.802-6.48 43.67 13.223 47.241 29.947 3.555 16.724 3.129 33.514-17.281 40.288 0 0-38.838 10.604-48.372-44.052Z" fill="url(#G)"/><path d="M209.776 240.225s.213-20.766 18.412-26.182c21.802-6.481 43.67 13.222 47.241 29.946 3.554 16.724 3.128 33.514-17.282 40.289 0 0-38.838 10.604-48.371-44.053Z" fill="url(#H)"/><path d="M283.604 209.248c-.95.278-2.195-.213-3.62-1.26-6.372-4.713-16.414-20.832-19.264-30.601-1.097-3.78-1.13-6.611.574-7.462 2.768-1.375 11.597 6.676 18.591 19.621 4.046 7.56 7.765 18.507 3.719 19.702Z" fill="url(#I)"/><path d="M279.999 207.988c-6.372-4.713-16.413-20.832-19.263-30.601 3.964 2.847 9.55 9.377 14.316 18.18 2.064 3.846 4.03 8.559 4.947 12.421Z" fill="#A24040"/><path opacity=".5" d="M258.476 162.512s-23.67 17.968-34.235 19.85c-10.254 1.832-8.306-5.221-8.191-5.613l.017-.017v-.032c4.177-8.232 10.549-14.679 20.017-18.77 7.486-3.208 15.152-.966 22.392 4.582Z" fill="url(#J)"/><path opacity=".72" d="M211.579 237.803c4.308 4.402 12.531-5.334 25.733-7.658 13.203-2.324 22.081 2.373 25.21-.556 3.129-2.946-14.12-18.574-33.957-13.501-15.84 4.042-18.444 20.21-16.986 21.715Z" fill="url(#K)"/><path opacity=".72" d="M239.999 280.989s6.962 3.829 15.922 1.505c8.96-2.324 10.631-7.478 10.631-7.478s-4.439-.54-10.32 2.536c-5.897 3.076-11.827 3.96-16.233 3.437Z" fill="url(#L)"/><path d="M245.994 183.196c-1.54.507.246 16.364 1.638 16.495 1.393.131 2.13-3.567 1.884-8.869-.262-5.302-2.048-8.117-3.522-7.626Z" fill="#fff"/><path d="M354.645 230.341c2.408 10.064-7.027 16.872-11.171 16.561-3.604-.278-15.529-4.337-31.205-15.432-.017 0-.033-.016-.049-.016a179.357 179.357 0 0 1-7.142-5.351c-19.165-15.186-46.324-47.996-37.741-51.187 0 0 .017 0 .049-.017 24.899-9.245 84.851 45.395 87.259 55.442Z" fill="url(#M)"/><path d="M335.431 244.529s-4.538-7.904.753-14.76c5.291-6.857 17.462-1.604 17.462-1.604s5.291 8.755-3.997 14.466c-9.288 5.727-14.218 1.898-14.218 1.898Z" fill="url(#N)"/><path opacity=".3" d="M354.646 230.341c2.408 10.064-7.027 16.872-11.172 16.561-3.603-.278-15.528-4.337-31.204-15.432 1.425.884 11.794 7.135 16.216 4.517 4.734-2.831 6.045-21.437-19.64-43.562-24.882-21.453-40.509-17.771-41.459-17.526 24.899-9.245 84.851 45.395 87.259 55.442Z" fill="url(#O)"/><path d="M339.886 232.976c3.309-3.404 11.368-3.927 15.414-2.029 4.046 1.898 17.396 12.06 24.604 31.174 0 0-1.245 11.242-8.846 13.451-5.782 1.685-15.84-12.502-23.489-22.272-7.65-9.769-13.121-14.728-7.683-20.324Z" fill="url(#P)"/><path d="M372.287 275.474s-18.199-36.083-35.628-33.285c0 0 3.276 5.662 13.842 17.002 10.565 11.324 18.067 17.395 21.786 16.283Z" fill="url(#Q)"/><path opacity=".5" d="M360.035 257.048s.262 7.118-1.376 9.523c-1.638 2.406-3.964 2.881-3.964 2.881l-2.604-20.57s5.749 4.68 7.944 8.166Z" fill="url(#R)"/><path d="M352.09 248.882s-8.371-7.528-15.332-5.728c0 0-1.344 8.592 14.07 26.707 0 0 5.488 1.603 6.7-4.959-.016 0-1.556-8.934-5.438-16.02Z" fill="url(#S)"/><path d="M346.7 248.031c1.819-1.342 5.029 8.738 3.932 9.262-1.081.507-5.439-8.133-3.932-9.262ZM290.402 203.979c-2.212 4.025 4.832 7.02 6.699 6.398 1.851-.622-5.192-9.148-6.699-6.398ZM298.559 211.866c-.671.507 2.195 3.044 2.883 3.469 1.327.819 3.997 1.179 4.112.688.147-.508-6.225-4.73-6.995-4.157ZM178.376 202.637c.36 1.145 8.288-2.422 8.321-5.842.016-3.437-8.829 4.173-8.321 5.842Z" fill="#fff"/><path d="M320.919 311.213c-1.393 1.407-4.046 1.358-7.388.327-3.653-1.145-8.174-3.469-12.842-6.365-.017-.017-.033-.017-.033-.017l-.049-.032c-13.039-8.068-27.372-20.57-28.142-24.203-2.637-12.617 10.156-28.817 18.297-36.836 3.178-3.125 5.668-5.007 6.225-4.942 2.047.246 31.172 64.835 23.932 72.068Z" fill="url(#T)"/><path opacity=".3" d="M320.918 311.213c-1.393 1.407-4.046 1.358-7.388.327l-12.842-6.365c1.212.523 15.004 6.022 10.336-13.844-4.865-20.783-20.738-45.64-20.738-45.64l.475-1.587c3.178-3.126 5.668-5.008 6.225-4.942 2.047.229 31.172 64.818 23.932 72.051Z" fill="url(#U)"/><path d="M282.621 276.701c-3.063 1.882 4.57 8.329 5.422 8.378.868.033.295-3.583-1.147-5.825-1.261-1.997-3.194-3.224-4.275-2.553ZM289.156 285.767c-.459.72 1.916 2.716 2.26 1.996.344-.72-.229-1.98-.72-2.291-.492-.311-1.327-.033-1.54.295ZM139.079 218.494c.098 1.358 9.714-3.093 9.714-4.713s-9.861 2.422-9.714 4.713Z" fill="#fff"/><path d="M120.077 235.267s.131 2.978 1.818 6.218c0 0 4.668 3.208 13.825 2.848 9.157-.36 27.945-9.933 30.566-11.684 2.604-1.751 3.997-7.086 3.997-7.086l-50.206 9.704Z" fill="url(#V)"/><path d="M169.547 215.794c-4.636-1.866-16.544.687-23.834 3.371-7.289 2.667-19.198 10.898-25.652 16.102 0 0 .131 4.958 9.665 6.12 9.533 1.162 35.169-9.622 39.46-14.302 4.292-4.697.361-11.291.361-11.291Z" fill="url(#W)"/><path d="M136.523 223.796s16.184-2.177 24.439-8.362c0 0-13.907-.59-24.439 8.362Z" fill="url(#X)"/><path d="M158.522 215.794s-9.484 5.482-19.509 5.907c0 0-10.156.131-10.73-1.047-.556-1.179-.884-5.646 1.737-6.775 2.621-1.129 20.197-3.109 28.502 1.915Z" fill="url(#Y)"/><path d="M138.062 223.567s12.172.818 25.195 7.527l1.539-.851c0-.016-9.469-6.676-26.734-6.676Z" fill="url(#Z)"/><path d="M137.638 237.852s5.487-3.207 11.122-2.912c-.016 0-7.682 3.534-11.122 2.912Z" fill="#fff"/></g></g><path d="M417.119 317.969a23.16 23.16 0 0 0-2.093-1.078c-9.713-4.331-17.859 8.233-25.936 13.836a32.42 32.42 0 0 1-6.042 3.302c-1.734.721-3.703.698-5.506.776-1.933.084-3.867.051-5.8.047-3.796-.009-7.636.086-11.342 1.4-1.254.445-2.518 1.052-3.511 2.243-.243.291-.486.685-.449 1.137.051.635.583.899 1.02 1.001 3.257.755 6.662.406 9.929.075.404-.049.837-.089 1.187.204.294.246.478.685.694 1.063.997 1.738 2.698 2.183 4.255 2.399a32.6 32.6 0 0 0 11.235-.398c4.679-.985 7.288.648 11.499 3.08 4.659 2.691 10.191 2.571 15.119 2.367a107.739 107.739 0 0 0 20.501-2.853c2.532-.603 5.061-1.299 7.624-1.505 3.248-.261 6.499.269 9.747.532 4.134.334 8.332.2 12.399-1.001 3.644-1.076 6.89-3.577 10.526-4.941.323-.121.676-.274.853-.682.397-.919-.439-1.924-1.155-2.251-1.803-.824-3.72-.917-5.604-1.142-4.126-.491-8.383-1.497-12.259-3.607-3.805-2.072-7.499-4.979-11.506-6.296-5.218-1.716-10.761-.354-15.951-2.244-3.289-1.2-6.283-3.65-9.434-5.464Z" fill="#E7F4F7"/><path opacity=".55" d="M460.825 337.495c1.399-.188 2.715-.674 3.522-1.892.055-.084.096-.18.143-.271-3.559-.558-7.16-1.551-10.48-3.359-3.805-2.072-7.499-4.979-11.506-6.296-5.218-1.716-10.761-.354-15.951-2.244-3.29-1.198-6.284-3.649-9.435-5.463a23.16 23.16 0 0 0-2.093-1.078c-9.713-4.331-17.859 8.233-25.936 13.836a32.42 32.42 0 0 1-6.042 3.302c-1.734.721-3.703.698-5.506.776-1.933.084-3.867.051-5.8.047-3.796-.009-7.636.086-11.342 1.4-1.04.369-2.084.855-2.977 1.687 3.694 2.861 12.444-1.864 15.434-2.108.482-.039.985-.048 1.421.251.435.299.776.999.661 1.675-.114.676-.632 1.146-.637 1.842-.007.982.911 1.288 1.592 1.279 3.496-.05 6.934.285 10.397-.613 2.055-.533 4.173-1.148 6.178-1.968 5.09-2.083 10.212-3.016 15.485-1.826 3.823.863 7.781 1.969 11.508.465.712-.287 1.541-.942 1.5-2.007-.037-.947-.788-1.78-.536-2.657.132-.461.492-.679.82-.839 4.053-1.975 8.551-2.002 12.615-.076 4.235 2.007 7.985 4.647 12.419 5.666 3.355.771 6.765.797 10.152.592 1.172-.072 2.834.088 4.394-.121Z" fill="#fff"/><path d="M410.042 323.684c.652-1.21 1.062-2.414.649-3.164-.262-.476-.728-.583-1.15-.603-1.989-.092-3.906.991-5.732 2.136-6.907 4.333-12.566 12.286-20.177 14.043-.768.177-1.737.577-1.806 1.694 2.86 1.169 5.886-.443 8.587-2.235 2.701-1.792 5.499-3.84 8.466-3.565 1.276.118 2.549.669 3.814.404 1.997-.419 3.505-2.737 4.843-4.916.353-.575 1.642-2.189 2.506-3.794Z" fill="#fff"/><path opacity=".6" d="M471.873 336.721a9.087 9.087 0 0 0-1.391-.487c-.793 6.535-10.076 7.149-17.993 6.304-3.765-.085-7.392-.799-10.014-1.466-3.745-.953-7.714-1.969-11.503-.85-2.336.69-4.574 2.177-6.824 3.281-1.988.975-4.402 2.163-6.716 2.358-.69.329-1.38.635-2.068.882-3.942 1.414-8.779.699-12.772-.03-4.363-.797-6.179-6.474-10.84-5.824-2.472.345-4.92.958-7.371 1.52-2.113.485-4.253.791-6.395.76a17.84 17.84 0 0 1-3.315-.346c-.847-.173-2.232-.242-2.944-.987a1.241 1.241 0 0 1-.324-.913c.021-.315.168-.587.2-.9.045-.45-.165-.89-.438-1.119-.272-.229-.596-.288-.91-.328-1.867-.237-3.932.17-5.754.715-1.816.543-3.867.315-5.715.145-.547-.05-1.119-.129-1.576-.566a1.442 1.442 0 0 1-.294-.403l-.027.029c-.243.291-.486.685-.449 1.137.051.635.583.899 1.02 1.001 3.257.755 6.662.406 9.929.075.404-.049.837-.089 1.187.204.294.246.478.685.694 1.063.997 1.738 2.698 2.183 4.255 2.399a32.6 32.6 0 0 0 11.235-.398c4.679-.985 7.288.648 11.499 3.08 4.659 2.691 10.191 2.571 15.119 2.367a107.66 107.66 0 0 0 20.501-2.854c2.532-.603 5.061-1.299 7.624-1.506 3.248-.261 6.499.27 9.747.532 4.134.334 8.332.2 12.399-1.001 3.644-1.076 6.89-3.577 10.526-4.941.323-.121.676-.274.853-.682.397-.919-.439-1.924-1.155-2.251Z" fill="#A1CBE5"/><path fill-rule="evenodd" clip-rule="evenodd" d="M368.774 266.923h27.099c4.776 0 8.684 3.909 8.684 8.684v77.127c0 4.777-3.908 8.686-8.684 8.686h-27.099c-4.778 0-8.686-3.909-8.686-8.686v-77.127c0-4.775 3.908-8.684 8.686-8.684Z" fill="#533D3D"/><path fill-rule="evenodd" clip-rule="evenodd" d="M475.28 304.094c-45.343 28.152-140.571 28.152-185.913 0-1.435-.892-2.359-2.191-2.751-3.866-.392-1.677-.141-3.266.743-4.728l89.838-148.713c1.134-1.877 2.978-2.932 5.126-2.932 2.149 0 3.993 1.055 5.127 2.932L477.288 295.5c.886 1.464 1.135 3.051.743 4.728-.392 1.675-1.316 2.974-2.751 3.866Z" fill="#4A8C45"/><path fill-rule="evenodd" clip-rule="evenodd" d="M475.28 304.094c-5.345 3.318-11.391 6.242-17.958 8.778 1.198-21.752-8.662-44.06-12.491-50.51-5.502-9.264-22.001-6.949-22.001-6.949-52.403 8.396-96.696-6.08-101.619-6.368-1.866-.109-4.605 1.03-7.288 2.487l33.518-55.483a75.427 75.427 0 0 1 5.614-1.72c21.606-5.701 42.741-2.538 63.977 1.428l60.256 99.745c.886 1.464 1.135 3.051.743 4.728-.392 1.674-1.316 2.972-2.751 3.864Z" fill="#417A3A"/><path fill-rule="evenodd" clip-rule="evenodd" d="M455.643 232.422c-35.763 22.203-110.873 22.203-146.637 0-1.132-.704-1.858-1.727-2.166-3.051-.311-1.321-.113-2.574.584-3.73l70.858-117.293c.895-1.48 2.35-2.313 4.043-2.313 1.694 0 3.149.832 4.044 2.313l70.858 117.293c.697 1.154.893 2.407.584 3.73-.312 1.324-1.038 2.347-2.168 3.051Z" fill="#5AA24B"/><path fill-rule="evenodd" clip-rule="evenodd" d="M455.643 232.421c-6.364 3.95-13.976 7.195-22.389 9.74 10.494-16.075-.662-45.649-4.202-51.023-4.198-6.368-10.423-5.5-10.423-5.5-40.18 8.975-81.791-3.184-83.512-2.895-.479.081-1.615.894-3.004 2.024l23.924-39.6c13.288-6.705 28.596-11.372 43.677-14.725l57.511 95.201c.697 1.154.893 2.406.585 3.729-.311 1.323-1.037 2.345-2.167 3.049Z" fill="#4A8C45"/><path fill-rule="evenodd" clip-rule="evenodd" d="M436.459 168.734c-26.407 16.395-81.864 16.395-108.27 0-.835-.518-1.375-1.275-1.6-2.25a3.585 3.585 0 0 1 .431-2.756l52.321-86.605c.66-1.094 1.734-1.708 2.983-1.708 1.251 0 2.325.614 2.985 1.708l52.318 86.605c.516.852.665 1.778.434 2.756-.231.973-.767 1.73-1.602 2.25Z" fill="#6BA94B"/><path fill-rule="evenodd" clip-rule="evenodd" d="M436.46 168.734c-5.521 3.427-12.315 6.136-19.844 8.132 5.267-33.697-28.851-85.973-34.755-89.516-3.903-2.342-7.125-.905-9.08.624l6.559-10.851c.637-1.06 1.665-1.669 2.869-1.706l.052-.002h.123l.055.002c1.201.036 2.231.646 2.868 1.706l52.318 86.605c.517.852.665 1.777.435 2.756-.23.973-.765 1.73-1.6 2.25Z" fill="#5AA24B"/><path fill-rule="evenodd" clip-rule="evenodd" d="m389.538 44.549 13.782 1.585a1.567 1.567 0 0 1 1.334 1.09 1.564 1.564 0 0 1-.439 1.666l-10.219 9.383 2.751 13.598a1.562 1.562 0 0 1-.624 1.604 1.569 1.569 0 0 1-1.719.099l-12.083-6.818-12.081 6.818a1.564 1.564 0 0 1-1.72-.099 1.565 1.565 0 0 1-.626-1.604l2.753-13.598-10.22-9.383a1.565 1.565 0 0 1-.438-1.665 1.567 1.567 0 0 1 1.331-1.091l13.786-1.585 5.766-12.618c.264-.58.811-.93 1.449-.93.639 0 1.183.35 1.449.93l5.768 12.618Z" fill="#EAB942"/><path fill-rule="evenodd" clip-rule="evenodd" d="M364.321 101.98c-4.303.153-7.42 1.27-9.493 3.116-2.064 1.84-3.126 4.46-3.32 7.619a19.243 19.243 0 0 0-.029 1.648c.092 3.407.929 7.111 2.381 10.965 4.711 12.502 15.821 26.419 29.01 37.134 13.138 10.679 28.292 18.143 41.135 17.795 3.026-.08 5.925-.604 8.637-1.623 4.314-1.628 7.291-4.285 8.633-7.233.775-1.708 1-3.515.607-5.266-.394-1.77-1.427-3.514-3.161-5.077-1.164-1.052-2.635-2.015-4.428-2.848l-2.079-3.443c3.499 1.155 6.196 2.698 8.152 4.462 2.126 1.919 3.402 4.111 3.909 6.376.511 2.286.23 4.621-.761 6.805-1.6 3.521-5.058 6.655-10.01 8.522-2.971 1.116-6.141 1.687-9.444 1.778-13.465.364-29.191-7.333-42.741-18.345-13.504-10.974-24.9-25.277-29.76-38.173-1.542-4.098-2.435-8.071-2.534-11.773a19.73 19.73 0 0 1 .029-1.851c.235-3.809 1.556-7.01 4.138-9.311 2.533-2.259 6.254-3.602 11.311-3.737.429-.011.867-.013 1.311-.01l-1.493 2.47Z" fill="#533D3D"/><path fill-rule="evenodd" clip-rule="evenodd" d="M355.548 136.349a4.442 4.442 0 0 0 4.432-4.432 4.44 4.44 0 0 0-4.432-4.428 4.437 4.437 0 0 0-4.43 4.428 4.439 4.439 0 0 0 4.43 4.432Z" fill="#CD5D58"/><path fill-rule="evenodd" clip-rule="evenodd" d="M355.11 107.624a4.438 4.438 0 0 0 4.429-4.43 4.438 4.438 0 0 0-4.429-4.43 4.44 4.44 0 0 0-4.43 4.43 4.441 4.441 0 0 0 4.43 4.43Z" fill="#EAB942"/><path fill-rule="evenodd" clip-rule="evenodd" d="M378.088 164.471c2.439 0 4.43-1.99 4.43-4.429a4.44 4.44 0 0 0-4.43-4.431 4.44 4.44 0 0 0-4.432 4.431 4.438 4.438 0 0 0 4.432 4.429Z" fill="#417B3E"/><path fill-rule="evenodd" clip-rule="evenodd" d="M408.195 183.177a4.437 4.437 0 0 0 4.428-4.432 4.436 4.436 0 0 0-4.428-4.428 4.437 4.437 0 0 0-4.43 4.428 4.438 4.438 0 0 0 4.43 4.432Z" fill="#CD5D58"/><path fill-rule="evenodd" clip-rule="evenodd" d="M442.435 175.519a4.437 4.437 0 0 0 4.429-4.43 4.437 4.437 0 0 0-4.429-4.43 4.437 4.437 0 0 0-4.431 4.43 4.437 4.437 0 0 0 4.431 4.43Z" fill="#EAB942"/><path fill-rule="evenodd" clip-rule="evenodd" d="M330.677 187.147c-2.446-.103-4.584.172-6.428.753-2.258.712-4.07 1.89-5.457 3.402-1.395 1.519-2.376 3.387-2.963 5.468-1.065 3.777-.838 8.246.547 12.64 6.811 21.592 26.078 40.748 49.123 54.773 26.189 15.935 57.199 25.217 80.378 23.933 16.441-.91 25.478-5.899 29.013-11.961 1.529-2.625 2.017-5.465 1.616-8.25-.404-2.824-1.718-5.608-3.775-8.081-4.502-5.403-12.509-9.287-22.404-8.953l-1.441-2.385c11.332-.782 20.586 3.593 25.728 9.772 2.351 2.823 3.856 6.027 4.324 9.303.476 3.318-.104 6.698-1.926 9.824-3.911 6.716-13.608 12.219-31.004 13.184-23.645 1.311-55.202-8.11-81.789-24.29-23.51-14.305-43.188-33.922-50.193-56.127-1.526-4.839-1.761-9.804-.564-14.047.688-2.444 1.853-4.655 3.519-6.468 1.673-1.822 3.842-3.237 6.529-4.084 2.432-.767 5.295-1.067 8.597-.776l-1.43 2.37Z" fill="#533D3D"/><path fill-rule="evenodd" clip-rule="evenodd" d="M319.28 224.191a4.44 4.44 0 0 0 4.432-4.43 4.44 4.44 0 0 0-4.432-4.43 4.438 4.438 0 0 0-4.429 4.43c0 2.439 1.99 4.43 4.429 4.43Z" fill="#CD5D58"/><path fill-rule="evenodd" clip-rule="evenodd" d="M321.667 192.052a4.439 4.439 0 0 0 4.428-4.43 4.438 4.438 0 0 0-4.428-4.43 4.439 4.439 0 0 0-4.432 4.43 4.442 4.442 0 0 0 4.432 4.43Z" fill="#EAB942"/><path fill-rule="evenodd" clip-rule="evenodd" d="M339.807 250.795a4.439 4.439 0 0 0 4.432-4.429 4.44 4.44 0 0 0-4.432-4.43 4.437 4.437 0 0 0-4.428 4.43 4.437 4.437 0 0 0 4.428 4.429Z" fill="#6BA94B"/><path fill-rule="evenodd" clip-rule="evenodd" d="M372.147 273.859a4.44 4.44 0 0 0 4.429-4.432 4.437 4.437 0 0 0-4.429-4.428 4.437 4.437 0 0 0-4.431 4.428 4.442 4.442 0 0 0 4.431 4.432Z" fill="#CD5D58"/><path fill-rule="evenodd" clip-rule="evenodd" d="M404.555 287.628a4.438 4.438 0 0 0 4.432-4.429 4.44 4.44 0 0 0-4.432-4.431 4.435 4.435 0 0 0-4.426 4.431 4.436 4.436 0 0 0 4.426 4.429Z" fill="#EAB942"/><path fill-rule="evenodd" clip-rule="evenodd" d="M438.345 293.835a4.44 4.44 0 0 0 4.43-4.432 4.439 4.439 0 0 0-4.43-4.43 4.44 4.44 0 0 0-4.43 4.43 4.443 4.443 0 0 0 4.43 4.432Z" fill="#6BA94B"/><path fill-rule="evenodd" clip-rule="evenodd" d="M465.664 289.633a4.439 4.439 0 0 0 4.432-4.429 4.44 4.44 0 0 0-4.432-4.43 4.439 4.439 0 0 0-4.43 4.43 4.438 4.438 0 0 0 4.43 4.429Z" fill="#CD5D58"/><path fill-rule="evenodd" clip-rule="evenodd" d="M477.007 269.248a4.438 4.438 0 0 0 4.43-4.428 4.44 4.44 0 0 0-4.43-4.431 4.44 4.44 0 0 0-4.432 4.431 4.439 4.439 0 0 0 4.432 4.428Z" fill="#EAB942"/><path fill-rule="evenodd" clip-rule="evenodd" d="M457.24 254.53a4.438 4.438 0 0 0 4.43-4.432 4.437 4.437 0 0 0-4.43-4.428 4.437 4.437 0 0 0-4.429 4.428 4.44 4.44 0 0 0 4.429 4.432Z" fill="#6BA94B"/><path fill-rule="evenodd" clip-rule="evenodd" d="M386.35 330.904h-26.262v21.83c0 4.778 3.908 8.686 8.686 8.686h24.74c1.643-5.224 1.524-12.933 1.524-18.79-.002-9.12-2.318-11.726-8.688-11.726Z" fill="#715353"/><path fill-rule="evenodd" clip-rule="evenodd" d="m385.906 48.5 6.838.788c.314.037.564.24.661.542a.77.77 0 0 1-.218.825l-5.069 4.656 1.364 6.746a.768.768 0 0 1-.311.794.772.772 0 0 1-.852.05l-5.996-3.383-5.995 3.383a.772.772 0 0 1-.852-.05.778.778 0 0 1-.312-.794l1.366-6.746-5.071-4.657a.772.772 0 0 1-.217-.825.775.775 0 0 1 .66-.541l6.84-.788 2.862-6.26a.778.778 0 0 1 .719-.462c.315 0 .588.174.718.462l2.865 6.26Z" fill="#F4D98E"/><path fill-rule="evenodd" clip-rule="evenodd" d="M371.331 106.79a.61.61 0 0 1 1.22 0v5.41a.611.611 0 0 1-1.22 0v-5.41Z" fill="#F7F5D9"/><path fill-rule="evenodd" clip-rule="evenodd" d="M375.056 112.036c4.242 1.323 7.322 5.285 7.322 9.964 0 5.763-4.672 10.436-10.435 10.436-5.764 0-10.436-4.671-10.436-10.436 0-4.679 3.081-8.64 7.324-9.964.353-.118.687-.575.978-1.156.292-.584.474-1.31.861-1.392.67-.143 1.875-.143 2.545 0 .387.082.571.809.862 1.392.29.581.624 1.038.979 1.156Z" fill="#DE9A65"/><path fill-rule="evenodd" clip-rule="evenodd" d="M370.511 128.781c4.253 0 7.722-3.469 7.722-7.721 0-4.251-3.469-7.721-7.722-7.721-4.252 0-7.719 3.47-7.719 7.721 0 4.252 3.467 7.721 7.719 7.721Z" fill="#F2D178"/><path fill-rule="evenodd" clip-rule="evenodd" d="M369.654 122.803a3.737 3.737 0 0 0 3.73-3.728 3.736 3.736 0 0 0-3.73-3.727 3.733 3.733 0 0 0-3.727 3.727 3.734 3.734 0 0 0 3.727 3.728ZM427.716 207.357a.61.61 0 0 1 1.22 0v5.41a.61.61 0 0 1-1.22 0v-5.41Z" fill="#F7F5D9"/><path fill-rule="evenodd" clip-rule="evenodd" d="M431.437 212.602c4.244 1.324 7.324 5.286 7.324 9.966 0 5.763-4.672 10.436-10.435 10.436-5.764 0-10.436-4.673-10.436-10.436 0-4.68 3.081-8.642 7.324-9.966.352-.118.687-.573.976-1.156.292-.583.476-1.31.863-1.392.67-.142 1.875-.142 2.546 0 .385.082.57.811.861 1.392.291.583.624 1.038.977 1.156Z" fill="#DE9A65"/><path fill-rule="evenodd" clip-rule="evenodd" d="M426.894 229.348c4.255 0 7.721-3.468 7.721-7.721 0-4.251-3.466-7.721-7.721-7.721-4.252 0-7.719 3.47-7.719 7.721 0 4.253 3.467 7.721 7.719 7.721Z" fill="#F2D178"/><path fill-rule="evenodd" clip-rule="evenodd" d="M426.037 223.37a3.736 3.736 0 0 0 3.73-3.727 3.736 3.736 0 0 0-3.73-3.73 3.735 3.735 0 0 0-3.727 3.73 3.734 3.734 0 0 0 3.727 3.727ZM318.857 281.472a.611.611 0 0 1 1.223 0v5.409a.612.612 0 0 1-1.223 0v-5.409Z" fill="#F7F5D9"/><path fill-rule="evenodd" clip-rule="evenodd" d="M322.58 286.719c4.243 1.322 7.324 5.284 7.324 9.964 0 5.763-4.672 10.436-10.436 10.436-5.765 0-10.435-4.672-10.435-10.436 0-4.68 3.082-8.64 7.323-9.964.354-.118.688-.575.978-1.156.291-.584.475-1.311.862-1.394.672-.142 1.875-.142 2.545 0 .387.083.569.811.861 1.394.291.581.625 1.036.978 1.156Z" fill="#DE9A65"/><path fill-rule="evenodd" clip-rule="evenodd" d="M318.036 303.463c4.254 0 7.721-3.47 7.721-7.721 0-4.252-3.467-7.721-7.721-7.721-4.251 0-7.718 3.469-7.718 7.721 0 4.251 3.467 7.721 7.718 7.721Z" fill="#F2D178"/><path fill-rule="evenodd" clip-rule="evenodd" d="M317.179 297.484a3.732 3.732 0 0 0 3.726-3.726 3.734 3.734 0 0 0-3.726-3.728 3.736 3.736 0 0 0-3.728 3.728 3.735 3.735 0 0 0 3.728 3.726ZM373.567 211.316a.61.61 0 0 1 1.219 0v5.41a.608.608 0 0 1-1.219 0v-5.41Z" fill="#F7F5D9"/><path fill-rule="evenodd" clip-rule="evenodd" d="M377.29 216.563c4.244 1.326 7.326 5.285 7.326 9.965 0 5.765-4.672 10.437-10.437 10.437-5.764 0-10.438-4.672-10.438-10.437 0-4.68 3.082-8.639 7.328-9.965.351-.116.683-.571.976-1.154.292-.583.474-1.313.861-1.395.673-.141 1.875-.141 2.545 0 .388.082.571.812.861 1.395.293.581.625 1.038.978 1.154Z" fill="#CD5D58"/><path fill-rule="evenodd" clip-rule="evenodd" d="M372.748 233.307c4.25 0 7.721-3.469 7.721-7.721 0-4.253-3.471-7.72-7.721-7.72-4.251 0-7.722 3.467-7.722 7.72 0 4.252 3.471 7.721 7.722 7.721Z" fill="#D37673"/><path fill-rule="evenodd" clip-rule="evenodd" d="M371.891 227.329a3.735 3.735 0 0 0 3.727-3.728 3.736 3.736 0 0 0-3.727-3.729 3.738 3.738 0 0 0-3.73 3.729 3.737 3.737 0 0 0 3.73 3.728ZM413.489 134.511a.608.608 0 1 1 1.219 0v5.41a.609.609 0 1 1-1.219 0v-5.41Z" fill="#F7F5D9"/><path fill-rule="evenodd" clip-rule="evenodd" d="M417.21 139.757c4.242 1.323 7.324 5.286 7.324 9.964 0 5.763-4.672 10.437-10.435 10.437-5.764 0-10.436-4.672-10.436-10.437 0-4.678 3.082-8.639 7.324-9.964.353-.117.687-.574.977-1.155.291-.583.475-1.311.862-1.393.672-.143 1.875-.143 2.547 0 .385.082.569.81.86 1.393.29.581.624 1.038.977 1.155Z" fill="#CD5D58"/><path fill-rule="evenodd" clip-rule="evenodd" d="M412.668 156.502c4.252 0 7.719-3.468 7.719-7.721 0-4.251-3.467-7.721-7.719-7.721-4.253 0-7.72 3.47-7.72 7.721-.001 4.254 3.467 7.721 7.72 7.721Z" fill="#D37673"/><path fill-rule="evenodd" clip-rule="evenodd" d="M411.809 150.522a3.735 3.735 0 0 0 3.731-3.727 3.738 3.738 0 0 0-3.731-3.728 3.735 3.735 0 0 0-3.726 3.728 3.731 3.731 0 0 0 3.726 3.727Z" fill="#F7F5D9"/><path fill-rule="evenodd" clip-rule="evenodd" d="M340.058 212.785a4.526 4.526 0 0 0 4.515-4.519 4.523 4.523 0 0 0-4.515-4.515 4.525 4.525 0 0 0-4.517 4.515 4.526 4.526 0 0 0 4.517 4.519ZM387.45 151.303a4.526 4.526 0 0 0 4.515-4.517 4.525 4.525 0 0 0-4.515-4.515 4.523 4.523 0 0 0-4.515 4.515 4.523 4.523 0 0 0 4.515 4.517Z" fill="#EFECBE"/><path d="M360.088 300.879a4.514 4.514 0 1 0 .001-9.029 4.514 4.514 0 0 0-.001 9.029Z" fill="#EFECBE"/><path fill-rule="evenodd" clip-rule="evenodd" d="M434.907 260.473a4.523 4.523 0 0 0 4.515-4.515 4.526 4.526 0 0 0-4.515-4.517 4.526 4.526 0 0 0-4.515 4.517 4.522 4.522 0 0 0 4.515 4.515ZM351.889 166.313a2.263 2.263 0 0 0 2.258-2.259 2.262 2.262 0 0 0-2.258-2.258 2.262 2.262 0 0 0-2.257 2.258 2.261 2.261 0 0 0 2.257 2.259ZM395.629 125.941a2.262 2.262 0 0 0 2.259-2.257 2.262 2.262 0 0 0-2.259-2.258 2.265 2.265 0 0 0-2.258 2.258 2.262 2.262 0 0 0 2.258 2.257ZM404 209.161a2.262 2.262 0 0 0 2.258-2.258 2.262 2.262 0 0 0-2.258-2.259 2.262 2.262 0 0 0-2.257 2.259 2.261 2.261 0 0 0 2.257 2.258ZM334.516 275.171a2.265 2.265 0 0 0 2.259-2.258 2.265 2.265 0 0 0-2.259-2.261 2.265 2.265 0 0 0-2.258 2.261 2.265 2.265 0 0 0 2.258 2.258ZM404.556 307.596a2.264 2.264 0 0 0 2.258-2.26 2.263 2.263 0 0 0-2.258-2.258 2.264 2.264 0 0 0-2.257 2.258 2.265 2.265 0 0 0 2.257 2.26Z" fill="#EFECBE"/><path fill-rule="evenodd" clip-rule="evenodd" d="m88.504 181.181 14.444 25.492 7.808 33.927-26.8-19.966-16.662-45.877 21.21 6.424Z" fill="#B72358"/><path fill-rule="evenodd" clip-rule="evenodd" d="m88.504 181.181 58.916-23.597 22.252 59.42-58.916 23.597-22.252-59.42Z" fill="#EF3E68"/><path fill-rule="evenodd" clip-rule="evenodd" d="m146.046 226.466-11.664 4.671-17.773-47.46 5.362-2.134 6.312-2.51 17.763 47.433Z" fill="#C2DD39"/><path fill-rule="evenodd" clip-rule="evenodd" d="m155.044 169.423-63.577 25.226-4.906-13.099 24.531-15.171 38.846-10.592 5.106 13.636Z" fill="#EF3E68"/><path fill-rule="evenodd" clip-rule="evenodd" d="m129.415 179.592-12.481 4.953-6.173-16.978 12.5-4.408 6.154 16.433Z" fill="#CEEA44"/><path fill-rule="evenodd" clip-rule="evenodd" d="m91.467 194.65-22.337-8.299-4.646-12.51 22.077 7.71 4.906 13.099Z" fill="#A70F45"/><path fill-rule="evenodd" clip-rule="evenodd" d="m64.453 173.861 52.89-21.487 32.662 3.591-63.443 25.586-22.109-7.69Z" fill="#F66687"/><path fill-rule="evenodd" clip-rule="evenodd" d="m116.934 184.545 1.026 2.74-21.184 8.494-2.439.979-1.059-2.828 2-.794 21.656-8.591Z" fill="#B72358"/><path fill-rule="evenodd" clip-rule="evenodd" d="m117.96 187.285-1.026-2.74 11.678-4.634 1.011 2.698-11.663 4.676Z" fill="#AAC32F"/><path fill-rule="evenodd" clip-rule="evenodd" d="m129.623 182.609-1.01-2.698.802-.319 22.852-9.066.978 2.611-23.622 9.472Z" fill="#B72358"/><path fill-rule="evenodd" clip-rule="evenodd" d="m78.897 178.883 4.749 12.86-7.695-2.858-4.696-12.659 5.786 1.999 1.856.658Z" fill="#AAC32F"/><path fill-rule="evenodd" clip-rule="evenodd" d="m85.113 192.289 15.171 40.511-9.078-6.765-13.695-36.572 6.135 2.281 1.467.545Z" fill="#AAC32F"/><path fill-rule="evenodd" clip-rule="evenodd" d="m77.51 189.462 1.412 3.771-5.607-1.904-1.438-3.958 4.074 1.514 1.56.577Z" fill="#951643"/><path fill-rule="evenodd" clip-rule="evenodd" d="m78.923 193.234-1.412-3.771 6.135 2.281 1.467.545 1.307 3.491-7.497-2.546Z" fill="#8AA01E"/><path fill-rule="evenodd" clip-rule="evenodd" d="m86.42 195.779-1.307-3.49 6.355 2.361 1.81-.72 1.06 2.828-2.471.871-5.447-1.85Z" fill="#951643"/><path fill-rule="evenodd" clip-rule="evenodd" d="m71.625 176.069 22.046-9.384-7.987-1.45 10.842-4.405 6.341 1.183 21.166-8.904 10.687 1.174-22.348 9.454 4.742 1 1.046.222 6.27 1.32-12.329 4.972-6.867-1.249-3.485-.633-21.999 9.159-.853.355-7.642-2.657.37-.157Z" fill="#E0FB5D"/><path fill-rule="evenodd" clip-rule="evenodd" d="M72.192 162.978s15.083-7.556 28.838-.829c1.938.947 4.508 1.533 6.315 3.139l.543-4.792c-6.865-7.777-18.446-11.439-29.75-8.364-3.567 3.119-4.239 5.802-5.946 10.846Z" fill="#E0FB5D"/><path fill-rule="evenodd" clip-rule="evenodd" d="M72.193 162.977s10.316 15.031 35.153 2.311a25.02 25.02 0 0 0-5.369-3.66c-13.82-6.975-29.784 1.349-29.784 1.349Z" fill="#C2DD39"/><path fill-rule="evenodd" clip-rule="evenodd" d="M82.167 159.632c3.28 3.577 12.642 3.632 18.041 1.189-6.286-2.573-12.849-2.253-18.041-1.189Z" fill="#EC7061"/><path fill-rule="evenodd" clip-rule="evenodd" d="M73.34 164.314c3.742-1.617 7.136-2.815 10.182-3.587a6.26 6.26 0 0 1-1.355-1.095c-5.86 1.202-9.975 3.346-9.975 3.346s.374.543 1.148 1.336ZM99.724 162.074c2.39 1.039 4.529 2.309 6.422 3.812.395-.192.797-.391 1.2-.598a25.057 25.057 0 0 0-5.874-3.907c-.42-.201-.841-.386-1.263-.559a15.887 15.887 0 0 1-1.849.694c.461.178.918.365 1.364.558Z" fill="#AAC32F"/><path fill-rule="evenodd" clip-rule="evenodd" d="M83.558 192.713c3.472-18.485 22.588-26.827 22.588-26.827-1.11-1.011-4.072-2.602-4.676-2.902-9.712 1.361-21.034 10.759-25.186 21.012 2.345 3.311 4.612 5.631 7.274 8.717Z" fill="#D2EC53"/><path fill-rule="evenodd" clip-rule="evenodd" d="M132.374 140.44s-16.336 4.21-22.289 18.318c-.838 1.986-2.39 4.116-2.699 6.515l-3.555-3.257c.065-10.373 6.393-20.742 16.935-25.848 4.74.008 7.008 1.591 11.608 4.272Z" fill="#E0FB5D"/><path fill-rule="evenodd" clip-rule="evenodd" d="M132.375 140.44s2.095 18.109-24.989 24.833a25.084 25.084 0 0 1 1.646-6.287c5.837-14.336 23.343-18.546 23.343-18.546Z" fill="#C2DD39"/><path fill-rule="evenodd" clip-rule="evenodd" d="M122.657 144.469c-.124 4.852-7.147 11.042-12.822 12.747 3.048-6.069 8.206-10.138 12.822-12.747Z" fill="#EC7061"/><path fill-rule="evenodd" clip-rule="evenodd" d="M132.387 142.202c-3.886 1.239-7.23 2.565-10.034 3.983a6.267 6.267 0 0 0 .304-1.715c5.207-2.943 9.717-4.029 9.717-4.029s.077.654.013 1.761ZM111.023 157.843c-1.12 2.353-1.899 4.716-2.34 7.092a55.4 55.4 0 0 1-1.297.338 25.17 25.17 0 0 1 1.644-6.287c.07-.175.145-.348.218-.517.186-.428.382-.844.586-1.252a13.63 13.63 0 0 0 1.168-.405c.226-.089.454-.184.682-.286a31.76 31.76 0 0 0-.661 1.317Z" fill="#AAC32F"/><path fill-rule="evenodd" clip-rule="evenodd" d="M143.337 170.326c-14.76-11.657-34.653-5.391-34.653-5.391.173-1.491 1.361-4.636 1.62-5.259 8.217-5.353 22.927-5.704 32.793-.7.405 4.036.221 7.275.24 11.35Z" fill="#D2EC53"/><path fill-rule="evenodd" clip-rule="evenodd" d="m85.298 272.5 2.678 17.172 8.86 18.634 5.092-19.179-9.15-27.452-7.48 10.825Z" fill="#CE601B"/><path fill-rule="evenodd" clip-rule="evenodd" d="m85.349 272.827.2 1.285 12.125 2.251-.444-1.331-11.881-2.205Zm.716 4.592 12.75 2.367.443 1.331-12.992-2.412-.2-1.286Zm.716 4.593.2 1.285 13.86 2.574-.443-1.331-13.617-2.528Zm.716 4.593 14.391 2.672-.317 1.189-13.874-2.576-.2-1.285Zm1.251 4.693.651 1.369 11.045 2.05.316-1.189-12.012-2.23Zm2.327 4.891 8.556 1.589-.315 1.189-7.59-1.409-.65-1.369Zm2.326 4.892.651 1.369 4.135.768.317-1.19-5.103-.947Zm2.328 4.893.65 1.368.68.126.315-1.189-1.645-.305Zm.276-34.616-7.082-1.315.245-1.202 6.393 1.186.444 1.331Z" fill="#E7E6D9"/><path fill-rule="evenodd" clip-rule="evenodd" d="m85.298 272.5-36.03 10.841 11.538 35.804 36.03-10.839L85.299 272.5Z" fill="#FD8016"/><path fill-rule="evenodd" clip-rule="evenodd" d="m80.014 274.09-2.108.634-22.824 26.659.428 1.328 24.504-28.621Zm-7.926 2.384-18.187 21.243-.428-1.328 16.507-19.281 2.108-.634Zm-7.926 2.385-11.87 13.865-.428-1.328 10.19-11.903 2.108-.634Zm-7.927 2.385-5.553 6.486-.428-1.327 3.874-4.525 2.107-.634Zm.456 25.132 28.715-33.539.428 1.328-28.715 33.539-.428-1.328Zm1.53 4.745 28.714-33.54.428 1.328-28.715 33.539-.428-1.327Zm4.907 7.326 26.865-31.379.428 1.328-25.185 29.417-2.108.634Zm7.53-2.265 2.107-.634 19.184-22.408-.428-1.326-20.863 24.368Zm7.53-2.266 2.107-.634 13.183-15.398-.427-1.327-14.862 17.359Zm7.53-2.266 2.107-.633 7.181-8.389-.427-1.327-8.861 10.349Zm7.53-2.265 2.106-.634 1.181-1.379-.428-1.328-2.86 3.341Zm-4.356-25.733L60.18 317.193l-.43-1.326 28.713-33.542.428 1.327Z" fill="#F5F4EB"/><path fill-rule="evenodd" clip-rule="evenodd" d="m75.255 314.798 7.133-2.146-9.217-28.599-3.274.994-3.853 1.168 9.211 28.583Z" fill="#8A7BD3"/><path fill-rule="evenodd" clip-rule="evenodd" d="m50.086 291.655 38.793-11.809-2.544-7.893-16.969 2.033-21.894 9.56 2.614 8.109Z" fill="#FD8016"/><path fill-rule="evenodd" clip-rule="evenodd" d="m50.131 291.64 2.116-.643 13.038-15.23-2.497 1.091L50.13 291.64Zm7.96-2.422 13.242-15.468 1.744-.209-12.871 15.033-2.115.644Zm7.957-2.423 11.842-13.83 1.744-.209-11.47 13.395-2.116.644Zm7.959-2.422 2.116-.643 10.067-11.759-1.743.209-10.44 12.193Zm7.56-2.301 2.117-.645 4.145-4.84-.428-1.328-5.833 6.813Zm-25.679-2.201-6.975 8.145-.427-1.326 4.903-5.728 2.5-1.091Z" fill="#F5F4EB"/><path fill-rule="evenodd" clip-rule="evenodd" d="m65.724 286.895 7.617-2.318-3.384-10.162-7.424 2.578 3.19 9.902Z" fill="#8A7BD3"/><path fill-rule="evenodd" clip-rule="evenodd" d="m88.879 279.846 7.313-12.112-2.447-7.525-7.41 11.744 2.544 7.893Z" fill="#CE601B"/><path fill-rule="evenodd" clip-rule="evenodd" d="m93.767 260.207-32.456 9.59-13.839 13.748 38.863-11.593 7.432-11.745Z" fill="#FDA117"/><path fill-rule="evenodd" clip-rule="evenodd" d="m73.34 284.576.532 1.651 12.959-3.893 1.491-.448-.549-1.703-1.22.371-13.213 4.022Z" fill="#CE601B"/><path fill-rule="evenodd" clip-rule="evenodd" d="m73.872 286.227-.532-1.651-7.125 2.169.524 1.626 7.133-2.144Z" fill="#7464B7"/><path fill-rule="evenodd" clip-rule="evenodd" d="m66.739 288.371-.525-1.626-.49.15-13.944 4.244.507 1.574 14.452-4.342Z" fill="#CE601B"/><path fill-rule="evenodd" clip-rule="evenodd" d="m88.912 267.881 2.528 7.724 2.52-4.173-2.48-7.611-1.95 3.068-.618.992Z" fill="#7464B7"/><path fill-rule="evenodd" clip-rule="evenodd" d="m90.96 276.4 7.866 24.41 1.724-6.496-7.102-22.036-2.008 3.326-.48.796Z" fill="#7464B7"/><path fill-rule="evenodd" clip-rule="evenodd" d="m93.449 272.278.732 2.272 1.904-2.957-.791-2.37-1.334 2.209-.511.846Z" fill="#933F0A"/><path fill-rule="evenodd" clip-rule="evenodd" d="m94.18 274.55-.732-2.272-2.008 3.326-.48.796.678 2.104 2.542-3.954Z" fill="#544889"/><path fill-rule="evenodd" clip-rule="evenodd" d="m91.637 278.504-.677-2.104-2.081 3.446-1.106.337.55 1.703 1.467-.509 1.847-2.873Z" fill="#933F0A"/><path fill-rule="evenodd" clip-rule="evenodd" d="m91.25 263.885-13.685 3.799 3.173-3.627-6.653 1.966-2.508 2.894-13.1 3.697-4.529 4.498 13.852-3.879-1.833 2.218-.405.49-2.424 2.931 7.553-2.252 2.727-3.12 1.385-1.583 13.582-3.886.527-.15 2.568-4.06-.23.064Z" fill="#9A89E5"/><path fill-rule="evenodd" clip-rule="evenodd" d="m87.401 275.26 3.642-.875.398 1.22-3.612.982-.428-1.327ZM89.665 270.181l-2.533.512-.707 1.118-.09.142 3.635-.837-.305-.935ZM93.37 269.621l.231.712 1.177-.256.106-.175.41-.678.273-.453-.393.094-1.903.455.099.301ZM95.514 265.647l-.415-1.285-1.333.278-1.89.393.42 1.292 1.898-.4 1.32-.278Z" fill="#E7E6D9"/><path fill-rule="evenodd" clip-rule="evenodd" d="m54.197 280.609-1.123-2.628-1.672 1.661.796 1.841.25.579 2.101-.627-.352-.826Zm35.072-16.174-1.59-2.428-2.353.695 1.642 2.372 2.301-.639Zm-5.133 4.813-2.178.622 1.819 2.39.282.371 1.445-.431.657-.195.029-.035-.274-.365-1.78-2.357Zm-4.319-2.189 2.207-.613-1.563-2.072-1.437 1.643.793 1.042Zm-3.837 4.522-1.177.336-.616.706.595.714 1.374 1.653 2.101-.627-.764-.933-.31-.38-1.203-1.469Zm-6.222-4.279 1.434 1.725.385-.109 1.143-1.318-.773-.945-2.19.647Zm-7.527 2.224 1.18 1.695 1.675-.472-1.174-1.72-1.681.497Zm5.013 4.38-.304-.431-1.64.458.844 1.303 1.1-1.33Zm-5.733 3.51-1.184-2.089-2.014.564 1.266 2.369.772 1.444 2.1-.626-.622-1.1-.318-.562Z" fill="#F5F4EB"/><path fill-rule="evenodd" clip-rule="evenodd" d="M76.757 251.184c4.192 7.047 1.995 14.771-3.598 20.33l-1.131-2.792c2.586-2.603 7.042-10.106 1.561-11.969l.79-3.943 2.378-1.626Z" fill="#7464B7"/><path fill-rule="evenodd" clip-rule="evenodd" d="M71.702 271.538s-4.575-16.155-2.147-18.441c2.428-2.287 5.813-2.362 7.202-1.914-2.801 2.352-4.858 15.828-3.598 20.33l-1.457.025Z" fill="#9A89E5"/><path fill-rule="evenodd" clip-rule="evenodd" d="M77.481 252.619c-.403-.897-.724-1.435-.724-1.435-.993.833-1.894 3.068-2.585 5.805.47.225.847.502 1.142.819a32.157 32.157 0 0 1 2.167-5.189Z" fill="#544889"/><path fill-rule="evenodd" clip-rule="evenodd" d="M74.485 269.924a24.354 24.354 0 0 1-.39-3.846c-.428.67-.88 1.284-1.314 1.81.008 1.46.126 2.723.379 3.625 0 0 .52-.516 1.325-1.589Z" fill="#C87A12"/><path fill-rule="evenodd" clip-rule="evenodd" d="M88.498 259.468c-1.787 8.004-8.686 12.114-16.567 12.32l1.092-2.807c3.668-.118 12.058-2.518 9.35-7.634l3.28-2.327 2.845.448Z" fill="#7464B7"/><path fill-rule="evenodd" clip-rule="evenodd" d="M70.853 270.806s7.758-14.89 11.094-14.888c3.335.003 5.848 2.272 6.55 3.55-3.65-.211-14.394 8.18-16.566 12.32l-1.078-.982Z" fill="#9A89E5"/><path fill-rule="evenodd" clip-rule="evenodd" d="M88.04 261.009c.322-.929.458-1.541.458-1.541-1.295-.075-3.484.932-5.864 2.45.187.486.272.947.268 1.38a32.267 32.267 0 0 1 5.138-2.289ZM73.986 271.541a24.463 24.463 0 0 1 2.355-3.064c-.77.194-1.522.331-2.197.414-.998 1.069-1.778 2.068-2.213 2.898 0 0 .733-.019 2.055-.248Z" fill="#544889"/><path fill-rule="evenodd" clip-rule="evenodd" d="M56.418 257.738c.712 8.168 7.006 13.157 14.792 14.404l-.712-2.927c-3.62-.603-11.618-4.092-8.256-8.806l-2.943-2.739-2.88.068Z" fill="#7464B7"/><path fill-rule="evenodd" clip-rule="evenodd" d="M72.407 271.311s-5.72-15.786-9.026-16.224c-3.307-.44-6.098 1.476-6.963 2.651 3.646.273 13.185 10.013 14.79 14.404l1.2-.831Z" fill="#9A89E5"/><path fill-rule="evenodd" clip-rule="evenodd" d="M56.669 259.325c-.197-.963-.25-1.587-.25-1.587 1.293.096 3.328 1.385 5.487 3.204a3.737 3.737 0 0 0-.447 1.331 32.331 32.331 0 0 0-4.79-2.948Z" fill="#544889"/><path fill-rule="evenodd" clip-rule="evenodd" d="M69.205 271.625a24.445 24.445 0 0 0-1.929-3.35c.74.294 1.465.53 2.123.702.847 1.191 1.488 2.284 1.81 3.165 0 0-.724-.116-2.004-.517Z" fill="#C87A12"/><path fill-rule="evenodd" clip-rule="evenodd" d="M51.723 271.319c6.122 5.455 14.124 4.764 20.643.329l-2.526-1.641c-3.047 2.045-11.26 4.996-12.048-.739l-4.021.026-2.048 2.025Z" fill="#7464B7"/><path fill-rule="evenodd" clip-rule="evenodd" d="M72.668 270.221s-14.994-7.559-17.7-5.609c-2.707 1.95-3.422 5.259-3.245 6.707 2.84-2.303 16.462-1.764 20.643.329l.302-1.427Z" fill="#9A89E5"/><path fill-rule="evenodd" clip-rule="evenodd" d="M52.994 272.303c-.803-.567-1.271-.984-1.271-.984 1.007-.817 3.372-1.277 6.19-1.435.132.503.332.927.588 1.276a32.177 32.177 0 0 0-5.507 1.143ZM70.553 272.647a24.556 24.556 0 0 0-3.7-1.114 18.316 18.316 0 0 0 2.024-.946c1.434.285 2.65.641 3.489 1.06 0 0-.605.413-1.813 1Z" fill="#544889"/><path d="M337.111 320.154c-13.281-1.566-22.842 9.205-34.47 14.336-8.771 3.871-21.984 1.037-30.886-1.343-22.052-5.896-40.797-16.598-64.132-8.882-5.829 1.927-11.131 5.171-16.834 7.444-12.266 4.891-26.137 5.208-37.91 11.188-6.721 3.414-12.429 8.518-18.886 12.409-7.093 4.274-15.156 6.677-23.205 8.39-5.39 1.147-10.824 2.115-16.303 2.727-3.336.373-7.51.319-10.583 1.776-.27.128-.58.414-.422.668 1.705.279 3.392.224 5.11.332 2.973.187 5.948.367 8.923.542 5.836.343 11.673.668 17.51.992l4.459.248 23.084 1.283c5.461.304 10.844-.127 16.328.215 2.003.125 7.194-.55 8.247 1.546 1.116 2.221 3.98 2.779 6.453 3.033 13.309 1.368 26.517 1.219 39.896 1.313 3.244.023 6.591.066 9.564 1.363 1.678.732 3.164 1.834 4.762 2.726 4.602 2.569 9.972 3.323 15.216 3.847 23.232 2.322 47.088 1.433 70.321-.494 8.551-.712 16.719-1.525 25.298-1.008 8.835.533 17.672 1.236 26.531 1.142 13.979-.15 28.375-2.453 40.192-9.922 1.255-.793-30.92-31.708-32.6-33.802-7.672-9.566-22.02-19.613-34.194-21.848-.495-.09-.984-.164-1.469-.221Z" fill="#E7F4F7"/><path opacity=".3" d="M405.373 376.026c1.255-.793-30.92-31.708-32.6-33.802-6.064-7.561-16.299-15.419-26.334-19.486a30.65 30.65 0 0 1 1.491 10.242c-.178 6.553-2.543 12.97-7.728 16.978-1.67 1.291-3.837 1.677-5.802 2.305-2.587.826-5.123 1.861-7.591 2.99-.574.263-1.156.54-1.611.978-.455.438-.767 1.072-.666 1.695.083.511.43.959.469 1.475.046.6-.347 1.166-.849 1.497-1.392.92-3.655 1.206-5.24 1.83a203.586 203.586 0 0 0-5.58 2.296c-1.258.54-2.692 1.329-2.825 2.691-.164 1.676 1.807 3.023 1.591 4.693-.151 1.168-1.303 1.911-2.369 2.413-3.326 1.565-7.035 2.198-10.595 3.042a96.964 96.964 0 0 1-10.986 1.971c-6.489.767-12.978 2.582-19.437 3.768a230.738 230.738 0 0 1-17.299 2.502c-.657.07-2.14.319-3.966.605 21.833 1.803 44.144.91 65.909-.896 8.551-.712 16.719-1.525 25.298-1.008 8.835.533 17.672 1.236 26.531 1.142 13.976-.149 28.372-2.452 40.189-9.921Z" fill="#A1CBE5"/><path opacity=".5" d="M167.141 374.026c.1.198.218.379.344.552 2.725-3.393 8.399-6.125 11.832-8.67 1.449-1.074 3.048-2.437 2.999-4.241-2.884 1.536-5.812 3.089-9.002 3.803-5.471 1.224-12.2-.963-17.795-1.289-5.633-.329-11.192 1.188-16.63 2.691l-15.63 4.32 19.306 1.073c5.461.304 10.844-.127 16.328.215 2.004.125 7.195-.55 8.248 1.546Z" fill="#A1CBE5"/><path opacity=".3" d="M262.369 362.267c5.154-2.846 10.753-5.228 15.816-8.295 2.764-1.674 5.368-3.553 7.654-5.822 3.799-3.773 8.268-7.898 12.212-12.29-6.105 1.152-13.324.244-19.688-1.113.951 2.935.342 6.053-3.197 9.133-3.288 2.862-7.828 3.809-12.18 4.051-4.353.243-8.754-.111-13.053.614-2.087.352-4.432 1.23-5.082 3.258-1.531 4.781-.175 8.188-6.792 8.489-2.471.112-4.948-.342-7.414-.141-3.119.255-6.047 1.541-8.906 2.815-16.346 7.279-35.068 13.522-53.242 12.598 1.385.977 3.338 1.314 5.096 1.495 13.309 1.368 26.517 1.219 39.896 1.313 3.244.023 6.591.066 9.564 1.363.742.323 1.444.724 2.137 1.142 3.082-3.679 7.66-6.485 11.683-7.684 8.901-2.652 17.374-6.441 25.496-10.926Z" fill="#A1CBE5"/><path opacity=".4" d="M372.773 342.224c-4.819-6.009-12.273-12.196-20.167-16.526 4.135 4.331 7.539 9.127 8.495 15.538 1.041 6.984-1.52 12.879-7.698 16.399-6.007 3.423-13.093 4.301-19.152 7.593-4.071 2.212-7.346 5.694-11.313 8.128a54.25 54.25 0 0 1-1.92 1.121c-11.99 8.935-37.224 9.118-47.54 9.934-13.285 1.052-27.227 1.905-39.368-3.59-1.179-.534-2.544-1.645-2.027-2.831.26-.597.915-.903 1.519-1.146 6.634-2.671 13.742-4.085 20.245-7.059 7.479-3.421 11.388-10.252 19.134-13.035 4.122-1.481 8.673-3.119 10.782-6.958a41.636 41.636 0 0 1-12.506 4.851c-2.386.503-4.829.799-7.13 1.606-4.057 1.422-5.425 5.054-8.944 7.039-4.169 2.351-10.22 2.992-14.908 3.07-2.691.044-5.413-.171-8.053.355-1.781.355-3.477 1.039-5.161 1.719-8.653 3.496-17.26 6.139-26.62 7.063-9.088.897-17.387 1.623-26.359-.266-.891-.109-2.54-.468-3.062-1.198-.832-1.164.454-2.105 1.389-2.597.659-.347 1.403-.609 1.868-1.192 2.406-3.018-7.846-3.197-9.155-3.127-3.742.201-7.481.441-11.218.718-3.614.269-7.236.854-10.827.997-3.918.156-7.838.289-11.758.376-7.759.174-15.526.171-23.281-.171-3.402-.15-6.836-.449-10.24-.44a84.88 84.88 0 0 1-5.457-.163c-1.54-.095-3.564.017-4.685-1.261l-.043-.053c-1.32.223-2.59.551-3.712 1.083-.27.128-.58.414-.422.668 1.705.279 3.392.224 5.11.332 2.973.187 5.948.367 8.923.542 5.836.343 11.673.668 17.51.992l4.459.248 23.084 1.283c5.461.304 10.844-.127 16.328.215 2.003.125 7.194-.55 8.247 1.546 1.116 2.221 3.98 2.779 6.453 3.033 13.309 1.368 26.517 1.219 39.896 1.313 3.244.023 6.591.066 9.564 1.363 1.678.732 3.164 1.834 4.762 2.726 4.602 2.569 9.972 3.323 15.216 3.847 23.232 2.322 47.088 1.433 70.321-.494 8.551-.712 16.719-1.525 25.298-1.008 8.835.533 17.672 1.236 26.531 1.142 13.979-.15 28.375-2.453 40.192-9.922 1.255-.795-30.92-31.709-32.6-33.803Z" fill="#A1CBE5"/><path opacity=".35" d="M207.622 324.265c-5.829 1.927-11.131 5.171-16.834 7.444-12.266 4.891-26.137 5.208-37.91 11.188-6.721 3.414-12.429 8.518-18.885 12.409-7.093 4.274-15.156 6.677-23.205 8.39-.462.098-.926.187-1.388.282 6.345 2.978 14.002 2.776 20.766 1.78 10.782-1.588 19.934-6.935 30.401-9.695 1.348-.355 3.053-.569 3.891.545.587.779.486 1.945 1.141 2.668.571.63 1.517.712 2.367.728 6.418 0 12.312-1.33 18.464-2.995 2.206-.597 4.448-1.199 6.733-1.154-3.43 4.329-7.792 7.304-12.235 10.469-2.487 1.771-4.974 3.542-7.395 5.399-.334.256-.708.621-.593 1.026.128.451.73.526 1.197.491 5.904-.438 11.306-2.749 16.094-6.119 5.206-3.664 9.863-4.255 16.078-5.076 7.736-1.021 14.919-5.362 19.637-11.546 5.049-6.62 10.428-12.98 10.279-21.871a18.373 18.373 0 0 0-1.152-6.072c-8.734-1.517-17.69-1.518-27.451 1.709ZM338.04 320.294c-.31-.049-.622-.104-.929-.14-13.281-1.566-22.842 9.205-34.47 14.336-.742.327-1.525.59-2.324.826l-3.016 3.125c-5.293 5.485-9.927 11.783-16.159 16.24-5.662 4.049-12.653 6.042-17.804 10.843-6.579 6.132-16.824 8.057-25.246 10.47-1.107.317-2.5 1.333-1.846 2.28 1.218 1.763 6.072.867 7.746.603 3.172-.501 6.413-.813 9.652-1.209a104.52 104.52 0 0 0 22.709-5.403c3.001-1.081 6.007-2.332 8.442-4.392 1.559-1.319 2.848-2.942 4.463-4.194 4.491-3.483 10.553-3.289 15.718-5.022 6.619-2.221 13.049-4.34 19.292-7.546 3.505-1.8 7.002-3.701 9.971-6.292 2.969-2.591 5.403-5.951 6.24-9.801.325-1.495.427-3.003.353-4.508-.176-3.498-1.304-6.973-2.792-10.216Z" fill="#fff"/><path opacity=".55" d="M199.378 341.015c.123-.032.246-.063.37-.092 1.875-.44 3.816-.499 5.728-.739 5.974-.749 13.322-2.693 18.622-5.583 2.658-1.45 6.269-5.669 3.849-8.559-1.729-2.066-7.118-1.928-9.52-1.765-4.256.29-8.221 2.408-12.087 4.018-5.595 2.33-11.575 4.103-17.238 6.385-4.659 1.877-9.398 3.533-14.229 4.91-6.89 1.964-14.466 3.266-20.971 6.35-6.913 3.277-11.994 8.604-18.651 12.263 4.612.289 8.799-2.407 12.851-4.63 6.495-3.565 13.738-6.176 21.143-5.933 2.462.081 4.911.476 7.374.45 8.474-.09 14.918-5.021 22.759-7.075ZM292.169 352.415c2.386-2.508 4.051-4.031 7.772-4.272 2.399-.156 4.832.095 7.197-.333 1.643-.297 3.21-.915 4.751-1.56 2.855-1.196 7.495-2.429 9.593-4.825 1.851-2.114 1.112-5.432 3.857-6.936 1.294-.709 2.863-.782 4.154-1.497.947-.524 1.679-1.357 2.39-2.173 1.034-1.186 2.13-2.536 2.076-4.109-.299-8.632-21.315 6.49-23.69 8.864-.855.854-1.742 1.761-2.899 2.111-.905.274-1.882.175-2.808.368-1.634.341-2.934 1.541-4.143 2.693-3.466 3.3-7.044 5.632-10.665 8.589-4.582 3.743-8.428 9.463-14.11 11.658-1.668.644-3.472.913-5.093 1.668-1.858.866-3.367 2.319-4.839 3.746l-3.139 3.044c-.384.373-.79.965-.456 1.383 3.59.348 7.294-.657 10.216-2.771 1.956-1.415 3.704-3.367 6.081-3.786 1.246-.219 2.537.019 3.783-.198 2.769-.483 4.665-3.049 5.875-5.586 1.161-2.43 2.51-4.41 4.097-6.078ZM206.558 355.344l-2.716 1.75c-.624.402-1.263.811-1.982.996-1.123.288-2.305.002-3.464-.001-5.271-.012-5.051 4.829-8.685 6.926-.85.49-6.505 1.219-6.611 1.5.954-2.533 3.977-3.648 5.958-5.358 7.232-6.312 15.785-10.05 24.963-13.038.436 1.777-1.316 3.264-2.854 4.255l-4.609 2.97Z" fill="#fff"/><path fill-rule="evenodd" clip-rule="evenodd" d="m422.55 346.081 24.683-3.663 5.431 46.316-30.114 6.589-30.113-6.589 5.431-46.316 24.682 3.663Z" fill="#408AB4"/><path fill-rule="evenodd" clip-rule="evenodd" d="M422.55 346.081v49.242l-30.113-6.589 5.431-46.316 24.682 3.663Z" fill="#59A3CE"/><path fill-rule="evenodd" clip-rule="evenodd" d="m422.55 333.376 2.169 12.383-2.169 10.912-30.044-5.145 1.469-13.078 28.575-5.072Z" fill="#59A3CE"/><path fill-rule="evenodd" clip-rule="evenodd" d="m451.126 338.447-28.576 4.262v13.962l30.045-5.144-1.469-13.08Z" fill="#408AB4"/><path fill-rule="evenodd" clip-rule="evenodd" d="m422.55 342.709-28.574-4.262 28.574-5.071 28.576 5.071-28.576 4.262Z" fill="#74DFFF"/><path fill-rule="evenodd" clip-rule="evenodd" d="m448.69 354.847-.306-2.598-25.834 4.422v2.787l26.14-4.611Z" fill="#3479A0"/><path fill-rule="evenodd" clip-rule="evenodd" d="m422.55 356.671-25.834-4.422-.279 2.376 26.113 4.833v-2.787Z" fill="#3D85AF"/><path fill-rule="evenodd" clip-rule="evenodd" d="M417.466 363.07c-.896-.21-1.764.22-2.437 1.109-.678.9-1.163 2.261-1.295 3.823-.132 1.563.114 3.018.631 4.074.511 1.046 1.294 1.709 2.21 1.767.915.058 1.79-.477 2.467-1.357.669-.873 1.144-2.102 1.259-3.514.114-1.411-.149-2.765-.661-3.831-.514-1.072-1.276-1.86-2.174-2.071Zm-3.548 19.181c-.65.048-1.277.523-1.763 1.269-.487.748-.836 1.771-.928 2.859-.093 1.088.091 2.028.465 2.657.371.624.934.941 1.595.819.66-.121 1.289-.646 1.778-1.389a5.86 5.86 0 0 0 .909-2.702c.083-1.012-.107-1.908-.479-2.543-.371-.636-.926-1.018-1.577-.97Zm4.336-5.753c-.822-.024-1.576 1.024-1.684 2.331-.108 1.306.479 2.324 1.31 2.285.83-.038 1.583-1.072 1.683-2.318.099-1.244-.485-2.275-1.309-2.298ZM401.949 358.973c.922.008 1.663.633 2.103 1.658.445 1.035.59 2.472.348 4.022-.244 1.549-.831 2.903-1.583 3.805-.748.895-1.665 1.352-2.568 1.189-.904-.163-1.626-.889-2.073-1.906-.442-1.007-.611-2.314-.386-3.712.226-1.398.805-2.649 1.555-3.562.754-.919 1.681-1.503 2.604-1.494Zm-1.124 19.472c.62.202 1.116.813 1.409 1.653.296.843.39 1.92.222 2.998-.171 1.08-.572 1.948-1.085 2.47-.509.518-1.131.691-1.744.417-.613-.276-1.099-.936-1.397-1.773a5.873 5.873 0 0 1-.239-2.841c.161-1.003.56-1.829 1.071-2.355.512-.531 1.14-.77 1.763-.569Zm-2.841-6.619c.804.172 1.287 1.369 1.079 2.665-.205 1.294-1.018 2.141-1.815 1.907-.797-.234-1.282-1.418-1.082-2.65.199-1.235 1.014-2.097 1.818-1.922ZM445.072 384.99c-.916.102-1.726-.429-2.286-1.394-.566-.975-.883-2.383-.828-3.951.057-1.567.477-2.982 1.117-3.967.633-.979 1.489-1.542 2.406-1.49.916.051 1.72.687 2.284 1.644.561.946.886 2.223.83 3.638-.056 1.414-.481 2.727-1.117 3.724-.638 1.002-1.489 1.694-2.406 1.796Zm-1.219-19.467c-.641-.127-1.208-.674-1.599-1.472-.394-.802-.617-1.86-.579-2.951.039-1.092.334-2.002.78-2.581.443-.576 1.041-.823 1.683-.623.64.2 1.202.796 1.598 1.592.393.787.62 1.776.58 2.792-.041 1.015-.337 1.882-.781 2.468-.447.587-1.042.901-1.682.775Zm3.613 6.231c-.819-.076-1.442-1.206-1.392-2.516.049-1.31.755-2.25 1.574-2.111.819.137 1.443 1.253 1.393 2.502-.052 1.246-.754 2.201-1.575 2.125ZM429.175 387.196c.916.101 1.726-.43 2.286-1.393.566-.975.883-2.385.828-3.952-.056-1.567-.476-2.982-1.115-3.968-.634-.978-1.49-1.542-2.407-1.489-.915.052-1.72.688-2.285 1.644-.559.946-.885 2.223-.828 3.638.056 1.416.481 2.728 1.116 3.725.637 1.002 1.489 1.694 2.405 1.795Zm1.22-19.467c.64-.126 1.207-.673 1.599-1.473.394-.801.617-1.858.578-2.949-.039-1.092-.333-2.003-.779-2.582-.444-.576-1.042-.823-1.683-.622-.641.198-1.204.795-1.598 1.591a5.85 5.85 0 0 0-.58 2.793c.04 1.014.337 1.881.781 2.467.446.588 1.041.9 1.682.775Zm-3.614 6.231c.82-.075 1.443-1.206 1.393-2.516-.05-1.31-.755-2.25-1.574-2.112-.819.138-1.444 1.255-1.393 2.503.051 1.247.754 2.202 1.574 2.125Z" fill="#F5F4EB"/><path fill-rule="evenodd" clip-rule="evenodd" d="m412.313 341.181 10.236-1.858 10.238 1.858 8.244-1.228-12.221-2.628 9.027-1.236-6.179-1.097-9.109.968-9.108-.968-6.179 1.097 9.028 1.236-12.221 2.628 8.244 1.228Z" fill="#F44831"/><path fill-rule="evenodd" clip-rule="evenodd" d="m403.778 343.296-.875 10.011 1.738.298 6.656 1.139.766-10.219.251-3.343-8.243-1.229-.293 3.343Zm.645 12.807-3.01 34.596 8.612 1.884 2.673-34.948-8.275-1.532Z" fill="#F44831"/><path fill-rule="evenodd" clip-rule="evenodd" d="m432.411 357.719 2.665 34.863 8.613-1.884-2.997-34.44-8.281 1.461Zm.628-13.194.766 10.219 6.656-1.139 1.738-.298-.875-10.011-.293-3.343-8.243 1.229.251 3.343Z" fill="#D23B27"/><path fill-rule="evenodd" clip-rule="evenodd" d="M444.091 328.41s-11.246-1.197-18.3 6.26c-.993 1.05-2.469 2.023-3.226 3.455l-1.466-2.881c2.48-6.496 8.89-11.517 16.708-12.244 2.974 1.118 4.026 2.645 6.284 5.41Z" fill="#F44831"/><path fill-rule="evenodd" clip-rule="evenodd" d="M444.091 328.41s-2.944 11.862-21.527 9.715a16.838 16.838 0 0 1 2.511-3.559c7.037-7.628 19.016-6.156 19.016-6.156Z" fill="#D23B27"/><path fill-rule="evenodd" clip-rule="evenodd" d="M437.043 328.656c-1.218 3.016-7.083 5.251-11.046 4.987 3.341-3.092 7.536-4.434 11.046-4.987Z" fill="#F9F9F6"/><path fill-rule="evenodd" clip-rule="evenodd" d="M443.684 329.52c-2.731-.137-5.142-.09-7.236.142.253-.323.454-.659.594-1.006 3.962-.624 7.049-.244 7.049-.244s-.107.428-.407 1.108ZM426.595 334.316c-1.256 1.214-2.301 2.514-3.136 3.902a33.645 33.645 0 0 1-.895-.093 16.82 16.82 0 0 1 2.77-3.834c.217-.225.438-.439.663-.648a9.776 9.776 0 0 0 1.324.001c-.25.221-.492.445-.726.672Z" fill="#AF2917"/><path fill-rule="evenodd" clip-rule="evenodd" d="M443.946 349.75c-6.526-10.788-20.487-11.531-20.487-11.531.458-.895 1.944-2.591 2.253-2.921 6.418-1.429 15.736 1.809 20.752 7.269-.694 2.631-1.573 4.62-2.518 7.183ZM401.01 328.41s11.246-1.197 18.3 6.26c.993 1.05 2.469 2.023 3.226 3.455l1.466-2.881c-2.48-6.496-8.89-11.517-16.708-12.244-2.975 1.118-4.026 2.645-6.284 5.41Z" fill="#F44831"/><path fill-rule="evenodd" clip-rule="evenodd" d="M401.01 328.41s2.943 11.862 21.526 9.715a16.799 16.799 0 0 0-2.51-3.559c-7.037-7.628-19.016-6.156-19.016-6.156Z" fill="#DD412C"/><path fill-rule="evenodd" clip-rule="evenodd" d="M408.06 328.656c1.218 3.016 7.082 5.251 11.045 4.987-3.341-3.092-7.535-4.434-11.045-4.987Z" fill="#F9F9F6"/><path fill-rule="evenodd" clip-rule="evenodd" d="M401.417 329.52c2.73-.137 5.142-.09 7.235.142a4.168 4.168 0 0 1-.593-1.006c-3.961-.624-7.049-.244-7.049-.244s.107.428.407 1.108ZM418.506 334.316a19.19 19.19 0 0 1 3.137 3.902c.294-.027.592-.057.894-.093a16.82 16.82 0 0 0-2.769-3.834 17.54 17.54 0 0 0-.663-.648 9.797 9.797 0 0 1-1.325.001c.251.221.492.445.726.672Z" fill="#AF2917"/><path fill-rule="evenodd" clip-rule="evenodd" d="M401.156 349.75c6.525-10.788 20.487-11.531 20.487-11.531-.459-.895-1.944-2.591-2.253-2.921-6.417-1.429-15.736 1.809-20.752 7.269.693 2.631 1.571 4.62 2.518 7.183Z" fill="#F44831"/><path fill-rule="evenodd" clip-rule="evenodd" d="m432.203 355.018.208 2.701 8.281-1.461-.231-2.654-6.656 1.14-1.602.274Z" fill="#AF2917"/><path fill-rule="evenodd" clip-rule="evenodd" d="m404.423 356.102 8.274 1.533.2-2.617-1.601-.274-6.656-1.14-.217 2.498Z" fill="#D23B27"/><path fill-rule="evenodd" clip-rule="evenodd" d="m40.32 153.379-7.359 10.389-2.747 15.333 14.342-5.699 6.455-16.432.476.187 1.528-4.071-12.696.293Z" fill="#AAC32F"/><path fill-rule="evenodd" clip-rule="evenodd" d="m39.52 155.412-29.217-13.984-8.234 20.958 28.145 16.715 9.306-23.689Z" fill="#C2DD39"/><path fill-rule="evenodd" clip-rule="evenodd" d="m8.022 143.874 31.291 15.612 2.228-5.671-16.065-10.562-15.182-5.163-2.272 5.784Z" fill="#C2DD39"/><path fill-rule="evenodd" clip-rule="evenodd" d="m11.584 145.652 4.598 2.293 10.682-3.779-1.388-.914-3.627-1.233-10.265 3.633Zm11.6 5.787 9.584-3.392 3.877 2.549-8.863 3.136-4.598-2.293Zm11.6 5.787 4.529 2.26L41.075 155l-6.29 2.226Z" fill="#C2DD39"/><path fill-rule="evenodd" clip-rule="evenodd" d="m39.313 159.486 12.349-.976 2.104-5.421-12.225.726-2.228 5.671Z" fill="#AAC32F"/><path fill-rule="evenodd" clip-rule="evenodd" d="m53.766 153.089-24.705-12.678-18.767-2.321 31.246 15.725 12.226-.726Z" fill="#CFF129"/><path fill-rule="evenodd" clip-rule="evenodd" d="m46.107 153.543-2.145 5.575 4.574-.361 2.125-5.485-3.45.198-1.104.073Z" fill="#D23B27"/><path fill-rule="evenodd" clip-rule="evenodd" d="m43.09 159.187-6.89 17.535 5.19-2.061 6.219-15.831-3.647.288-.873.069Z" fill="#D23B27"/><path fill-rule="evenodd" clip-rule="evenodd" d="m47.61 158.83-.642 1.632 2.728-.144.67-1.706-1.83.145-.927.073Z" fill="#8DA51A"/><path fill-rule="evenodd" clip-rule="evenodd" d="m46.968 160.462.641-1.632-3.647.288-.873.069-.594 1.511 4.473-.236Z" fill="#AF2917"/><path fill-rule="evenodd" clip-rule="evenodd" d="m42.495 160.698.594-1.512-3.776.3-1.163-.587-.48 1.223 1.578.748 3.247-.172Z" fill="#8BA218"/><path fill-rule="evenodd" clip-rule="evenodd" d="m36.082 159.361-27.48-13.604.523-1.332 27.736 13.837 1.29.637-.481 1.223-1.588-.761Z" fill="#AAC32F"/><path fill-rule="evenodd" clip-rule="evenodd" d="m28.54 147.273-1.906-1.431-3.044-1.061-9.827 24.55 4.757 2.826 10.02-24.884Z" fill="#DD412C"/><path fill-rule="evenodd" clip-rule="evenodd" d="m25.046 139.914 8.17 4.319 3.986.355 5.807 2.98-4.175-.284 11.578 5.862.25.126-3.45.198-1.105.073-.563-.285-11.085-5.581-5.92-.404-4.95-2.492 6.054.092-11.359-5.796 6.762.837Z" fill="#F44831"/><path fill-rule="evenodd" clip-rule="evenodd" d="m25.735 154.24-4.95-2.452.516-1.289 4.946 2.468-.512 1.273Z" fill="#AF2917"/><path fill-rule="evenodd" clip-rule="evenodd" d="M46.184 136.01c-.95 6.31-6.082 9.878-12.19 10.468l.695-2.239c2.841-.292 9.224-2.613 6.842-6.437l2.419-1.985 2.234.193Z" fill="#DD412C"/><path fill-rule="evenodd" clip-rule="evenodd" d="M33.104 145.774s5.21-11.983 7.8-12.163c2.59-.18 4.665 1.444 5.28 2.398-2.846.035-10.728 7.136-12.19 10.468l-.89-.703Z" fill="#F44831"/><path fill-rule="evenodd" clip-rule="evenodd" d="M45.912 137.231c.2-.739.272-1.221.272-1.221-1.01.012-2.653.913-4.418 2.221.171.367.262.72.283 1.056a25.111 25.111 0 0 1 3.863-2.056ZM35.576 146.173a18.964 18.964 0 0 1 1.661-2.507c-.588.192-1.163.339-1.683.441-.715.884-1.267 1.703-1.56 2.371 0 0 .569-.055 1.582-.305Z" fill="#AF2917"/><path fill-rule="evenodd" clip-rule="evenodd" d="M49.169 146.787c-5.021 3.938-11.202 3.013-16.05-.75l2.042-1.151c2.267 1.737 8.502 4.428 9.394.012l3.121.216 1.493 1.673Z" fill="#DD412C"/><path fill-rule="evenodd" clip-rule="evenodd" d="M32.954 144.914s12.013-5.14 14.02-3.494c2.007 1.646 2.402 4.251 2.195 5.367-2.095-1.927-12.7-2.171-16.05-.749l-.165-1.124Z" fill="#F44831"/><path fill-rule="evenodd" clip-rule="evenodd" d="M48.133 147.489c.653-.401 1.036-.702 1.036-.702-.742-.684-2.557-1.156-4.738-1.416a2.941 2.941 0 0 1-.52.963c1.385.247 2.792.631 4.222 1.155ZM34.478 146.902c.964-.307 1.94-.535 2.93-.685-.56-.264-1.08-.551-1.528-.834-1.127.152-2.09.369-2.76.654 0 0 .45.35 1.358.865Z" fill="#AF2917"/><path fill-rule="evenodd" clip-rule="evenodd" d="M30.706 129.928c-3.6 5.27-2.27 11.377 1.804 15.967l1.015-2.114c-1.883-2.147-4.978-8.192-.63-9.372l-.422-3.101-1.767-1.38Z" fill="#DD412C"/><path fill-rule="evenodd" clip-rule="evenodd" d="M33.642 145.985s4.339-12.326 2.564-14.22c-1.775-1.894-4.4-2.117-5.5-1.837 2.06 1.963 3.002 12.53 1.804 15.966l1.132.091Z" fill="#F44831"/><path fill-rule="evenodd" clip-rule="evenodd" d="M30.074 131.007c.357-.676.632-1.079.632-1.079.732.696 1.321 2.476 1.725 4.635a2.913 2.913 0 0 0-.926.581 25.242 25.242 0 0 0-1.431-4.137ZM31.558 144.594c.242-.981.407-1.97.49-2.967.3.541.621 1.041.932 1.469-.077 1.134-.23 2.109-.47 2.798 0 0-.379-.426-.951-1.3Z" fill="#AF2917"/><path fill-rule="evenodd" clip-rule="evenodd" d="M21.182 135.792c.998 6.303 6.157 9.832 12.269 10.375l-.712-2.233c-2.843-.271-9.243-2.543-6.89-6.385l-2.434-1.967-2.233.21Z" fill="#DD412C"/><path fill-rule="evenodd" clip-rule="evenodd" d="M34.336 145.457s-5.302-11.943-7.893-12.103c-2.59-.16-4.652 1.479-5.26 2.438 2.846.014 10.782 7.054 12.267 10.376l.886-.711Z" fill="#F44831"/><path fill-rule="evenodd" clip-rule="evenodd" d="M21.463 137.011c-.204-.737-.28-1.219-.28-1.219 1.01.004 2.66.893 4.435 2.188a2.914 2.914 0 0 0-.275 1.058 25.17 25.17 0 0 0-3.88-2.027ZM31.866 145.875a19.08 19.08 0 0 0-1.679-2.495c.59.188 1.165.331 1.686.429.723.878 1.28 1.692 1.577 2.358 0 0-.567-.05-1.584-.292Z" fill="#AF2917"/></g><defs><linearGradient id="d" x1="205.185" y1="85.4" x2="213.12" y2="44.2" gradientUnits="userSpaceOnUse"><stop stop-color="#F7C75D"/><stop offset="1" stop-color="#E95662"/></linearGradient><linearGradient id="e" x1="220.102" y1="70.287" x2="226.876" y2="35.115" gradientUnits="userSpaceOnUse"><stop stop-color="#F4ACAC"/><stop offset="1" stop-color="#F5D1D1"/></linearGradient><linearGradient id="f" x1="237.397" y1="170.457" x2="279.499" y2="41.294" gradientUnits="userSpaceOnUse"><stop stop-color="#F7C1C1"/><stop offset="1" stop-color="#F7E6DC"/></linearGradient><linearGradient id="g" x1="200.281" y1="146.272" x2="309.016" y2="167.256" gradientUnits="userSpaceOnUse"><stop stop-color="#EA5F61"/><stop offset="1" stop-color="#8F181E"/></linearGradient><linearGradient id="h" x1="245.074" y1="168.889" x2="261.718" y2="82.471" gradientUnits="userSpaceOnUse"><stop stop-color="#C28868"/><stop offset="1" stop-color="#FFE8CC"/></linearGradient><linearGradient id="i" x1="252.407" y1="168.383" x2="257.247" y2="143.251" gradientUnits="userSpaceOnUse"><stop stop-color="#EA5F61"/><stop offset="1" stop-color="#C61C23"/></linearGradient><linearGradient id="j" x1="254.268" y1="160.095" x2="257.311" y2="143.571" gradientUnits="userSpaceOnUse"><stop stop-color="#E95562"/><stop offset="1" stop-color="#E63343"/></linearGradient><linearGradient id="k" x1="229.978" y1="139.55" x2="249.276" y2="39.351" gradientUnits="userSpaceOnUse"><stop stop-color="#F7C85D"/><stop offset="1" stop-color="#EA5B62"/></linearGradient><linearGradient id="l" x1="311.477" y1="106.958" x2="311.132" y2="37.884" gradientUnits="userSpaceOnUse"><stop stop-color="#F4ACAC"/><stop offset="1" stop-color="#F5D1D1"/></linearGradient><linearGradient id="m" x1="316.761" y1="104.309" x2="316.431" y2="38.178" gradientUnits="userSpaceOnUse"><stop stop-color="#EA9D9D"/><stop offset="1" stop-color="#EF8C8C"/></linearGradient><linearGradient id="n" x1="321.765" y1="105.926" x2="321.442" y2="41.105" gradientUnits="userSpaceOnUse"><stop stop-color="#F7C75D"/><stop offset="1" stop-color="#E95662"/></linearGradient><linearGradient id="o" x1="154.431" y1="145.708" x2="166.223" y2="109.532" gradientUnits="userSpaceOnUse"><stop stop-color="#FFD029"/><stop offset="1" stop-color="#E95262"/></linearGradient><linearGradient id="p" x1="164.449" y1="147.361" x2="169.299" y2="130.824" gradientUnits="userSpaceOnUse"><stop stop-color="#FFD029"/><stop offset="1" stop-color="#E95262"/></linearGradient><linearGradient id="q" x1="165.721" y1="139.726" x2="166.148" y2="131.858" gradientUnits="userSpaceOnUse"><stop stop-color="#EA5C62"/><stop offset="1" stop-color="#EF8560"/></linearGradient><linearGradient id="r" x1="261.824" y1="92.018" x2="263.595" y2="82.827" gradientUnits="userSpaceOnUse"><stop stop-color="#4B0A0E"/><stop offset="1" stop-color="#E95762"/></linearGradient><linearGradient id="s" x1="201.403" y1="91.424" x2="203.299" y2="83.302" gradientUnits="userSpaceOnUse"><stop stop-color="#4B0A0E"/><stop offset="1" stop-color="#E95762"/></linearGradient><linearGradient id="t" x1="200.21" y1="64.606" x2="287.902" y2="64.15" gradientUnits="userSpaceOnUse"><stop stop-color="#E43B44"/><stop offset="1" stop-color="#F08A60" stop-opacity=".15"/></linearGradient><linearGradient id="u" x1="195.284" y1="130.947" x2="259.866" y2="130.03" gradientUnits="userSpaceOnUse"><stop stop-color="#E43B44" stop-opacity="0"/><stop offset="1" stop-color="#F08A60"/></linearGradient><linearGradient id="v" x1="178.104" y1="101.352" x2="194.353" y2="101.334" gradientUnits="userSpaceOnUse"><stop stop-color="#E43B44"/><stop offset="1" stop-color="#F08A60" stop-opacity=".15"/></linearGradient><linearGradient id="w" x1="302.622" y1="94.533" x2="338.169" y2="94.352" gradientUnits="userSpaceOnUse"><stop stop-color="#E43B44" stop-opacity="0"/><stop offset="1" stop-color="#F08A60"/></linearGradient><linearGradient id="x" x1="304.504" y1="53.047" x2="341.633" y2="52.861" gradientUnits="userSpaceOnUse"><stop stop-color="#E43B44"/><stop offset="1" stop-color="#F08A60" stop-opacity=".15"/></linearGradient><linearGradient id="y" x1="187.634" y1="236.636" x2="196.617" y2="165.047" gradientUnits="userSpaceOnUse"><stop stop-color="#F7C1C1"/><stop offset="1" stop-color="#F1BEBE"/></linearGradient><linearGradient id="z" x1="169.084" y1="233.887" x2="167.053" y2="213.931" gradientUnits="userSpaceOnUse"><stop stop-color="#EA9D9D"/><stop offset="1" stop-color="#EF8C8C"/></linearGradient><linearGradient id="A" x1="192.656" y1="234.098" x2="192.656" y2="168.25" gradientUnits="userSpaceOnUse"><stop stop-color="#C26868"/><stop offset="1" stop-color="#FCC"/></linearGradient><linearGradient id="B" x1="230.586" y1="319.168" x2="229.035" y2="259.991" gradientUnits="userSpaceOnUse"><stop stop-color="#F7C1C1"/><stop offset="1" stop-color="#F7DCDC"/></linearGradient><linearGradient id="C" x1="212.437" y1="273.729" x2="247.108" y2="268.442" gradientUnits="userSpaceOnUse"><stop stop-color="#EA7979"/><stop offset="1" stop-color="#EF8C8C"/></linearGradient><linearGradient id="D" x1="236.19" y1="316.528" x2="227.301" y2="258.117" gradientUnits="userSpaceOnUse"><stop stop-color="#C26868"/><stop offset="1" stop-color="#FCC"/></linearGradient><linearGradient id="E" x1="260.186" y1="283.94" x2="239.149" y2="157.075" gradientUnits="userSpaceOnUse"><stop stop-color="#F7C1C1"/><stop offset="1" stop-color="#F7DCDC"/></linearGradient><linearGradient id="F" x1="290.756" y1="253.254" x2="271.929" y2="189.97" gradientUnits="userSpaceOnUse"><stop stop-color="#C26868"/><stop offset="1" stop-color="#FCC"/></linearGradient><linearGradient id="G" x1="213.371" y1="255.501" x2="273.387" y2="237.612" gradientUnits="userSpaceOnUse"><stop stop-color="#EA9D9D"/><stop offset="1" stop-color="#EF8C8C"/></linearGradient><linearGradient id="I" x1="265.02" y1="191.798" x2="280.472" y2="187.192" gradientUnits="userSpaceOnUse"><stop stop-color="#EA7979"/><stop offset="1" stop-color="#EF8C8C"/></linearGradient><linearGradient id="J" x1="239.287" y1="177.992" x2="233.508" y2="158.572" gradientUnits="userSpaceOnUse"><stop stop-color="#E58D8D"/><stop offset="1" stop-color="#BB5C5C"/></linearGradient><linearGradient id="K" x1="210.212" y1="233.5" x2="260.01" y2="218.656" gradientUnits="userSpaceOnUse"><stop stop-color="#EA5962"/><stop offset="1" stop-color="#FFD029" stop-opacity="0"/></linearGradient><linearGradient id="L" x1="254.73" y1="282.869" x2="253.02" y2="277.123" gradientUnits="userSpaceOnUse"><stop stop-color="#EA5962"/><stop offset="1" stop-color="#FFD029"/></linearGradient><linearGradient id="M" x1="331.218" y1="252.911" x2="292.431" y2="163.955" gradientUnits="userSpaceOnUse"><stop stop-color="#F7C1C1"/><stop offset="1" stop-color="#F7DCDC"/></linearGradient><linearGradient id="N" x1="348.647" y1="243.236" x2="339.181" y2="227.301" gradientUnits="userSpaceOnUse"><stop stop-color="#EA9D9D"/><stop offset="1" stop-color="#EF8C8C"/></linearGradient><linearGradient id="O" x1="339.636" y1="250.44" x2="287.616" y2="162.872" gradientUnits="userSpaceOnUse"><stop stop-color="#C26868"/><stop offset="1" stop-color="#FCC"/></linearGradient><linearGradient id="P" x1="378.262" y1="270.128" x2="341.402" y2="231.536" gradientUnits="userSpaceOnUse"><stop stop-color="#F7C1C1"/><stop offset="1" stop-color="#F7DCDC"/></linearGradient><linearGradient id="Q" x1="369.309" y1="277.676" x2="340.764" y2="239.137" gradientUnits="userSpaceOnUse"><stop stop-color="#EA9D9D"/><stop offset="1" stop-color="#EF8C8C"/></linearGradient><linearGradient id="R" x1="359.676" y1="266.338" x2="348.639" y2="251.436" gradientUnits="userSpaceOnUse"><stop stop-color="#E58D8D"/><stop offset="1" stop-color="#BB5C5C"/></linearGradient><linearGradient id="S" x1="358.154" y1="266.376" x2="336.348" y2="243.545" gradientUnits="userSpaceOnUse"><stop stop-color="#F7C1C1"/><stop offset="1" stop-color="#F7DCDC"/></linearGradient><linearGradient id="T" x1="302.223" y1="315.745" x2="286.43" y2="241.378" gradientUnits="userSpaceOnUse"><stop stop-color="#F7C1C1"/><stop offset="1" stop-color="#F7DCDC"/></linearGradient><linearGradient id="U" x1="315.247" y1="313.533" x2="290.229" y2="241.459" gradientUnits="userSpaceOnUse"><stop stop-color="#C26868"/><stop offset="1" stop-color="#FCC"/></linearGradient><linearGradient id="V" x1="152.835" y1="242.598" x2="137.723" y2="222.196" gradientUnits="userSpaceOnUse"><stop stop-color="#EA9D9D"/><stop offset="1" stop-color="#EF8C8C"/></linearGradient><linearGradient id="W" x1="143.836" y1="243.154" x2="147.645" y2="212.799" gradientUnits="userSpaceOnUse"><stop stop-color="#F7DCDC"/><stop offset="1" stop-color="#F7C1C1"/></linearGradient><linearGradient id="X" x1="151.08" y1="222.763" x2="146.379" y2="216.416" gradientUnits="userSpaceOnUse"><stop stop-color="#EA9D9D"/><stop offset="1" stop-color="#EF8C8C"/></linearGradient><linearGradient id="Y" x1="142.453" y1="222.844" x2="143.781" y2="212.266" gradientUnits="userSpaceOnUse"><stop stop-color="#F7C1C1"/><stop offset="1" stop-color="#F7DCDC"/></linearGradient><linearGradient id="Z" x1="141.154" y1="219.355" x2="161.689" y2="234.455" gradientUnits="userSpaceOnUse"><stop stop-color="#EA9D9D"/><stop offset="1" stop-color="#EF8C8C"/></linearGradient><clipPath id="a"><path fill="#fff" d="M0 0h496v418H0z"/></clipPath><clipPath id="b"><path fill="#fff" transform="translate(7 27)" d="M0 0h418v330H0z"/></clipPath><radialGradient id="H" cx="0" cy="0" r="1" gradientUnits="userSpaceOnUse" gradientTransform="rotate(-16.567 1065.984 -731.22) scale(47.3286 47.2892)"><stop stop-color="#F7C45D"/><stop offset="1" stop-color="#E05A69"/></radialGradient></defs></svg>