<?xml version="1.0" encoding="UTF-8"?>
<svg fill="none" viewBox="0 0 288 63" xmlns="http://www.w3.org/2000/svg">
<path d="m240.5 43c3.59 0 6.5-2.6404 6.5-5.8975 0 0-4.018 2.4807-6.5 0s-6.5 0-6.5 0c0 3.2571 2.91 5.8975 6.5 5.8975z" fill="url(#b)"/>
<path d="m245 18.5c0 1.3807-1.119 2.5-2.5 2.5s-2.5-1.1193-2.5-2.5 1.119-2.5 2.5-2.5 2.5 1.1193 2.5 2.5z" fill="url(#a)"/>
<path d="m239 13c0 1.1046-0.895 2-2 2s-2-0.8954-2-2 0.895-2 2-2 2 0.8954 2 2z" fill="#fff"/>
<path d="m243 7.5c0 0.82843-0.672 1.5-1.5 1.5s-1.5-0.67157-1.5-1.5 0.672-1.5 1.5-1.5 1.5 0.67157 1.5 1.5z" fill="#fff"/>
<path d="m131.15 18.664c-0.896 0-1.648-0.288-2.256-0.864-0.576-0.576-0.864-1.28-0.864-2.112s0.288-1.536 0.864-2.112c0.608-0.608 1.36-0.912 2.256-0.912s1.632 0.288 2.208 0.864c0.608 0.544 0.912 1.232 0.912 2.064 0 0.864-0.304 1.6-0.912 2.208-0.576 0.576-1.312 0.864-2.208 0.864zm-25.506 23.376 5.28-4.896 9.552 11.856h5.664l-11.76-14.928 10.704-10.512h-5.568l-13.872 12.672v-22.848h-4.608v35.616h4.608v-6.96zm-52.499-26.64c4.352 0 7.776 1.04 10.272 3.12s3.744 4.944 3.744 8.592-1.248 6.512-3.744 8.592-5.92 3.12-10.272 3.12h-8.304v10.176h-4.8v-33.6h13.104zm-0.144 19.248c3.04 0 5.36-0.64 6.96-1.92 1.6-1.312 2.4-3.184 2.4-5.616s-0.8-4.288-2.4-5.568c-1.6-1.312-3.92-1.968-6.96-1.968h-8.16v15.072h8.16zm29.902 14.64c-2.528 0-4.8-0.56-6.816-1.68s-3.6-2.656-4.752-4.608c-1.12-1.984-1.68-4.224-1.68-6.72s0.56-4.72 1.68-6.672c1.152-1.984 2.736-3.52 4.752-4.608 2.016-1.12 4.288-1.68 6.816-1.68s4.784 0.56 6.768 1.68c2.016 1.088 3.584 2.624 4.704 4.608 1.152 1.952 1.728 4.176 1.728 6.672s-0.576 4.736-1.728 6.72c-1.12 1.952-2.688 3.488-4.704 4.608-1.984 1.12-4.24 1.68-6.768 1.68zm0-4.032c1.632 0 3.088-0.368 4.368-1.104 1.312-0.768 2.336-1.824 3.072-3.168 0.736-1.376 1.104-2.944 1.104-4.704s-0.368-3.312-1.104-4.656c-0.736-1.376-1.76-2.432-3.072-3.168-1.28-0.736-2.736-1.104-4.368-1.104s-3.104 0.368-4.416 1.104c-1.28 0.736-2.304 1.792-3.072 3.168-0.736 1.344-1.104 2.896-1.104 4.656s0.368 3.328 1.104 4.704c0.768 1.344 1.792 2.4 3.072 3.168 1.312 0.736 2.784 1.104 4.416 1.104zm76.725-3.072c-1.856 2.048-4.304 3.072-7.344 3.072-2.144 0-3.984-0.48-5.52-1.44-1.504-0.96-2.576-2.32-3.216-4.08l20.208-3.936c-0.032-2.464-0.608-4.64-1.728-6.528s-2.624-3.344-4.512-4.368c-1.888-1.056-3.984-1.584-6.288-1.584-2.432 0-4.624 0.56-6.576 1.68-1.92 1.088-3.44 2.624-4.56 4.608-1.088 1.984-1.632 4.208-1.632 6.672 0 2.496 0.56 4.736 1.68 6.72 1.152 1.984 2.768 3.536 4.848 4.656 2.08 1.088 4.464 1.632 7.152 1.632 2.112 0 4.016-0.352 5.712-1.056 1.728-0.704 3.152-1.728 4.272-3.072l-2.496-2.976zm-12.72-13.872c1.28-0.736 2.72-1.104 4.32-1.104 2.016 0 3.744 0.576 5.184 1.728s2.368 2.656 2.784 4.512l-16.272 3.072v-0.48c0-1.76 0.352-3.296 1.056-4.608 0.704-1.344 1.68-2.384 2.928-3.12zm29.151 20.976c-2.08 0-4.08-0.272-6-0.816-1.92-0.576-3.424-1.296-4.512-2.16l1.92-3.648c1.12 0.8 2.48 1.44 4.08 1.92s3.216 0.72 4.848 0.72c4.032 0 6.048-1.152 6.048-3.456 0-0.768-0.272-1.376-0.816-1.824s-1.232-0.768-2.064-0.96c-0.8-0.224-1.952-0.464-3.456-0.72-2.048-0.32-3.728-0.688-5.04-1.104-1.28-0.416-2.384-1.12-3.312-2.112s-1.392-2.384-1.392-4.176c0-2.304 0.96-4.144 2.88-5.52 1.92-1.408 4.496-2.112 7.728-2.112 1.696 0 3.392 0.208 5.088 0.624s3.088 0.976 4.176 1.68l-1.968 3.648c-2.08-1.344-4.528-2.016-7.344-2.016-1.952 0-3.44 0.32-4.464 0.96s-1.536 1.488-1.536 2.544c0 0.832 0.288 1.488 0.864 1.968s1.28 0.832 2.112 1.056c0.864 0.224 2.064 0.48 3.6 0.768 2.048 0.352 3.696 0.736 4.944 1.152 1.28 0.384 2.368 1.056 3.264 2.016s1.344 2.304 1.344 4.032c0 2.304-0.992 4.144-2.976 5.52-1.952 1.344-4.624 2.016-8.016 2.016zm32.233-33.888h-4.8v33.6h22.992v-4.176h-18.192v-29.424zm45.26 33.6h-4.416v-4.032c-1.024 1.408-2.32 2.48-3.888 3.216s-3.296 1.104-5.184 1.104c-2.464 0-4.672-0.544-6.624-1.632s-3.488-2.608-4.608-4.56c-1.088-1.984-1.632-4.256-1.632-6.816s0.544-4.816 1.632-6.768c1.12-1.952 2.656-3.472 4.608-4.56 1.391-0.775 2.911-1.2739 4.561-1.4969v4.2036c-0.692 0.1835-1.348 0.4492-1.969 0.7973-1.28 0.736-2.304 1.792-3.072 3.168-0.736 1.344-1.104 2.896-1.104 4.656s0.368 3.328 1.104 4.704c0.768 1.344 1.792 2.4 3.072 3.168 1.312 0.736 2.784 1.104 4.416 1.104 1.6 0 3.056-0.368 4.368-1.104 1.312-0.768 2.336-1.824 3.072-3.168 0.736-1.376 1.104-2.944 1.104-4.704s-0.368-3.312-1.104-4.656c-0.736-1.376-1.76-2.432-3.072-3.168-0.577-0.3238-1.182-0.5764-1.815-0.7577v-4.0452c0.729 0.1733 1.43 0.4143 2.103 0.7229 1.536 0.672 2.816 1.68 3.84 3.024v-3.84h4.608v25.44zm27.391-24.048c-1.952-1.088-4.16-1.632-6.624-1.632-1.824 0-3.504 0.352-5.04 1.056-1.536 0.672-2.816 1.68-3.84 3.024v-14.016h-4.608v35.616h4.416v-4.032c1.024 1.408 2.32 2.48 3.888 3.216s3.296 1.104 5.184 1.104c2.464 0 4.672-0.544 6.624-1.632s3.472-2.608 4.56-4.56c1.12-1.984 1.68-4.256 1.68-6.816s-0.56-4.816-1.68-6.768c-1.088-1.952-2.608-3.472-4.56-4.56zm-2.64 19.2c-1.28 0.736-2.736 1.104-4.368 1.104-1.6 0-3.056-0.368-4.368-1.104-1.312-0.768-2.336-1.824-3.072-3.168-0.736-1.376-1.104-2.944-1.104-4.704s0.368-3.312 1.104-4.656c0.736-1.376 1.76-2.432 3.072-3.168s2.768-1.104 4.368-1.104c1.632 0 3.088 0.368 4.368 1.104 1.312 0.736 2.336 1.792 3.072 3.168 0.768 1.344 1.152 2.896 1.152 4.656s-0.384 3.328-1.152 4.704c-0.736 1.344-1.76 2.4-3.072 3.168zm-149.46-20.592h4.608v25.44h-4.608v-25.44z" clip-rule="evenodd" fill="#fff" fill-rule="evenodd"/>
<path d="m1.2222 0h20.5c0.675 0 1.2223 0.4859 1.2223 1.0852v1.3408c0 0.59931-0.5473 1.0852-1.2223 1.0852l-1.7222-0.01122v20.5c0-0.0865-0.0014-0.1719-0.0043-0.256 0.0015 0.0457 0.0027 0.0917 0.0034 0.138-9e-4 0.0702-0.0025 0.1398-0.0047 0.2088 2e-3 -0.0301 0.0039-0.0604 0.0056-0.0908v30.516c0 4.1954-3.8056 7.5965-8.5 7.5965-4.6944 0-8.5-3.4011-8.5-7.5965v-42.356c0-0.0297 1.7e-4 -0.0592 5.2e-4 -0.0886-3.5e-4 -0.0237-5.2e-4 -0.0475-5.2e-4 -0.0714v-8.4951h-1.7778c-0.67498 0-1.2222-0.48502-1.2222-1.0832v-1.3384c0-0.59822 0.54725-1.0832 1.2222-1.0832zm18.057 2.4953 2.4431 0.01594h0.0023c0.097-5.4e-4 0.1641-0.03552 0.198-0.06563 0.0134-0.01186 0.0194-0.02031 0.022-0.02488v-1.3302c-0.0026-0.00457-0.0086-0.01302-0.022-0.02488-0.0342-0.03035-0.1021-0.06564-0.2003-0.06564h-1.5405c-0.2555 0.55027-0.5595 1.0464-0.9026 1.4953zm-0.2791 0.34498c-0.7786 0.91048-1.7252 1.6119-2.7456 2.1723-1.7547 0.96372-3.7872 1.5406-5.6126 2.0588l-0.0545 0.01548c-1.9556 0.55514-3.6257 1.0383-4.8276 1.802-0.58062 0.36895-1.0098 0.77972-1.2974 1.2582-0.28365 0.4721-0.46236 1.0645-0.46236 1.853 0 0.6931 0.18082 1.1985 0.46754 1.5994 0.29643 0.4145 0.74976 0.7774 1.3813 1.1007 1.2998 0.6654 3.0953 1.0432 5.1385 1.4642l0.0918 0.0189c2.17 0.447 4.6003 0.9475 6.481 2.0032 0.5159 0.2896 1.003 0.6271 1.4399 1.0253v-16.371zm-14.473 32.394c-0.32815 0.4642-0.52655 1.0265-0.52656 1.7655-1e-5 1.3864 0.7381 2.3372 2.1604 3.1677 1.3146 0.7675 3.0357 1.3254 4.9382 1.9421l0.0021 7e-4 0.0051 0.0016 0.0028 9e-4c0.2314 0.075 0.4655 0.1509 0.7019 0.2282 2.1084 0.689 4.3831 1.4839 6.1238 2.7582 0.3817 0.2793 0.7392 0.5829 1.0656 0.9138v-17.454c-0.399 0.3919-0.8437 0.7403-1.3209 1.0515-1.7643 1.1507-4.0209 1.8257-6.0938 2.4136-0.1651 0.0468-0.329 0.0931-0.4915 0.139l-0.0021 5e-4c-1.9517 0.551-3.7019 1.0451-5.0186 1.7796-0.69557 0.3879-1.208 0.8118-1.5465 1.2908z" clip-rule="evenodd" fill="#fff" fill-rule="evenodd"/>
<defs>
<linearGradient id="b" x1="247" x2="234.01" y1="39.583" y2="40.168" gradientUnits="userSpaceOnUse">
<stop stop-color="#fff" offset="0"/>
<stop stop-color="#fff" offset="1"/>
</linearGradient>
<linearGradient id="a" x1="245" x2="240.5" y1="17.5" y2="20" gradientUnits="userSpaceOnUse">
<stop stop-color="#fff" offset="0"/>
<stop stop-color="#fff" offset="1"/>
</linearGradient>
</defs>
</svg>
