<svg width="200" height="150" viewBox="0 0 200 150" fill="none" xmlns="http://www.w3.org/2000/svg">
<g clip-path="url(#clip0_424_24)">
<path d="M71.066 125.299L68.624 120.459H66.7V125.299H63V110.779H70.252C73.434 110.779 75.284 112.939 75.284 115.619C75.284 118.151 73.73 119.491 72.398 119.938L75.358 125.299C75.284 125.299 71.066 125.299 71.066 125.299ZM71.436 115.545C71.436 114.577 70.622 113.981 69.66 113.981H66.7V117.109H69.66C70.622 117.109 71.436 116.587 71.436 115.545Z" fill="url(#paint0_linear_424_24)"/>
<path d="M76.9861 111.896C76.9861 110.854 77.8001 109.96 78.9101 109.96C80.0201 109.96 80.8341 110.779 80.8341 111.896C80.8341 113.013 80.0201 113.832 78.9101 113.832C77.8001 113.832 76.9861 112.939 76.9861 111.896ZM77.2081 125.299V114.8H80.5381V125.299H77.2081Z" fill="url(#paint1_linear_424_24)"/>
<path d="M82.24 120.013C82.24 116.736 84.682 114.502 87.938 114.502C90.158 114.502 91.564 115.47 92.23 116.438L90.084 118.449C89.64 117.853 88.974 117.481 88.086 117.481C86.68 117.481 85.644 118.449 85.644 120.013C85.644 121.576 86.68 122.544 88.086 122.544C88.974 122.544 89.64 122.098 90.084 121.502L92.23 123.587C91.638 124.48 90.158 125.523 87.938 125.523C84.682 125.523 82.24 123.363 82.24 120.013Z" fill="url(#paint2_linear_424_24)"/>
<path d="M100.888 125.299V119.194C100.888 117.928 100.222 117.481 99.1859 117.481C98.2239 117.481 97.5579 118.002 97.1879 118.523V125.299H93.8579V110.779H97.1879V116.066C97.7799 115.322 99.0379 114.502 100.814 114.502C103.182 114.502 104.292 115.843 104.292 117.779V125.299H100.888Z" fill="url(#paint3_linear_424_24)"/>
<path d="M112.802 125.3V124.257C112.136 125.076 110.878 125.597 109.546 125.597C107.918 125.597 105.994 124.48 105.994 122.172C105.994 119.64 107.992 118.821 109.546 118.821C110.952 118.821 112.136 119.268 112.802 120.013V118.672C112.802 117.779 111.988 117.109 110.656 117.109C109.62 117.109 108.51 117.481 107.696 118.226L106.512 116.141C107.844 114.949 109.62 114.502 111.248 114.502C113.764 114.502 116.132 115.47 116.132 118.672V125.225L112.802 125.3ZM112.802 122.544V121.651C112.432 121.204 111.692 120.906 110.952 120.906C110.064 120.906 109.324 121.279 109.324 122.098C109.324 122.917 110.064 123.289 110.952 123.289C111.692 123.363 112.432 123.066 112.802 122.544Z" fill="url(#paint4_linear_424_24)"/>
<path d="M118.574 125.3V114.8H121.904V116.066C122.57 115.247 123.902 114.502 125.16 114.502V117.704C124.938 117.63 124.716 117.63 124.346 117.63C123.458 117.63 122.348 118.002 121.904 118.598V125.3H118.574Z" fill="url(#paint5_linear_424_24)"/>
<path d="M133.67 125.299V124.108C132.782 125.076 131.746 125.597 130.562 125.597C127.972 125.597 125.974 123.661 125.974 120.087C125.974 116.513 127.972 114.577 130.562 114.577C131.746 114.577 132.782 115.024 133.67 116.066V110.854H137V125.374L133.67 125.299ZM133.67 121.576V118.374C133.226 117.779 132.338 117.406 131.672 117.406C130.34 117.406 129.378 118.374 129.378 119.938C129.378 121.502 130.34 122.47 131.672 122.47C132.412 122.544 133.226 122.172 133.67 121.576Z" fill="url(#paint6_linear_424_24)"/>
<path d="M68.4021 138.479C68.4021 134.012 71.6581 130.959 75.8021 130.959C78.3921 130.959 80.0941 132.15 81.2781 133.863L79.7981 134.682C78.9841 133.416 77.4301 132.597 75.8021 132.597C72.6201 132.597 70.2521 134.98 70.2521 138.479C70.2521 141.979 72.6201 144.362 75.8021 144.362C77.4301 144.362 78.9841 143.468 79.7981 142.277L81.2781 143.096C80.0941 144.734 78.3181 146 75.8021 146C71.6581 146 68.4021 142.947 68.4021 138.479Z" fill="url(#paint7_linear_424_24)"/>
<path d="M90.084 145.702V144.511C89.27 145.479 88.012 146 86.606 146C84.83 146 82.98 144.809 82.98 142.5C82.98 140.192 84.83 139.075 86.606 139.075C88.012 139.075 89.196 139.522 90.084 140.49V138.628C90.084 137.213 88.974 136.469 87.42 136.469C86.162 136.469 85.126 136.916 84.238 137.958L83.498 136.841C84.608 135.65 85.94 135.128 87.642 135.128C89.862 135.128 91.712 136.096 91.712 138.703V145.925L90.084 145.702ZM90.084 143.543V141.532C89.492 140.713 88.382 140.266 87.198 140.266C85.644 140.266 84.608 141.234 84.608 142.575C84.608 143.915 85.644 144.883 87.198 144.883C88.382 144.809 89.492 144.362 90.084 143.543Z" fill="url(#paint8_linear_424_24)"/>
<path d="M94.0801 144.362L94.8941 143.17C95.5601 143.989 96.8921 144.66 98.3721 144.66C100 144.66 100.888 143.915 100.888 142.873C100.888 140.341 94.4501 141.905 94.4501 138.032C94.4501 136.394 95.8561 134.979 98.2981 134.979C100.074 134.979 101.332 135.65 102.146 136.469L101.406 137.586C100.814 136.841 99.6301 136.245 98.2981 136.245C96.8921 136.245 96.0041 136.99 96.0041 137.884C96.0041 140.192 102.442 138.703 102.442 142.724C102.442 144.511 101.036 145.925 98.3721 145.925C96.5961 146 95.1901 145.479 94.0801 144.362Z" fill="url(#paint9_linear_424_24)"/>
<path d="M104.81 132.671C104.81 132.076 105.328 131.554 105.92 131.554C106.512 131.554 107.03 132.076 107.03 132.671C107.03 133.267 106.586 133.788 105.92 133.788C105.254 133.788 104.81 133.267 104.81 132.671ZM105.032 145.702V135.203H106.66V145.702H105.032Z" fill="url(#paint10_linear_424_24)"/>
<path d="M117.02 145.702V138.852C117.02 136.99 116.058 136.394 114.652 136.394C113.394 136.394 112.21 137.213 111.544 138.032V145.702H109.916V135.203H111.544V136.767C112.284 135.873 113.69 134.979 115.318 134.979C117.464 134.979 118.648 136.096 118.648 138.405V145.777C118.574 145.702 117.02 145.702 117.02 145.702Z" fill="url(#paint11_linear_424_24)"/>
<path d="M121.238 140.49C121.238 137.437 123.236 134.979 126.418 134.979C129.6 134.979 131.598 137.437 131.598 140.49C131.598 143.543 129.6 146 126.418 146C123.236 146 121.238 143.543 121.238 140.49ZM129.896 140.49C129.896 138.33 128.638 136.469 126.418 136.469C124.198 136.469 122.94 138.405 122.94 140.49C122.94 142.575 124.198 144.585 126.418 144.585C128.638 144.585 129.896 142.649 129.896 140.49Z" fill="url(#paint12_linear_424_24)"/>
<path d="M86.2361 60.4426C82.0181 68.4101 84.7561 75.1862 90.4541 79.2072C86.6801 78.9838 84.3861 78.0158 81.3521 73.7714C81.3521 84.3451 90.0101 87.1747 92.8961 94.3231C90.9721 94.3975 89.2701 94.6954 87.6421 95.8868C95.0421 96.8548 101.258 101.546 103.848 105.567C104.144 99.6099 101.628 91.1956 97.4101 87.547C105.624 92.2381 108.214 92.2381 111.766 102.365C111.618 77.4201 83.1281 80.2497 86.2361 60.4426Z" fill="url(#paint13_linear_424_24)"/>
<path d="M123.458 59.0277C127.676 60.8892 131.302 53.7408 135.298 58.432C135.89 55.2301 133.3 54.7089 130.192 52.6984C127.454 50.9113 124.79 48.6029 123.532 47.4115C123.606 46.3691 123.014 45.4755 121.534 44.7309C123.532 44.8798 125.234 45.4755 126.64 46.3691C125.456 35.8698 109.25 29.5405 96.0779 29.5405C101.036 30.7319 104.514 32.3701 106.364 34.4551C88.1599 25.9663 69.2159 37.8803 67.5879 48.8263C70.1039 46.8158 71.6579 45.9967 74.8399 45.1032C68.7719 51.0602 63.6659 53.8153 63.8139 65.5804C65.4419 61.8573 67.1439 59.9957 69.5119 58.3575C67.4399 77.4944 72.6199 87.4724 89.0479 92.3869C79.2059 86.132 75.6539 78.6113 75.7279 66.1761C77.1339 67.9632 78.6879 69.0057 80.3899 69.6758C80.9819 62.453 83.9419 56.9427 88.7519 52.7728C87.2719 50.0922 86.2359 47.3371 85.9399 44.582C90.6759 41.8268 97.4099 41.3056 104.218 42.9438C109.916 42.1247 114.726 43.1672 118.13 46.9648L116.354 47.0392C117.686 48.2306 118.87 49.422 119.832 50.6134C117.76 49.8688 115.17 49.9433 112.284 50.39C109.768 43.0182 99.5559 41.2311 91.8599 46.0712C93.7099 46.6669 94.9679 47.6349 95.7079 48.9752C98.0759 47.9328 100.444 47.3371 102.96 47.1137C94.7459 51.7304 90.4539 57.8363 91.0459 63.6444C92.0819 73.3989 102.96 73.7713 106.956 79.207C106.956 74.1436 101.924 72.0586 98.7419 69.229C96.0039 66.7718 95.1899 62.8253 97.1879 60.9637C99.4079 58.8788 101.11 60.5169 103.478 62.5274C105.254 64.0911 107.252 65.1336 111.026 63.9422C108.732 65.2825 106.586 66.7718 104.662 68.41C110.73 64.7613 116.428 62.5274 118.574 63.272C115.096 64.9102 111.396 67.2186 107.696 70.0481C111.692 67.7398 115.392 65.8782 118.87 64.7613C118.87 64.7613 118.5 65.5059 118.13 66.5484C115.614 67.7398 113.172 69.5269 110.73 71.6863C113.172 70.0481 115.54 68.6333 117.686 67.8143C116.872 70.2715 116.132 73.4734 117.834 73.7713C120.202 74.218 121.83 69.5269 130.044 70.1226C133.078 67.5909 133.818 64.2401 132.116 62.0062C130.414 59.7723 125.604 61.8573 123.458 59.0277Z" fill="url(#paint14_linear_424_24)"/>
<path d="M130.044 73.9948C127.306 72.58 122.496 73.9203 118.648 75.484C118.944 78.8349 120.572 80.622 124.272 79.6539C125.012 82.7814 124.198 85.611 120.72 87.9938C124.05 87.2491 126.344 85.8343 127.972 83.9728C127.898 84.5685 127.824 85.1642 127.676 85.6109C134.41 80.622 132.412 75.1862 130.044 73.9948Z" fill="url(#paint15_linear_424_24)"/>
<path d="M134.41 63.6445C134.928 65.9529 134.78 68.1123 133.67 69.9738C137.37 70.9419 136.482 65.5806 134.41 63.6445Z" fill="url(#paint16_linear_424_24)"/>
<path d="M112.284 16.3608C112.58 17.0309 112.728 17.7011 112.728 18.5202C112.728 21.3498 110.434 23.6581 107.696 23.6581C104.958 23.6581 102.664 21.3498 102.664 18.5202C102.664 16.5842 103.7 14.946 105.254 14.0524C102.96 10.9995 101.184 7.64866 99.5559 4C98.0019 7.64866 96.1519 10.9995 93.9319 14.0524C95.4859 14.946 96.5219 16.5842 96.5219 18.5202C96.5219 21.3498 94.2279 23.6581 91.4899 23.6581C88.7519 23.6581 86.3839 21.3498 86.3839 18.5202C86.3839 17.7756 86.5319 17.0309 86.8279 16.3608C84.4599 15.6162 82.2399 14.5737 80.2419 13.2334C82.4619 18.1479 84.0899 22.9879 85.1259 27.5302C94.7459 24.924 104.366 24.924 113.986 27.5302C114.948 22.9879 116.65 18.2223 118.87 13.2334C116.872 14.5737 114.652 15.6162 112.284 16.3608Z" fill="url(#paint17_linear_424_24)"/>
</g>
<defs>
<linearGradient id="paint0_linear_424_24" x1="58.9974" y1="107.363" x2="112" y2="170.137" gradientUnits="userSpaceOnUse">
<stop stop-color="#C58B2C"/>
<stop offset="0.47" stop-color="#F0E096"/>
<stop offset="1" stop-color="#C99336"/>
</linearGradient>
<linearGradient id="paint1_linear_424_24" x1="65.2791" y1="101.747" x2="118.647" y2="164.954" gradientUnits="userSpaceOnUse">
<stop stop-color="#C58B2C"/>
<stop offset="0.47" stop-color="#F0E096"/>
<stop offset="1" stop-color="#C99336"/>
</linearGradient>
<linearGradient id="paint2_linear_424_24" x1="69.6452" y1="98.178" x2="122.633" y2="160.934" gradientUnits="userSpaceOnUse">
<stop stop-color="#C58B2C"/>
<stop offset="0.47" stop-color="#F0E096"/>
<stop offset="1" stop-color="#C99336"/>
</linearGradient>
<linearGradient id="paint3_linear_424_24" x1="75.7123" y1="92.843" x2="128.768" y2="155.679" gradientUnits="userSpaceOnUse">
<stop stop-color="#C58B2C"/>
<stop offset="0.47" stop-color="#F0E096"/>
<stop offset="1" stop-color="#C99336"/>
</linearGradient>
<linearGradient id="paint4_linear_424_24" x1="83.0562" y1="86.6351" x2="135.995" y2="149.333" gradientUnits="userSpaceOnUse">
<stop stop-color="#C58B2C"/>
<stop offset="0.47" stop-color="#F0E096"/>
<stop offset="1" stop-color="#C99336"/>
</linearGradient>
<linearGradient id="paint5_linear_424_24" x1="89.2999" y1="80.8465" x2="142.574" y2="143.942" gradientUnits="userSpaceOnUse">
<stop stop-color="#C58B2C"/>
<stop offset="0.47" stop-color="#F0E096"/>
<stop offset="1" stop-color="#C99336"/>
</linearGradient>
<linearGradient id="paint6_linear_424_24" x1="96.6164" y1="74.9094" x2="149.584" y2="137.642" gradientUnits="userSpaceOnUse">
<stop stop-color="#C58B2C"/>
<stop offset="0.47" stop-color="#F0E096"/>
<stop offset="1" stop-color="#C99336"/>
</linearGradient>
<linearGradient id="paint7_linear_424_24" x1="53.5523" y1="112.071" x2="106.585" y2="174.88" gradientUnits="userSpaceOnUse">
<stop stop-color="#C58B2C"/>
<stop offset="0.47" stop-color="#F0E096"/>
<stop offset="1" stop-color="#C99336"/>
</linearGradient>
<linearGradient id="paint8_linear_424_24" x1="59.3954" y1="107.022" x2="112.414" y2="169.814" gradientUnits="userSpaceOnUse">
<stop stop-color="#C58B2C"/>
<stop offset="0.47" stop-color="#F0E096"/>
<stop offset="1" stop-color="#C99336"/>
</linearGradient>
<linearGradient id="paint9_linear_424_24" x1="65.6679" y1="101.507" x2="118.751" y2="164.375" gradientUnits="userSpaceOnUse">
<stop stop-color="#C58B2C"/>
<stop offset="0.47" stop-color="#F0E096"/>
<stop offset="1" stop-color="#C99336"/>
</linearGradient>
<linearGradient id="paint10_linear_424_24" x1="70.7148" y1="96.6408" x2="124.162" y2="159.941" gradientUnits="userSpaceOnUse">
<stop stop-color="#C58B2C"/>
<stop offset="0.47" stop-color="#F0E096"/>
<stop offset="1" stop-color="#C99336"/>
</linearGradient>
<linearGradient id="paint11_linear_424_24" x1="74.685" y1="93.788" x2="127.697" y2="156.573" gradientUnits="userSpaceOnUse">
<stop stop-color="#C58B2C"/>
<stop offset="0.47" stop-color="#F0E096"/>
<stop offset="1" stop-color="#C99336"/>
</linearGradient>
<linearGradient id="paint12_linear_424_24" x1="82.0983" y1="87.3414" x2="135.133" y2="150.153" gradientUnits="userSpaceOnUse">
<stop stop-color="#C58B2C"/>
<stop offset="0.47" stop-color="#F0E096"/>
<stop offset="1" stop-color="#C99336"/>
</linearGradient>
<linearGradient id="paint13_linear_424_24" x1="44.1026" y1="26.7951" x2="110.471" y2="105.399" gradientUnits="userSpaceOnUse">
<stop stop-color="#C58B2C"/>
<stop offset="0.47" stop-color="#F0E096"/>
<stop offset="1" stop-color="#C99336"/>
</linearGradient>
<linearGradient id="paint14_linear_424_24" x1="58.7984" y1="13.513" x2="126.938" y2="94.2148" gradientUnits="userSpaceOnUse">
<stop stop-color="#C58B2C"/>
<stop offset="0.47" stop-color="#F0E096"/>
<stop offset="1" stop-color="#C99336"/>
</linearGradient>
<linearGradient id="paint15_linear_424_24" x1="65.3853" y1="8.84151" x2="132.542" y2="88.3783" gradientUnits="userSpaceOnUse">
<stop stop-color="#C58B2C"/>
<stop offset="0.47" stop-color="#F0E096"/>
<stop offset="1" stop-color="#C99336"/>
</linearGradient>
<linearGradient id="paint16_linear_424_24" x1="79.7122" y1="1.63536" x2="144.716" y2="78.6228" gradientUnits="userSpaceOnUse">
<stop stop-color="#C58B2C"/>
<stop offset="0.47" stop-color="#F0E096"/>
<stop offset="1" stop-color="#C99336"/>
</linearGradient>
<linearGradient id="paint17_linear_424_24" x1="81.5858" y1="-4.09653" x2="150.245" y2="77.2203" gradientUnits="userSpaceOnUse">
<stop stop-color="#C58B2C"/>
<stop offset="0.47" stop-color="#F0E096"/>
<stop offset="1" stop-color="#C99336"/>
</linearGradient>
<clipPath id="clip0_424_24">
<rect width="74" height="142" fill="white" transform="translate(63 4)"/>
</clipPath>
</defs>
</svg>
