<svg fill="none" height="639" viewBox="0 0 360 639" width="360" xmlns="http://www.w3.org/2000/svg" xmlns:xlink="http://www.w3.org/1999/xlink"><mask id="a" height="639" maskUnits="userSpaceOnUse" width="366" x="-2" y="0"><path d="m-2 0h366v639h-366z" fill="#c4c4c4"/></mask><g fill="#616161" mask="url(#a)" opacity=".16"><path d="m352.841 528.963.113.067 50.132 29.03v58.218l-.113.067-50.132 29.03-.112-.068-50.132-29.029v-58.195l.112-.068zm49.817 29.368-49.794-28.849-49.795 28.849v57.676l49.795 28.849 49.794-28.849z"/><path d="m252.802 528.963.113.067 50.132 29.03v58.218l-.113.067-50.132 29.03-.112-.068-50.132-29.029v-58.195l.112-.068zm49.817 29.368-49.817-28.849-49.794 28.849v57.676l49.794 28.849 49.795-28.849v-57.676z"/><path d="m152.763 528.963.113.067 50.132 29.03v58.218l-.113.067-50.132 29.03-.112-.068-50.132-29.029v-58.195l.112-.068zm49.795 29.368-49.817-28.849-49.795 28.849v57.676l49.795 28.849 49.817-28.849z"/><path d="m52.7021 528.963.1124.067 50.1325 29.03v58.218l-.113.067-50.132 29.03-.1124-.068-50.13205-29.029.00001-58.195.11247-.068zm49.8169 29.368-49.7944-28.849-49.79455 28.849v57.676l49.79455 28.849 49.7944-28.849z"/><path d="m-59.6227 536.592 12.2856-7.11 49.81681 28.849v57.676l-49.81691 28.849-12.2855-7.111v.519l12.173 7.043.1125.068 50.13195-29.052.11248-.045v-58.218l-50.13193-29.03-.1124-.067-12.2856 7.11z"/><path d="m302.822 442.054.112.067 50.132 29.03v58.195l-.112.068-50.132 29.03-.113-.068-50.132-29.03v-58.195l.113-.068zm49.817 29.345-49.795-28.849-49.794 28.849v57.699l49.794 28.849 49.795-28.849z"/><path d="m202.783 442.054.112.067 50.132 29.03v58.195l-.112.068-50.132 29.03-.113-.068-50.132-29.03v-58.195l.113-.068zm49.794 29.345-49.794-28.849-49.795 28.849v57.699l49.795 28.849 49.794-28.849z"/><path d="m102.744 442.054.113.067 50.132 29.03v58.195l-.113.068-50.132 29.03-.112-.068-50.1325-29.03v-58.195l.1125-.068zm49.794 29.345-49.794-28.849-49.7945 28.849v57.699l49.7945 28.849 49.794-28.849z"/><path d="m2.68261 442.054.11255.067 50.13194 29.03v58.195l-.1125.068-50.132 29.03-.11248-.068-50.13202-29.03v-58.195l.1125-.068zm49.81699 29.345-49.79447-28.849-49.79443 28.849-.0001 57.699 49.79452 28.849 49.79448-28.849z"/><path d="m152.763 355.123.113.068 50.132 29.03v58.195l-.113.067-50.132 29.03-.112-.068-50.132-29.03v-58.194l.113-.068zm49.795 29.346-49.817-28.849-49.794 28.849v57.698l49.794 28.849 49.817-28.849z"/><path d="m52.7022 355.123.1125.068 50.1323 29.03v58.195l-.113.067-50.1318 29.03-.1125-.068-50.13203-29.03.00001-58.194.11247-.068zm49.8168 29.346-49.7943-28.849-49.79452 28.849-.00001 57.698 49.79453 28.849 49.7943-28.849z"/><path d="m-59.6225 362.753 12.2855-7.134 49.81683 28.85v57.698l-49.81683 28.849-12.2856-7.111v.497l12.173 7.066.1126.067 50.13187-29.052.11248-.068.00001-58.195-50.13186-29.029-.1125-.068-12.2855 7.111z"/><path d="m102.744 268.191.113.068 50.132 29.03v58.195l-.113.068-50.132 29.029-.112-.067-50.1325-29.03v-58.195l.1125-.068zm49.794 29.369-49.794-28.849-49.7945 28.849v57.698l49.7945 28.849 49.794-28.849z"/><path d="m2.68261 268.191.11255.068 50.13194 29.03v58.195l-.1125.068-50.132 29.029-.11248-.067-50.13202-29.03v-58.195l.1125-.068zm49.81699 29.369-49.79447-28.849-49.79443 28.849-.0001 57.698 49.772 28.849 49.7945-28.849v-57.698z"/><path d="m52.7022 181.283.1125.068 50.1323 29.03v58.195l-.113.067-50.1318 29.03-.1125-.068-50.13203-29.029.00001-58.195.11247-.068zm49.8168 29.346-49.7943-28.849-49.79452 28.849-.00001 57.698 49.79453 28.85 49.7943-28.85z"/><path d="m-59.6225 188.89 12.2855-7.11 49.81683 28.849v57.698l-49.81683 28.85-12.2856-7.111v.496l12.173 7.066.1126.045 50.13187-29.03.11248-.067.00001-58.195-50.13186-29.03-.1125-.068-12.2855 7.111z"/><path d="m152.539-25.0402v32.59638l-49.795 28.84912-49.8168-28.84913v-32.59637h-.4275v32.84465l50.1323 29.05235.112.0678 50.132-29.05242.09-.06772v-32.84466z"/><path d="m52.4996-25.0402v32.59638l-49.81703 28.84912-49.79447-28.84913v-32.59637h-.4275v32.84465l50.13201 29.05235.08996.0678 50.13203-29.05242.1125-.06772v-32.84466z"/><path d="m352.841 525.328c-2.138 0-3.893 1.738-3.893 3.905 0 2.144 1.733 3.905 3.893 3.905 2.137 0 3.892-1.738 3.892-3.905s-1.732-3.905-3.892-3.905z"/><path d="m302.822 612.169c-2.183 0-3.961 1.783-3.961 3.973 0 2.189 1.778 3.973 3.961 3.973 2.182 0 3.96-1.784 3.96-3.973 0-2.19-1.778-3.973-3.96-3.973z"/><path d="m302.822 565.171c3.847 0 6.953-3.115 6.953-6.976 0-3.86-3.106-6.975-6.953-6.975-3.848 0-6.953 3.115-6.953 6.975 0 3.861 3.128 6.976 6.953 6.976z"/><path d="m202.783 610.724c-2.971 0-5.401 2.416-5.401 5.418 0 2.98 2.408 5.418 5.401 5.418 2.97 0 5.4-2.416 5.4-5.418 0-2.98-2.43-5.418-5.4-5.418z"/><path d="m202.782 551.74c-3.554 0-6.435 2.89-6.435 6.456 0 3.565 2.881 6.456 6.435 6.456 3.555 0 6.436-2.891 6.436-6.456 0-3.566-2.881-6.456-6.436-6.456z"/><path d="m102.743 612.259c-2.137 0-3.8698 1.738-3.8698 3.883 0 2.144 1.7328 3.883 3.8698 3.883 2.138 0 3.871-1.739 3.871-3.883 0-2.145-1.733-3.883-3.871-3.883z"/><path d="m102.744 555.419c-1.529 0-2.7678 1.243-2.7678 2.776 0 1.534 1.2388 2.777 2.7678 2.777 1.528 0 2.767-1.243 2.767-2.777 0-1.533-1.239-2.776-2.767-2.776z"/><path d="m2.68248 612.034c-2.272571 0-4.09508 1.851-4.09508 4.108 0 2.28 1.84501 4.109 4.09508 4.109 2.27257 0 4.09515-1.851 4.09515-4.109.0225-2.28-1.82258-4.108-4.09515-4.108z"/><path d="m2.68242 553.522c-2.572357 0-4.65761 2.093-4.65761 4.673 0 2.581 2.085252 4.673 4.65761 4.673 2.57235 0 4.65767-2.092 4.65767-4.673 0-2.58-2.08532-4.673-4.65767-4.673z"/><path d="m352.841 466.049c-2.88 0-5.22 2.348-5.22 5.237 0 2.89 2.34 5.238 5.22 5.238s5.22-2.348 5.22-5.238c0-2.912-2.34-5.237-5.22-5.237z"/><path d="m252.802 531.897c1.463 0 2.678-1.196 2.678-2.686 0-1.467-1.193-2.686-2.678-2.686s-2.678 1.196-2.678 2.686 1.215 2.686 2.678 2.686z"/><path d="m252.802 466.298c-2.723 0-4.95 2.212-4.95 4.966 0 2.731 2.205 4.966 4.95 4.966 2.723 0 4.95-2.212 4.95-4.966 0-2.731-2.227-4.966-4.95-4.966z"/><path d="m202.782 439.165c-1.727 0-3.127 1.404-3.127 3.137s1.4 3.138 3.127 3.138c1.728 0 3.128-1.405 3.128-3.138s-1.4-3.137-3.128-3.137z"/><path d="m152.763 536.547c4.028 0 7.313-3.273 7.313-7.336 0-4.041-3.263-7.337-7.313-7.337-4.028 0-7.313 3.273-7.313 7.337 0 4.063 3.263 7.336 7.313 7.336z"/><path d="m52.7019 523.77c-2.9926 0-5.4227 2.438-5.4227 5.441 0 3.002 2.4301 5.44 5.4227 5.44 2.9925 0 5.4226-2.438 5.4226-5.44 0-3.003-2.4076-5.441-5.4226-5.441z"/><path d="m2.68228 436.884c-2.992606 0-5.40017 2.438-5.40018 5.418 0 3.002 2.430074 5.418 5.40018 5.418 2.9926 0 5.40024-2.438 5.40024-5.418 0-3.002-2.40764-5.418-5.40024-5.418z"/><path d="m52.7018 464.875c-3.5102 0-6.3678 2.867-6.3678 6.389 0 3.521 2.8576 6.388 6.3678 6.388s6.3678-2.867 6.3678-6.388c.0225-3.522-2.8351-6.389-6.3678-6.389z"/><path d="m298.659 442.302c0 2.302 1.867 4.176 4.163 4.176 2.295 0 4.162-1.874 4.162-4.176 0-2.303-1.867-4.176-4.162-4.176-2.296 0-4.163 1.873-4.163 4.176z"/><path d="m152.763 467.901c-1.852 0-3.353 1.505-3.353 3.363s1.501 3.363 3.353 3.363c1.851 0 3.352-1.505 3.352-3.363s-1.501-3.363-3.352-3.363z"/><path d="m102.744 438.69c-1.98 0-3.6004 1.603-3.6004 3.612 0 1.986 1.5974 3.612 3.6004 3.612 1.98 0 3.6-1.603 3.6-3.612-.023-1.987-1.62-3.612-3.6-3.612z"/><path d="m2.68274 389.005c2.56514 0 4.63525-2.076 4.63525-4.65 0-2.573-2.07011-4.65-4.63525-4.65-2.565144 0-4.63525 2.077-4.63525 4.65.0225 2.551 2.092607 4.65 4.63525 4.65z"/><path d="m202.783 389.705c2.948 0 5.355-2.393 5.355-5.372 0-2.957-2.385-5.373-5.355-5.373-2.948 0-5.355 2.393-5.355 5.373 0 2.979 2.407 5.372 5.355 5.372z"/><path d="m158.298 355.371c0-3.07-2.475-5.576-5.558-5.576-3.06 0-5.557 2.483-5.557 5.576 0 3.07 2.475 5.575 5.557 5.575 3.083 0 5.558-2.483 5.558-5.575z"/><path d="m102.744 265.098c-1.852 0-3.3529 1.506-3.3529 3.364s1.5009 3.363 3.3529 3.363c1.851 0 3.352-1.505 3.352-3.363s-1.501-3.364-3.352-3.364z"/><path d="m152.763 293.045c-2.41 0-4.365 1.961-4.365 4.38 0 2.418 1.955 4.379 4.365 4.379 2.411 0 4.366-1.961 4.366-4.379 0-2.419-1.955-4.38-4.366-4.38z"/><path d="m102.744 379.683c-2.573 0-4.6582 2.092-4.6582 4.672 0 2.581 2.0852 4.673 4.6582 4.673 2.572 0 4.657-2.092 4.657-4.673 0-2.58-2.085-4.672-4.657-4.672z"/><path d="m52.7017 290.787c-3.6535 0-6.6152 2.972-6.6152 6.637s2.9617 6.637 6.6152 6.637c3.6536 0 6.6153-2.972 6.6153-6.637s-2.9617-6.637-6.6153-6.637z"/><path d="m2.68185 264.692c-2.070085 0-3.73516 1.67-3.73516 3.747s1.665074 3.747 3.73516 3.747c2.07009 0 3.73516-1.67 3.73516-3.747.02251-2.054-1.66507-3.747-3.73516-3.747z"/><path d="m52.7016 348.802c-3.6226 0-6.5478 2.934-6.5478 6.569 0 3.634 2.9252 6.569 6.5478 6.569 3.6227 0 6.5478-2.935 6.5478-6.569.0225-3.635-2.9251-6.569-6.5478-6.569z"/><path d="m102.743 97.7146c1.71 0 3.083-1.377 3.083-3.0926s-1.373-3.0926-3.083-3.0926-3.0824 1.377-3.0824 3.0926 1.3724 3.0926 3.0824 3.0926z"/><path d="m102.744 206.903c-1.98 0-3.6004 1.626-3.6004 3.612 0 1.987 1.6204 3.612 3.6004 3.612s3.6-1.625 3.6-3.612c0-2.009-1.62-3.612-3.6-3.612z"/><path d="m52.7017 188.596c3.8927 0 7.0428-3.16 7.0428-7.065s-3.1501-7.066-7.0428-7.066c-3.8926 0-7.0428 3.161-7.0428 7.066.0225 3.905 3.1727 7.065 7.0428 7.065z"/><path d="m2.68203 206.678c-2.115074 0-3.8251 1.716-3.8251 3.838s1.710026 3.837 3.8251 3.837c2.11508 0 3.82517-1.715 3.82517-3.837s-1.71009-3.838-3.82517-3.838z"/><path d="m98.5806 36.6529c0 2.3025 1.8674 4.1761 4.1624 4.1761s4.163-1.8736 4.163-4.1761-1.868-4.1761-4.163-4.1761c-2.295.0226-4.1624 1.8961-4.1624 4.1761z"/><path d="m2.68208 89.1816c-2.99263 0-5.40022 2.4379-5.40022 5.4176 0 3.0023 2.43009 5.4178 5.40022 5.4178 2.99263 0 5.40028-2.4381 5.40029-5.4178.0225-2.9797-2.40766-5.4176-5.40029-5.4176z"/><path d="m2.68228 42.0704c2.9926 0 5.40024-2.4154 5.40024-5.4177s-2.40764-5.4177-5.40024-5.4177c-2.992606 0-5.40017 2.4154-5.40018 5.4177 0 3.0023 2.430074 5.4177 5.40018 5.4177z"/><path d="m152.763 3.37872c-2.362 0-4.298 1.94138-4.298 4.31165 0 2.37023 1.936 4.31163 4.298 4.31163 2.363 0 4.298-1.9414 4.298-4.31163 0-2.39285-1.935-4.31165-4.298-4.31165z"/><path d="m52.7015 2.92792c-2.6325 0-4.7476 2.14444-4.7476 4.76297 0 2.64111 2.1376 4.76301 4.7476 4.76301 2.6326 0 4.7477-2.1445 4.7477-4.76301.0225-2.6411-2.1151-4.76297-4.7477-4.76297z"/></g></svg>