<svg width="200" height="150" viewBox="0 0 200 150" fill="none" xmlns="http://www.w3.org/2000/svg">
<path d="M25.1351 55.5671C29.5036 54.855 31.1605 55.0687 32.8939 55.6945C34.6275 56.3203 36.081 57.4163 37.1902 58.9339C38.2997 60.4516 39.0076 62.0209 39.7053 66.5529L40.9061 74.3506C41.6038 78.8827 41.4021 80.6002 40.803 82.3963C40.2041 84.1925 39.1508 85.6969 37.6902 86.8435C36.9521 87.4227 36.2009 87.8958 35.0744 88.3139C33.9607 89.0959 32.3951 89.8149 29.5588 90.7108L22.3225 92.9966C18.0846 94.3354 16.4124 94.3628 14.6085 93.9923C12.8046 93.6218 11.2152 92.7441 9.91078 91.3979C8.60616 90.0518 7.69296 88.5962 6.39115 84.1981L4.17191 76.7003C2.87012 72.3021 2.83931 70.5679 3.19197 68.6982C3.54463 66.8286 4.38703 65.1826 5.68181 63.8333C6.30611 63.1827 6.95514 62.6265 7.93493 62.0748C8.52877 61.0366 9.31003 60.133 10.2659 59.3828C11.7265 58.2364 13.238 57.5063 17.6066 56.7942L25.1351 55.5671Z" fill="#FFBF43"/>
<path style="mix-blend-mode:overlay" d="M25.1351 55.5671C29.5036 54.855 31.1605 55.0687 32.8939 55.6945C34.6275 56.3203 36.081 57.4163 37.1902 58.9339C38.2997 60.4516 39.0076 62.0209 39.7053 66.5529L40.9061 74.3506C41.6038 78.8827 41.4021 80.6002 40.803 82.3963C40.2041 84.1925 39.1508 85.6969 37.6902 86.8435C36.9521 87.4227 36.2009 87.8958 35.0744 88.3139C33.9607 89.0959 32.3951 89.8149 29.5588 90.7108L22.3225 92.9966C18.0846 94.3354 16.4124 94.3628 14.6085 93.9923C12.8046 93.6218 11.2152 92.7441 9.91078 91.3979C8.60616 90.0518 7.69296 88.5962 6.39115 84.1981L4.17191 76.7003C2.87012 72.3021 2.83931 70.5679 3.19197 68.6982C3.54463 66.8286 4.38703 65.1826 5.68181 63.8333C6.30611 63.1827 6.95514 62.6265 7.93493 62.0748C8.52877 61.0366 9.31003 60.133 10.2659 59.3828C11.7265 58.2364 13.238 57.5063 17.6066 56.7942L25.1351 55.5671Z" fill="url(#paint0_linear_527_57)" fill-opacity="0.4"/>
<path fill-rule="evenodd" clip-rule="evenodd" d="M25.1495 55.644C29.4959 54.9358 31.1448 55.1454 32.8699 55.7681C34.5881 56.3885 36.0291 57.4751 37.1287 58.9795C38.2325 60.4898 38.934 62.0527 39.6282 66.5617L40.8285 74.3594C41.5227 78.8684 41.3248 80.5779 40.7287 82.3651C40.1348 84.1456 39.0907 85.6371 37.6428 86.7735C36.9104 87.348 36.1653 87.8174 35.048 88.2322C33.9211 89.0203 32.3609 89.7352 29.536 90.6274L22.2996 92.9131C18.0833 94.2449 16.4191 94.2751 14.6241 93.9065C12.836 93.5391 11.2605 92.6689 9.96723 91.3343C8.66922 89.9948 7.76297 88.5446 6.46796 84.1687L4.249 76.6709C2.95399 72.295 2.92039 70.5693 3.2714 68.7088C3.62107 66.8555 4.45622 65.2238 5.73981 63.8862C6.35904 63.241 7.00278 62.6893 7.97462 62.1421C8.59371 61.0827 9.36813 60.1871 10.3157 59.4435C11.7692 58.3028 13.2747 57.5791 17.6208 56.8709L25.1495 55.644Z" stroke="#FFE7DB" stroke-opacity="0.280457"/>
<path d="M18.3082 56.2461L25.8216 55.2972C30.2215 54.7415 31.8739 55.0151 33.5891 55.7041C35.3043 56.393 36.7231 57.5427 37.7826 59.1022C38.8423 60.6617 39.498 62.2585 40.0431 66.8213L40.972 74.6C41.5171 79.163 41.2566 80.8753 40.5954 82.6521C39.9345 84.4289 38.8283 85.8975 37.3262 86.9928C35.8244 88.0881 34.2854 88.7646 29.8853 89.3203L22.3719 90.2691C17.9719 90.8248 16.3195 90.5513 14.6043 89.8623C12.8892 89.1733 11.4703 88.0237 10.4109 86.4642C9.35142 84.9045 8.69545 83.3078 8.15053 78.7451L7.22142 70.9664C6.67642 66.4035 6.93692 64.691 7.59798 62.9143C8.25893 61.1375 9.36511 59.6689 10.8672 58.5736C12.3691 57.4784 13.908 56.8018 18.3082 56.2461Z" fill="black"/>
<path d="M18.3082 56.2461L25.8216 55.2972C30.2215 54.7415 31.8739 55.0151 33.5891 55.7041C35.3043 56.393 36.7231 57.5427 37.7826 59.1022C38.8423 60.6617 39.498 62.2585 40.0431 66.8213L40.972 74.6C41.5171 79.163 41.2566 80.8753 40.5954 82.6521C39.9345 84.4289 38.8283 85.8975 37.3262 86.9928C35.8244 88.0881 34.2854 88.7646 29.8853 89.3203L22.3719 90.2691C17.9719 90.8248 16.3195 90.5513 14.6043 89.8623C12.8892 89.1733 11.4703 88.0237 10.4109 86.4642C9.35142 84.9045 8.69545 83.3078 8.15053 78.7451L7.22142 70.9664C6.67642 66.4035 6.93692 64.691 7.59798 62.9143C8.25893 61.1375 9.36511 59.6689 10.8672 58.5736C12.3691 57.4784 13.908 56.8018 18.3082 56.2461Z" fill="#F4F8FB"/>
<path style="mix-blend-mode:overlay" d="M18.3082 56.2461L25.8216 55.2972C30.2215 54.7415 31.8739 55.0151 33.5891 55.7041C35.3043 56.393 36.7231 57.5427 37.7826 59.1022C38.8423 60.6617 39.498 62.2585 40.0431 66.8213L40.972 74.6C41.5171 79.163 41.2566 80.8753 40.5954 82.6521C39.9345 84.4289 38.8283 85.8975 37.3262 86.9928C35.8244 88.0881 34.2854 88.7646 29.8853 89.3203L22.3719 90.2691C17.9719 90.8248 16.3195 90.5513 14.6043 89.8623C12.8892 89.1733 11.4703 88.0237 10.4109 86.4642C9.35142 84.9045 8.69545 83.3078 8.15053 78.7451L7.22142 70.9664C6.67642 66.4035 6.93692 64.691 7.59798 62.9143C8.25893 61.1375 9.36511 59.6689 10.8672 58.5736C12.3691 57.4784 13.908 56.8018 18.3082 56.2461Z" fill="url(#paint1_linear_527_57)"/>
<path d="M18.3082 56.2461L25.8216 55.2972C30.2215 54.7415 31.8739 55.0151 33.5891 55.7041C35.3043 56.393 36.7231 57.5427 37.7826 59.1022C38.8423 60.6617 39.498 62.2585 40.0431 66.8213L40.972 74.6C41.5171 79.163 41.2566 80.8753 40.5954 82.6521C39.9345 84.4289 38.8283 85.8975 37.3262 86.9928C35.8244 88.0881 34.2854 88.7646 29.8853 89.3203L22.3719 90.2691C17.9719 90.8248 16.3195 90.5513 14.6043 89.8623C12.8892 89.1733 11.4703 88.0237 10.4109 86.4642C9.35142 84.9045 8.69545 83.3078 8.15053 78.7451L7.22142 70.9664C6.67642 66.4035 6.93692 64.691 7.59798 62.9143C8.25893 61.1375 9.36511 59.6689 10.8672 58.5736C12.3691 57.4784 13.908 56.8018 18.3082 56.2461Z" fill="white"/>
<path fill-rule="evenodd" clip-rule="evenodd" d="M25.8332 55.3785C30.211 54.8258 31.8556 55.095 33.5623 55.7807C35.2626 56.4637 36.6692 57.6035 37.7194 59.1495C38.7737 60.7013 39.4233 62.2915 39.9655 66.8312L40.8943 74.6099C41.4365 79.1496 41.18 80.8542 40.5222 82.6222C39.8669 84.3836 38.7704 85.8393 37.2813 86.9251C35.7865 88.0148 34.2541 88.6852 29.8764 89.238L22.363 90.1866C17.9853 90.7394 16.3404 90.4702 14.6337 89.7845C12.9334 89.1014 11.5271 87.9617 10.4768 86.4157C9.42254 84.8638 8.77271 83.2737 8.23062 78.7338L7.30177 70.9552C6.75967 66.4155 7.016 64.711 7.67385 62.9429C8.32911 61.1816 9.42584 59.7258 10.9147 58.6401C12.4095 57.5502 13.9421 56.8799 18.3198 56.3271L25.8332 55.3785Z" stroke="white" stroke-opacity="0.573398"/>
<path d="M18.1248 79.6772L27.6403 74.5586C30.9838 75.6003 32.7596 76.4493 32.9682 77.1053C33.1768 77.7615 32.8528 78.5035 31.9968 79.332L19.9641 85.9341C18.8489 86.546 17.4646 86.1035 16.8721 84.9459C16.7411 84.6901 16.6564 84.4117 16.6222 84.1246L16.4787 82.9226C16.3194 81.5892 16.9756 80.2954 18.1248 79.6772Z" fill="#FFBF43"/>
<path style="mix-blend-mode:overlay" d="M18.1248 79.6772L27.6403 74.5586C30.9838 75.6003 32.7596 76.4493 32.9682 77.1053C33.1768 77.7615 32.8528 78.5035 31.9968 79.332L19.9641 85.9341C18.8489 86.546 17.4646 86.1035 16.8721 84.9459C16.7411 84.6901 16.6564 84.4117 16.6222 84.1246L16.4787 82.9226C16.3194 81.5892 16.9756 80.2954 18.1248 79.6772Z" fill="url(#paint2_linear_527_57)" fill-opacity="0.6"/>
<path d="M15.7414 67.8189L16.3539 66.1498L28.5136 59.5751C29.6396 58.9662 31.0303 59.4202 31.6197 60.589C31.7479 60.843 31.8309 61.1187 31.8649 61.403L32.0084 62.6047C32.1676 63.938 31.5114 65.2319 30.3625 65.85L19.1854 71.8628C17.7378 72.6415 15.9535 72.0548 15.1994 70.5524C15.0365 70.2278 14.9311 69.8758 14.8877 69.5129L14.8584 69.2672L15.7414 67.8189Z" fill="#FFBF43"/>
<path style="mix-blend-mode:overlay" d="M15.7414 67.8189L16.3539 66.1498L28.5136 59.5751C29.6396 58.9662 31.0303 59.4202 31.6197 60.589C31.7479 60.843 31.8309 61.1187 31.8649 61.403L32.0084 62.6047C32.1676 63.938 31.5114 65.2319 30.3625 65.85L19.1854 71.8628C17.7378 72.6415 15.9535 72.0548 15.1994 70.5524C15.0365 70.2278 14.9311 69.8758 14.8877 69.5129L14.8584 69.2672L15.7414 67.8189Z" fill="url(#paint3_linear_527_57)" fill-opacity="0.6"/>
<path fill-rule="evenodd" clip-rule="evenodd" d="M19.6026 68.2964C17.1413 67.5836 16.0568 66.8663 16.3496 66.1445C14.2857 67.5917 13.7378 69.6514 14.7057 72.3236C15.0509 73.2767 15.7121 73.8686 16.7916 74.2299L25.2151 76.3274C25.2866 76.3453 25.3569 76.3587 25.426 76.3679L28.7467 77.1947C31.208 77.9076 32.2922 78.6249 31.9996 79.3467C34.0635 77.8996 34.6114 75.8399 33.6435 73.1677C33.2983 72.2145 32.5232 71.536 31.5577 71.2613L26.7021 70.0522C26.6011 70.0271 26.502 70.0065 26.405 69.9903L19.6026 68.2964Z" fill="#FFBF43"/>
<path d="M63.7577 82.5872C65.0678 82.5872 66.1709 82.4024 67.0673 82.0331C67.9635 81.6639 68.6919 81.1856 69.252 80.5985C69.8122 80.0114 70.2131 79.3486 70.4543 78.6101C70.6957 77.8715 70.8162 77.1233 70.8162 76.3659C70.8162 75.2106 70.5706 74.1595 70.0793 73.2125C69.5881 72.2656 68.6702 71.3945 67.3259 70.599L64.0164 68.6389C63.6716 68.4305 63.3871 68.2459 63.1631 68.0849C62.939 67.9239 62.7622 67.7724 62.6329 67.6304C62.5039 67.4884 62.4133 67.3416 62.3616 67.1901C62.3099 67.0386 62.284 66.8587 62.284 66.6503C62.284 66.139 62.4347 65.7602 62.7365 65.514C63.0381 65.2678 63.5595 65.1447 64.3007 65.1447C64.7315 65.1447 65.2273 65.1589 65.7875 65.1873C66.3476 65.2157 66.8948 65.2489 67.4293 65.2868C67.9635 65.3246 68.442 65.3578 68.8641 65.3862C69.2865 65.4146 69.5925 65.4383 69.782 65.4572H69.8337C70.0062 65.4572 70.1225 65.4099 70.1829 65.3152C70.2431 65.2205 70.2733 65.1068 70.2733 64.9743V62.1051C70.2733 61.9536 70.2346 61.8399 70.1569 61.7642C70.0793 61.6884 69.989 61.6316 69.8856 61.5937C69.6442 61.518 69.308 61.4422 68.8771 61.3665C68.4463 61.2907 67.9807 61.2244 67.4809 61.1676C66.9812 61.1108 66.4597 61.0634 65.9168 61.0256C65.3738 60.9877 64.8696 60.9688 64.404 60.9688C63.1459 60.9688 62.0945 61.1108 61.2497 61.3949C60.4052 61.679 59.7243 62.0719 59.2073 62.5738C58.6901 63.0757 58.3238 63.6628 58.1084 64.3351C57.893 65.0074 57.7852 65.7318 57.7852 66.5083C57.7852 67.0196 57.8326 67.5168 57.9274 67.9997C58.0221 68.4826 58.1858 68.9514 58.4187 69.4059C58.6514 69.8604 58.9616 70.296 59.3493 70.7127C59.7372 71.1293 60.2328 71.5365 60.8361 71.9342L64.404 74.2636C65.0763 74.6992 65.5289 75.0638 65.7615 75.3574C65.9942 75.6509 66.1105 76.006 66.1105 76.4225C66.1105 77.1044 65.9512 77.6063 65.6322 77.9282C65.3134 78.2502 64.7058 78.4112 63.8094 78.4112C63.5508 78.4112 63.2018 78.397 62.7622 78.3685C62.3229 78.3401 61.8616 78.3118 61.3791 78.2833C60.8965 78.255 60.4267 78.2217 59.9699 78.1839C59.5131 78.1459 59.1556 78.1082 58.897 78.0702H58.8194C58.6816 78.0702 58.5695 78.1082 58.4834 78.1839C58.397 78.2597 58.3541 78.4017 58.3541 78.6101V81.3939C58.3541 81.5454 58.4057 81.6686 58.5091 81.7632C58.6124 81.8581 58.7332 81.9244 58.871 81.9621C59.5261 82.1516 60.2457 82.3031 61.0301 82.4166C61.8144 82.5303 62.7235 82.5872 63.7577 82.5872ZM79.4521 82.5872C79.8313 82.5872 80.1673 82.5683 80.4603 82.5303C80.7534 82.4923 81.0981 82.4357 81.4945 82.3599C81.8221 82.3031 81.9858 82.1136 81.9858 81.7917V79.5759C81.9858 79.254 81.8048 79.0928 81.4429 79.0928H80.176C79.7796 79.0928 79.5382 79.0124 79.4521 78.8515C79.3657 78.6905 79.3228 78.326 79.3228 77.7578V69.4911H81.4429C81.5807 69.4911 81.7015 69.4343 81.8048 69.3207C81.9082 69.207 81.9601 69.0745 81.9601 68.9229V66.6219C81.9601 66.4704 81.9082 66.3379 81.8048 66.2242C81.7015 66.1106 81.5807 66.0538 81.4429 66.0538H79.3228V63.0425C79.3228 62.891 79.2796 62.7727 79.1935 62.6874C79.1073 62.6022 78.9953 62.5596 78.8572 62.5596H78.7798L75.6253 63.1562C75.4875 63.194 75.3669 63.2603 75.2633 63.355C75.16 63.4497 75.1083 63.5728 75.1083 63.7243V66.0538H73.0399C72.9019 66.0538 72.777 66.1153 72.665 66.2384C72.5529 66.3615 72.497 66.4988 72.497 66.6503V68.5252C72.497 68.6767 72.5529 68.8046 72.665 68.9087C72.777 69.0129 72.9019 69.0839 73.0399 69.1218L75.1083 69.4911V77.7295C75.1083 78.733 75.2032 79.5523 75.3926 80.1868C75.5824 80.821 75.8582 81.3182 76.2202 81.678C76.5821 82.0379 77.0344 82.2795 77.5774 82.4024C78.1206 82.5256 78.7454 82.5872 79.4521 82.5872ZM88.243 82.5872C89.0186 82.5872 89.6863 82.4734 90.2467 82.2462C90.8069 82.019 91.3369 81.7066 91.8369 81.3087V81.7632C91.8369 81.9149 91.8885 82.0473 91.9919 82.161C92.0952 82.2745 92.216 82.3314 92.3538 82.3314H95.2498C95.3876 82.3314 95.5081 82.2745 95.6117 82.161C95.7151 82.0473 95.7667 81.9149 95.7667 81.7632V71.6217C95.7667 70.5801 95.6245 69.6947 95.3401 68.9656C95.0558 68.2364 94.6549 67.6399 94.1379 67.1759C93.6207 66.7119 92.9874 66.371 92.2375 66.1532C91.4876 65.9354 90.6474 65.8265 89.7165 65.8265C88.8548 65.8265 88.0146 65.8928 87.1958 66.0253C86.377 66.1579 85.7262 66.2905 85.2437 66.4231C84.9162 66.5177 84.7524 66.7261 84.7524 67.048V69.3491C84.7524 69.5385 84.7954 69.671 84.8817 69.7468C84.9679 69.8225 85.0799 69.8604 85.2177 69.8604H85.347C85.554 69.8415 85.8123 69.8178 86.1226 69.7894C86.4329 69.761 86.7819 69.7373 87.1698 69.7184C87.5577 69.6994 87.9626 69.6852 88.385 69.6758C88.8074 69.6663 89.2253 69.6616 89.6391 69.6616C90.2422 69.6616 90.7163 69.7847 91.061 70.0309C91.4058 70.2771 91.5782 70.8073 91.5782 71.6217V72.6444H90.1821C87.9584 72.6444 86.3426 73.0279 85.3341 73.7949C84.3258 74.5619 83.8216 75.7788 83.8216 77.4454V77.7009C83.8216 78.629 83.9466 79.4055 84.1965 80.0303C84.4464 80.6554 84.7781 81.1573 85.192 81.536C85.6057 81.9147 86.0752 82.1846 86.6009 82.3455C87.1266 82.5067 87.6741 82.5872 88.243 82.5872ZM89.5355 79.1214C88.9841 79.1214 88.5747 79.0362 88.3074 78.8656C88.0403 78.6953 87.9067 78.3071 87.9067 77.7009V77.4454C87.9067 77.1044 87.9412 76.8015 88.0101 76.5362C88.0792 76.271 88.1998 76.0532 88.372 75.8829C88.5445 75.7125 88.7772 75.5846 89.0702 75.4994C89.3633 75.4142 89.7338 75.3715 90.1821 75.3715H91.6559V78.4963C91.3456 78.6669 91.0136 78.8137 90.6604 78.9366C90.3069 79.0598 89.932 79.1214 89.5355 79.1214ZM102.024 88.0699C102.972 88.0699 103.765 87.9703 104.403 87.7717C105.04 87.5727 105.566 87.2839 105.98 86.9052C106.393 86.5263 106.729 86.0482 106.988 85.4706C107.247 84.893 107.479 84.2158 107.686 83.4394L112.03 66.7072C112.03 66.6693 112.034 66.6456 112.043 66.6361C112.051 66.6266 112.056 66.603 112.056 66.5651C112.056 66.4136 112.008 66.2905 111.913 66.1958C111.819 66.1011 111.702 66.0538 111.564 66.0538H108.126C107.988 66.0538 107.871 66.1058 107.777 66.21C107.682 66.3142 107.617 66.442 107.583 66.5935L105.178 77.8147H104.946C104.808 77.8147 104.704 77.6346 104.635 77.2748L102.308 66.5935C102.274 66.442 102.218 66.3142 102.14 66.21C102.063 66.1058 101.955 66.0538 101.817 66.0538H98.3781C98.0334 66.0538 97.8611 66.2053 97.8611 66.5083C97.8611 66.5841 97.8696 66.6503 97.8868 66.7072L101.3 79.4907C101.455 80.1157 101.623 80.6032 101.804 80.9536C101.985 81.304 102.179 81.5645 102.386 81.7349C102.593 81.9052 102.804 82.0143 103.019 82.0617C103.235 82.1089 103.463 82.1327 103.704 82.1327H104.092L103.859 83.0133C103.704 83.5815 103.497 83.9696 103.239 84.178C102.98 84.3863 102.619 84.4904 102.153 84.4904C101.946 84.4904 101.701 84.481 101.416 84.4621C101.132 84.4432 100.839 84.4194 100.537 84.3911C100.235 84.3625 99.9425 84.3389 99.6579 84.32C99.3736 84.3012 99.128 84.2821 98.921 84.2632H98.8694C98.7316 84.2632 98.6108 84.3153 98.5074 84.4194C98.4041 84.5237 98.3524 84.6513 98.3524 84.8028V87.1039C98.3524 87.2554 98.4083 87.3644 98.5204 87.4307C98.6325 87.497 98.7573 87.5586 98.8953 87.6152C99.0504 87.6721 99.2573 87.7289 99.5159 87.7858C99.7743 87.8427 100.05 87.8899 100.343 87.9279C100.636 87.9656 100.929 87.9989 101.222 88.0272C101.515 88.0557 101.783 88.0699 102.024 88.0699Z" fill="#FFBF43"/>
<path d="M124.638 83.1424C125.576 83.1424 126.4 83.0855 127.108 82.9718C127.817 82.858 128.312 82.7538 128.596 82.6591C128.791 82.6023 128.937 82.5312 129.034 82.4458C129.132 82.3606 129.18 82.2136 129.18 82.0053V79.2479C129.18 78.8687 129.012 78.6792 128.675 78.6792H128.596C128.082 78.7172 127.485 78.7644 126.803 78.8213C126.121 78.8781 125.408 78.9067 124.664 78.9067C124.204 78.9067 123.774 78.8357 123.376 78.6934C122.977 78.5513 122.628 78.2955 122.327 77.9258C122.025 77.5563 121.791 77.0636 121.622 76.4475C121.454 75.8317 121.37 75.0499 121.37 74.1024V70.5205C121.37 69.5729 121.454 68.7911 121.622 68.1752C121.791 67.5592 122.025 67.0665 122.327 66.6969C122.628 66.3274 122.977 66.0715 123.376 65.9294C123.774 65.7872 124.204 65.7162 124.664 65.7162C125.408 65.7162 126.121 65.7446 126.803 65.8015C127.485 65.8583 128.082 65.9057 128.596 65.9436H128.675C129.012 65.9436 129.18 65.7541 129.18 65.375V62.6176C129.18 62.4091 129.132 62.2669 129.034 62.1911C128.937 62.1153 128.791 62.049 128.596 61.9922C128.312 61.8974 127.817 61.7932 127.108 61.6794C126.4 61.5657 125.576 61.5089 124.638 61.5089C123.628 61.5089 122.65 61.6605 121.702 61.9637C120.755 62.2669 119.918 62.7692 119.192 63.4704C118.466 64.1716 117.881 65.1002 117.439 66.2563C116.996 67.4124 116.774 68.8338 116.774 70.5205V74.1024C116.774 75.789 116.996 77.2104 117.439 78.3666C117.881 79.5225 118.466 80.456 119.192 81.1667C119.918 81.8774 120.755 82.3842 121.702 82.6874C122.65 82.9907 123.628 83.1424 124.638 83.1424ZM135.875 83.1424C136.672 83.1424 137.358 83.0286 137.933 82.8012C138.509 82.5737 139.053 82.2611 139.567 81.863V82.3179C139.567 82.4697 139.62 82.6023 139.727 82.716C139.833 82.8297 139.957 82.8866 140.098 82.8866H143.074C143.215 82.8866 143.339 82.8297 143.446 82.716C143.552 82.6023 143.605 82.4697 143.605 82.3179V72.1693C143.605 71.1269 143.459 70.2409 143.167 69.5113C142.875 68.7816 142.463 68.1847 141.931 67.7203C141.4 67.256 140.749 66.9149 139.979 66.6969C139.208 66.479 138.345 66.37 137.389 66.37C136.503 66.37 135.64 66.4363 134.799 66.569C133.957 66.7017 133.289 66.8343 132.793 66.967C132.456 67.0618 132.288 67.2702 132.288 67.5924V69.8951C132.288 70.0846 132.333 70.2173 132.421 70.293C132.51 70.3689 132.625 70.4068 132.767 70.4068H132.899C133.112 70.3878 133.377 70.3641 133.696 70.3357C134.015 70.3073 134.374 70.2836 134.772 70.2646C135.171 70.2457 135.587 70.2315 136.021 70.222C136.455 70.2125 136.884 70.2078 137.309 70.2078C137.929 70.2078 138.416 70.331 138.77 70.5773C139.124 70.8237 139.301 71.3543 139.301 72.1693V73.1927H137.867C135.582 73.1927 133.922 73.5765 132.886 74.344C131.85 75.1115 131.332 76.3291 131.332 77.9971V78.2528C131.332 79.1813 131.46 79.9583 131.717 80.5839C131.974 81.2092 132.315 81.7115 132.74 82.0905C133.165 82.4697 133.648 82.7396 134.188 82.9008C134.728 83.0619 135.29 83.1424 135.875 83.1424ZM137.203 79.6743C136.636 79.6743 136.216 79.5888 135.941 79.4182C135.666 79.2479 135.529 78.8592 135.529 78.2528V77.9971C135.529 77.6559 135.565 77.3527 135.636 77.0872C135.706 76.822 135.83 76.604 136.007 76.4334C136.185 76.2628 136.424 76.1349 136.725 76.0497C137.026 75.9643 137.406 75.9218 137.867 75.9218H139.381V79.0487C139.062 79.2193 138.721 79.3663 138.359 79.4895C137.995 79.6127 137.61 79.6743 137.203 79.6743ZM151.761 83.1424C152.735 83.1424 153.576 83.0192 154.284 82.7729C154.992 82.5265 155.581 82.19 156.051 81.7637C156.52 81.3373 156.87 80.8302 157.1 80.2427C157.33 79.6551 157.445 79.0298 157.445 78.3666C157.445 77.9874 157.41 77.6084 157.339 77.2295C157.268 76.8503 157.131 76.4761 156.927 76.1066C156.724 75.737 156.449 75.377 156.104 75.0263C155.758 74.6757 155.311 74.3298 154.762 73.9887L151.468 71.9703C151.202 71.7997 150.999 71.6434 150.857 71.5012C150.715 71.3591 150.645 71.1838 150.645 70.9753C150.645 70.6531 150.751 70.4352 150.963 70.3215C151.176 70.2078 151.539 70.1509 152.053 70.1509C152.389 70.1509 152.774 70.1651 153.208 70.1936C153.642 70.222 154.067 70.2551 154.483 70.293C154.899 70.331 155.285 70.3736 155.639 70.421C155.993 70.4684 156.268 70.5015 156.462 70.5205H156.542C156.843 70.5205 156.994 70.3404 156.994 69.9804V67.6777C156.994 67.3366 156.825 67.1186 156.489 67.0239C155.816 66.8343 155.121 66.678 154.404 66.5548C153.686 66.4316 152.805 66.37 151.761 66.37C149.919 66.37 148.551 66.7443 147.656 67.4929C146.762 68.2415 146.315 69.336 146.315 70.7763C146.315 71.705 146.523 72.5246 146.939 73.2353C147.355 73.946 147.935 74.5288 148.679 74.9836L152.132 77.1157C152.504 77.3432 152.761 77.5468 152.903 77.7269C153.044 77.9069 153.115 78.1011 153.115 78.3097C153.115 78.6886 153.013 78.9683 152.81 79.1483C152.606 79.3283 152.185 79.4182 151.548 79.4182C151.335 79.4182 151.048 79.4088 150.685 79.3899C150.321 79.371 149.927 79.3425 149.502 79.3045C149.077 79.2668 148.648 79.224 148.214 79.1766C147.78 79.1294 147.386 79.0773 147.032 79.0204H146.925C146.766 79.0204 146.642 79.0726 146.554 79.1766C146.465 79.2809 146.421 79.4088 146.421 79.5605V81.863C146.421 82.2042 146.589 82.4222 146.925 82.5168C147.262 82.6117 147.634 82.6969 148.041 82.7729C148.449 82.8486 148.869 82.9149 149.303 82.9718C149.737 83.0286 150.162 83.0714 150.578 83.0997C150.994 83.1282 151.388 83.1424 151.761 83.1424ZM164.14 64.7496C164.281 64.7496 164.405 64.6928 164.511 64.5791C164.618 64.4654 164.671 64.3327 164.671 64.1811V61.5373C164.671 61.3857 164.618 61.253 164.511 61.1393C164.405 61.0256 164.281 60.9688 164.14 60.9688H160.686C160.545 60.9688 160.421 61.0256 160.314 61.1393C160.208 61.253 160.155 61.3857 160.155 61.5373V64.1811C160.155 64.3327 160.208 64.4654 160.314 64.5791C160.421 64.6928 160.545 64.7496 160.686 64.7496H164.14ZM164.033 82.8866C164.175 82.8866 164.299 82.8297 164.405 82.716C164.511 82.6023 164.565 82.4697 164.565 82.3179V67.166C164.565 67.0144 164.511 66.8817 164.405 66.768C164.299 66.6543 164.175 66.5974 164.033 66.5974H160.793C160.651 66.5974 160.527 66.6543 160.421 66.768C160.314 66.8817 160.261 67.0144 160.261 67.166V82.3179C160.261 82.4697 160.314 82.6023 160.421 82.716C160.527 82.8297 160.651 82.8866 160.793 82.8866H164.033ZM171.631 82.8866C171.773 82.8866 171.897 82.825 172.003 82.7018C172.109 82.5784 172.162 82.4411 172.162 82.2896V71.089C172.623 70.8237 173.057 70.6058 173.464 70.4352C173.871 70.2646 174.27 70.1793 174.659 70.1793C175.067 70.1793 175.399 70.222 175.656 70.3073C175.912 70.3925 176.111 70.5394 176.253 70.7479C176.395 70.9564 176.492 71.2312 176.545 71.5723C176.598 71.9134 176.625 72.3304 176.625 72.8231V82.2896C176.625 82.4411 176.678 82.5784 176.784 82.7018C176.891 82.825 177.015 82.8866 177.157 82.8866H180.371C180.513 82.8866 180.641 82.825 180.756 82.7018C180.871 82.5784 180.929 82.4411 180.929 82.2896V72.8231C180.929 71.9324 180.862 71.0938 180.729 70.3073C180.597 69.5208 180.358 68.8385 180.012 68.2605C179.667 67.6824 179.189 67.2229 178.578 66.8817C177.967 66.5406 177.183 66.37 176.227 66.37C175.377 66.37 174.624 66.479 173.969 66.6969C173.313 66.9149 172.623 67.2987 171.897 67.8483V67.166C171.897 67.0144 171.843 66.8817 171.737 66.768C171.631 66.6543 171.507 66.5974 171.365 66.5974H168.39C168.248 66.5974 168.124 66.6543 168.018 66.768C167.912 66.8817 167.859 67.0144 167.859 67.166V82.2896C167.859 82.4411 167.916 82.5784 168.032 82.7018C168.146 82.825 168.275 82.8866 168.417 82.8866H171.631ZM190.359 83.1424C191.44 83.1424 192.391 82.9671 193.215 82.6164C194.038 82.2658 194.729 81.7731 195.287 81.1381C195.845 80.5034 196.27 79.7311 196.562 78.8213C196.854 77.9116 197 76.8883 197 75.7512V73.7612C197 72.6241 196.854 71.6007 196.562 70.691C196.27 69.7813 195.845 69.0091 195.287 68.3742C194.729 67.7393 194.038 67.2466 193.215 66.8959C192.391 66.5453 191.44 66.37 190.359 66.37C189.279 66.37 188.327 66.5453 187.504 66.8959C186.68 67.2466 185.985 67.7393 185.418 68.3742C184.851 69.0091 184.422 69.7813 184.13 70.691C183.837 71.6007 183.691 72.6241 183.691 73.7612V75.7512C183.691 76.8883 183.837 77.9116 184.13 78.8213C184.422 79.7311 184.851 80.5034 185.418 81.1381C185.985 81.7731 186.68 82.2658 187.504 82.6164C188.327 82.9671 189.279 83.1424 190.359 83.1424ZM190.359 79.2479C189.58 79.2479 188.987 78.9541 188.579 78.3666C188.172 77.779 187.968 76.9072 187.968 75.7512V73.7612C187.968 72.6052 188.172 71.7381 188.579 71.1601C188.987 70.5821 189.58 70.293 190.359 70.293C191.935 70.293 192.723 71.4491 192.723 73.7612V75.7512C192.723 78.0822 191.935 79.2479 190.359 79.2479Z" fill="#FFBF43"/>
<defs>
<linearGradient id="paint0_linear_527_57" x1="21.1025" y1="80.1292" x2="-1.11128" y2="61.214" gradientUnits="userSpaceOnUse">
<stop stop-color="white" stop-opacity="0"/>
<stop offset="1" stop-color="white"/>
</linearGradient>
<linearGradient id="paint1_linear_527_57" x1="22.1059" y1="56.1168" x2="26.3039" y2="89.3569" gradientUnits="userSpaceOnUse">
<stop offset="0.0141303" stop-color="#ECF6FF"/>
<stop offset="0.993244" stop-color="#0D1A62"/>
</linearGradient>
<linearGradient id="paint2_linear_527_57" x1="20.6089" y1="83.1944" x2="23.0606" y2="76.3851" gradientUnits="userSpaceOnUse">
<stop stop-opacity="0"/>
<stop offset="1"/>
</linearGradient>
<linearGradient id="paint3_linear_527_57" x1="27.7842" y1="62.159" x2="23.9121" y2="70.7264" gradientUnits="userSpaceOnUse">
<stop stop-opacity="0"/>
<stop offset="1"/>
</linearGradient>
</defs>
</svg>
