<svg width="200" height="150" viewBox="0 0 200 150" fill="none" xmlns="http://www.w3.org/2000/svg">
<g clip-path="url(#clip0_304_23)">
<path d="M33.9276 46.2344L5.3544 72.623C5.19755 72.7681 5.08681 72.9592 5.03685 73.1711C4.98688 73.3831 5.00005 73.6058 5.07461 73.8097C5.14917 74.0137 5.2816 74.1893 5.45435 74.3133C5.6271 74.4373 5.83201 74.5038 6.04194 74.504H31.618C28.5969 74.504 26.7099 71.5031 27.451 69.4026C28.1921 67.302 35.3116 47.2182 35.3116 47.2182C35.3796 47.0302 35.385 46.824 35.3268 46.6325C35.2687 46.441 35.1504 46.2754 34.9909 46.162C34.8315 46.0487 34.64 45.9942 34.4472 46.0073C34.2545 46.0205 34.0715 46.1004 33.9276 46.2344Z" fill="url(#paint0_linear_304_23)"/>
<path d="M45.4073 74.5015H19.8312C22.8523 74.5015 24.7393 77.4993 23.9982 79.5998C23.2571 81.7004 16.1435 101.784 16.1435 101.784C16.0773 101.972 16.0734 102.178 16.1323 102.369C16.1912 102.559 16.3096 102.724 16.4687 102.837C16.6279 102.95 16.8187 103.004 17.011 102.992C17.2033 102.979 17.3861 102.901 17.5305 102.768L46.1037 76.3794C46.2617 76.2343 46.3731 76.0425 46.4232 75.8297C46.4732 75.6169 46.4593 75.3932 46.3835 75.1888C46.3077 74.9844 46.1735 74.809 45.999 74.6861C45.8245 74.5633 45.618 74.4989 45.4073 74.5015Z" fill="url(#paint1_linear_304_23)"/>
<path d="M80.838 62.6189H60.929L60.1581 67.346H73.1589L57.6818 81.7221L56.9585 86.378H77.4509L78.186 81.6571H64.6137L80.1147 67.2903L80.838 62.6189ZM92.7852 62.1518C89.8274 62.114 86.9562 63.1893 84.7014 65.1793C82.4466 67.1693 80.9602 69.9397 80.5165 72.9795C79.948 76.7104 80.8469 80.3547 82.9929 82.9688C85.0644 85.4777 88.0855 86.8358 91.5827 86.8358C97.8896 86.8358 102.819 82.4831 103.839 76.0081C104.411 72.2958 103.518 68.6732 101.366 66.0467C99.3064 63.5346 96.2586 62.1518 92.7852 62.1518ZM98.9463 75.3894C98.6984 77.2008 97.832 78.8591 96.5052 80.0614C95.1784 81.2638 93.4799 81.9301 91.7196 81.9386C90.8269 81.9528 89.942 81.7647 89.1263 81.3876C88.3106 81.0104 87.5837 80.4531 86.9961 79.7545C85.6686 78.1675 85.0972 75.9339 85.4097 73.6353C85.9782 69.8425 89.0885 66.9871 92.6363 66.9871C93.552 66.9889 94.4563 67.1989 95.2856 67.6024C96.115 68.0059 96.8493 68.5931 97.4372 69.3228C98.466 70.6341 99.0331 72.2713 99.0445 73.9632C99.0542 74.4408 99.0213 74.9182 98.9463 75.3894ZM118.825 62.1518C115.868 62.114 112.997 63.1893 110.742 65.1793C108.487 67.1693 107.001 69.9397 106.557 72.9795C105.988 76.7104 106.887 80.3547 109.033 82.9688C111.093 85.4808 114.129 86.8513 117.626 86.8513C123.93 86.8513 128.85 82.4986 129.883 76.0236C130.463 72.3113 129.564 68.6732 127.406 66.0467C125.35 63.5346 122.314 62.1518 118.825 62.1518ZM125.001 75.3894C124.756 77.203 123.891 78.8642 122.564 80.0691C121.237 81.274 119.537 81.9421 117.775 81.951C116.881 81.9661 115.994 81.7785 115.177 81.4013C114.36 81.0241 113.631 80.4664 113.042 79.7669C112.374 78.9205 111.888 77.9358 111.615 76.8785C111.342 75.8212 111.289 74.7156 111.459 73.6353C112.027 69.8425 115.138 66.9871 118.683 66.9871C119.599 66.987 120.503 67.1962 121.333 67.5998C122.163 68.0034 122.897 68.5916 123.484 69.3228C124.512 70.6262 125.08 72.2561 125.094 73.9416C125.104 74.4261 125.073 74.9106 125.001 75.3894ZM168.585 81.7839C167.951 81.7839 167.537 81.6292 167.302 81.3384C167.067 81.0476 167.004 80.4382 167.15 79.5875L168.254 73.0908C168.805 69.7157 168.272 66.9036 166.686 64.9453C165.197 63.0892 162.861 62.127 159.932 62.127C157.054 62.127 154.429 63.4975 152.515 66.0095C151.235 63.5346 148.756 62.127 145.684 62.127C144.442 62.1159 143.212 62.3794 142.076 62.8999C140.939 63.4205 139.922 64.1862 139.092 65.1464C138.514 63.4604 137.115 62.5973 134.907 62.5973H132.645L131.91 67.2779H132.785C133.466 67.2779 133.907 67.4326 134.166 67.7482C134.487 68.1411 134.55 68.8155 134.371 69.8951L131.6 86.3563H136.761L138.999 73.5332C139.705 69.1558 141.705 66.8324 144.791 66.8324C146.116 66.8324 147.173 67.2872 147.875 68.1503C148.693 69.1805 148.961 70.7521 148.628 72.5928L146.274 86.378H151.438L153.712 73.3538C154.429 69.1403 156.408 66.8324 159.274 66.8324C160.599 66.8324 161.626 67.2625 162.307 68.1256C163.2 69.2053 163.474 70.9562 163.12 73.0259L161.929 79.8783C161.528 82.0624 161.801 83.8133 162.706 84.9549C163.45 85.883 164.599 86.378 166.034 86.378H168.876L169.614 81.7963L168.585 81.7839ZM193.062 66.0838C192.912 65.8352 192.746 65.5975 192.565 65.3723C190.904 63.315 187.97 62.1363 184.529 62.1363C178.151 62.1363 172.624 66.8324 171.677 73.0506C171.534 73.9708 171.48 74.9035 171.516 75.8349C171.581 77.7891 172.146 79.6901 173.153 81.3415C173.302 81.5705 173.466 81.8241 173.65 82.0654C173.743 82.1938 173.842 82.3168 173.948 82.4336C174.147 82.6857 174.357 82.9273 174.579 83.1575C174.693 83.2823 174.813 83.4011 174.939 83.5133C175.223 83.7835 175.521 84.0376 175.832 84.2743C176.091 84.463 176.359 84.6548 176.642 84.8311C176.779 84.9209 176.912 84.9982 177.058 85.0848C177.255 85.1993 177.463 85.3138 177.671 85.4158C177.977 85.5732 178.292 85.7086 178.615 85.8211C179.111 86.0046 179.617 86.1575 180.13 86.279L180.398 86.3563C180.695 86.4182 180.993 86.4708 181.276 86.5203C181.493 86.5574 181.725 86.5821 181.957 86.61C182.183 86.6478 182.411 86.6725 182.639 86.6842C182.868 86.709 183.1 86.7368 183.333 86.7492L183.975 86.7863C184.475 86.8111 184.973 86.8234 185.464 86.8234C185.955 86.8234 186.398 86.8234 186.86 86.7987C187.321 86.7739 187.752 86.7616 188.184 86.7368C188.779 86.6842 189.348 86.61 189.904 86.5326L190.64 81.8241C186.237 82.2542 183.978 82.282 181.541 81.7344C181.065 81.6131 180.596 81.4654 180.136 81.292C179.905 81.2064 179.68 81.103 179.463 80.9827C178.376 80.4767 177.483 79.6049 176.93 78.5078C176.848 78.3661 176.777 78.2182 176.716 78.0654C176.648 77.9269 176.593 77.7818 176.552 77.6323C176.502 77.4807 176.463 77.3415 176.412 77.2023C176.331 76.9203 176.273 76.6315 176.24 76.3391C176.242 76.3093 176.242 76.2793 176.24 76.2494C176.232 76.2117 176.227 76.1735 176.225 76.135H176.24C178.502 77.1014 180.923 77.6016 183.368 77.6075C186.94 77.6323 189.875 76.6176 191.741 74.8016C192.93 73.6754 193.707 72.156 193.94 70.5015C194.205 68.9664 193.89 67.3844 193.062 66.0838ZM188.973 69.7776C188.675 71.7544 186.449 72.899 182.853 72.899C180.8 72.89 178.764 72.4982 176.844 71.742C178.118 68.735 181.255 66.7304 184.681 66.7304C186.419 66.7304 187.773 67.2006 188.482 68.0637C188.68 68.2942 188.827 68.5674 188.911 68.8636C188.996 69.1599 189.017 69.4719 188.973 69.7776Z" fill="white"/>
</g>
<defs>
<linearGradient id="paint0_linear_304_23" x1="20.1857" y1="46.0519" x2="20.1857" y2="73.5944" gradientUnits="userSpaceOnUse">
<stop stop-color="#F7D518"/>
<stop offset="0.75" stop-color="#F7D518"/>
<stop offset="0.85" stop-color="#F6D119"/>
<stop offset="0.96" stop-color="#F3C41D"/>
<stop offset="1" stop-color="#F2BE1F"/>
</linearGradient>
<linearGradient id="paint1_linear_304_23" x1="31.2605" y1="101.626" x2="31.2605" y2="75.7699" gradientUnits="userSpaceOnUse">
<stop stop-color="#EF910E"/>
<stop offset="0.7" stop-color="#EF910E"/>
<stop offset="0.8" stop-color="#EA8B0E"/>
<stop offset="0.94" stop-color="#DC7B0F"/>
<stop offset="1" stop-color="#D37110"/>
</linearGradient>
<clipPath id="clip0_304_23">
<rect width="189" height="57" fill="white" transform="translate(5 46)"/>
</clipPath>
</defs>
</svg>
